{"glyphs":{"0":{"ha":775,"x_min":44,"x_max":742,"o":"m 403 -24 q 238 1 306 -24 q 126 81 169 26 q 64 220 83 135 q 44 426 44 306 q 400 863 44 863 q 654 753 567 863 q 742 426 742 644 q 718 235 742 318 q 650 94 694 151 q 543 6 606 36 q 403 -24 481 -24 m 390 200 q 442 212 419 200 q 481 251 465 224 q 504 324 496 278 q 513 438 513 369 q 508 497 513 463 q 492 563 504 532 q 457 615 479 593 q 399 636 435 636 q 343 609 365 636 q 308 544 321 582 q 291 466 296 506 q 286 401 286 426 q 288 340 286 375 q 300 274 290 306 q 331 222 310 243 q 390 200 353 200 z "},"1":{"ha":444,"x_min":0,"x_max":389,"o":"m 174 853 q 218 862 189 858 q 279 865 247 865 q 374 853 331 865 q 389 806 389 835 l 389 26 q 385 0 389 13 q 315 -10 353 -7 q 243 -14 278 -14 q 193 -10 217 -14 q 153 0 169 -7 q 151 13 151 7 q 151 26 151 19 l 151 538 q 124 512 136 526 q 99 485 113 497 q 65 509 82 493 q 35 546 49 525 q 13 591 22 567 q 0 639 3 615 q 33 691 13 661 q 76 751 53 721 q 124 809 99 782 q 174 853 150 836 z "},"2":{"ha":565,"x_min":21,"x_max":543,"o":"m 528 207 q 541 99 539 157 q 528 1 543 42 q 512 1 524 1 q 487 0 500 0 q 461 0 474 0 q 442 0 449 0 l 93 0 q 83 0 92 0 q 65 0 75 0 q 46 0 54 0 q 36 0 38 0 q 26 38 29 17 q 22 81 22 58 q 24 124 21 103 q 36 158 28 144 q 113 242 68 196 q 198 340 157 288 q 268 453 239 393 q 297 581 297 513 q 275 619 297 610 q 229 628 253 628 l 58 628 q 48 677 51 647 q 44 741 44 707 q 48 808 44 775 q 58 864 51 840 l 285 864 q 477 804 415 864 q 539 617 539 744 q 522 503 539 558 q 478 397 506 449 q 415 298 450 346 q 342 207 379 250 q 399 209 369 208 q 456 210 428 210 q 470 210 460 210 q 492 209 481 210 q 515 208 504 208 q 528 207 525 207 z "},"3":{"ha":553,"x_min":33,"x_max":526,"o":"m 44 -7 q 36 39 39 13 q 33 95 33 65 q 36 154 33 125 q 44 206 39 183 q 65 203 49 204 q 100 202 81 203 q 136 201 119 201 q 157 201 153 201 q 197 202 175 201 q 238 208 219 203 q 269 226 257 214 q 282 263 282 239 q 238 331 282 304 q 124 358 193 358 q 109 417 111 378 q 121 489 107 456 q 197 509 167 493 q 245 545 228 525 q 269 585 263 565 q 276 615 276 604 q 251 659 276 643 q 181 675 225 675 q 156 674 172 675 q 124 670 140 672 q 95 667 108 668 q 78 664 82 665 q 64 764 64 710 q 78 863 64 818 q 108 863 82 863 q 165 864 135 864 q 222 864 196 864 q 253 864 249 864 q 349 852 301 864 q 435 815 397 840 q 497 751 474 790 q 521 654 521 711 q 485 534 521 581 q 396 449 449 488 q 492 374 458 419 q 526 250 526 329 q 499 133 526 182 q 426 53 471 85 q 323 7 381 22 q 206 -8 265 -8 q 177 -8 201 -8 q 125 -8 153 -8 q 73 -8 97 -8 q 44 -7 49 -7 z "},"4":{"ha":674,"x_min":3,"x_max":639,"o":"m 142 179 q 63 235 101 200 q 3 318 25 269 q 30 401 14 353 q 63 503 46 450 q 99 608 81 556 q 132 703 117 660 q 158 774 147 746 q 172 807 169 801 q 177 815 175 811 q 182 821 179 818 q 293 793 240 815 q 390 735 346 771 q 367 654 382 700 q 336 563 351 608 q 308 482 321 518 q 289 429 294 446 q 280 405 285 417 q 271 382 275 393 l 399 382 l 403 801 q 407 853 403 828 q 518 872 454 872 q 636 853 581 872 q 638 836 638 844 q 639 819 639 828 l 639 54 q 632 0 639 28 q 572 -12 599 -8 q 517 -17 544 -17 q 465 -12 492 -17 q 406 0 438 -8 q 400 43 401 15 q 399 99 399 71 q 399 149 399 126 q 399 179 399 172 l 142 179 z "},"5":{"ha":592,"x_min":29,"x_max":558,"o":"m 38 -8 q 31 41 32 11 q 29 103 29 71 q 32 165 29 135 q 38 214 35 194 l 63 214 q 179 216 131 214 q 259 226 228 218 q 306 250 290 235 q 321 292 321 265 q 302 363 321 344 q 235 382 283 382 q 160 370 190 382 q 104 358 129 358 q 61 417 79 383 q 29 486 43 450 l 44 856 l 539 856 q 553 749 557 807 q 539 635 550 692 l 268 633 l 269 557 q 290 558 281 557 q 310 558 299 558 q 502 494 446 558 q 558 288 558 429 q 522 150 558 207 q 420 57 486 93 q 263 5 354 21 q 63 -11 172 -11 q 50 -10 56 -11 q 38 -8 44 -10 z "},"6":{"ha":725,"x_min":17,"x_max":701,"o":"m 447 868 q 508 794 485 836 q 543 704 531 753 q 516 688 538 699 q 465 658 494 676 q 401 614 435 640 q 335 551 367 588 q 377 563 354 558 q 424 568 400 568 q 631 495 560 568 q 701 279 701 422 q 675 160 701 215 q 602 63 649 104 q 492 -1 556 22 q 357 -25 429 -25 q 187 8 253 -25 q 83 97 121 42 q 31 222 46 151 q 17 364 17 292 q 89 619 17 503 q 286 813 161 736 q 364 849 319 833 q 447 868 408 865 m 357 194 q 404 199 382 194 q 444 216 426 204 q 473 247 463 228 q 483 294 483 267 q 453 363 483 338 q 382 388 422 388 q 342 383 364 388 q 299 369 319 379 q 266 344 279 360 q 253 307 253 329 q 283 225 253 256 q 357 194 313 194 z "},"7":{"ha":592,"x_min":33,"x_max":561,"o":"m 296 -29 q 240 -28 269 -31 q 183 -21 211 -26 q 130 -8 156 -15 q 85 11 104 0 q 98 85 85 35 q 131 199 111 135 q 176 334 151 263 q 224 471 200 406 q 269 589 249 536 q 300 668 289 642 l 132 668 q 115 668 128 668 q 90 669 103 668 q 65 670 76 669 q 50 671 54 671 q 50 853 33 765 q 66 855 54 854 q 92 856 78 856 q 118 856 106 856 q 136 856 131 856 l 547 856 q 560 760 558 808 q 551 679 561 713 q 536 615 551 665 q 497 493 521 564 q 442 340 472 422 q 384 184 413 258 q 332 52 356 110 q 296 -29 308 -6 z "},"8":{"ha":729,"x_min":19,"x_max":714,"o":"m 360 -43 q 109 27 199 -43 q 19 244 19 97 q 54 364 19 318 q 146 446 89 410 q 67 522 92 478 q 42 633 42 567 q 63 751 42 703 q 126 831 85 800 q 227 875 168 861 q 361 889 286 889 q 482 872 424 889 q 585 821 540 854 q 658 740 631 788 q 685 631 685 692 q 662 529 685 568 q 589 463 639 490 q 682 377 650 425 q 714 253 714 329 q 689 122 714 178 q 617 30 664 67 q 506 -25 571 -7 q 360 -43 440 -43 m 368 547 q 400 554 383 547 q 431 573 417 561 q 453 599 444 585 q 461 631 461 614 q 452 662 461 649 q 429 684 443 675 q 399 697 415 693 q 367 701 382 701 q 335 698 353 701 q 301 687 317 694 q 276 667 286 679 q 265 636 265 654 q 275 601 265 617 q 299 573 285 585 q 332 554 314 561 q 368 547 350 547 m 361 169 q 440 185 408 169 q 472 253 472 200 q 463 287 472 268 q 440 322 454 306 q 408 349 425 338 q 374 360 390 360 q 333 349 353 360 q 297 322 313 339 q 271 285 281 306 q 261 244 261 264 q 271 212 261 226 q 295 188 281 197 q 328 174 310 179 q 361 169 346 169 z "},"9":{"ha":732,"x_min":17,"x_max":701,"o":"m 271 -25 q 210 49 233 7 q 175 139 188 92 q 204 158 189 150 q 235 174 219 165 q 313 226 275 197 q 382 292 350 256 q 333 278 358 282 q 294 275 308 275 q 85 351 154 275 q 17 564 17 426 q 46 690 17 633 q 123 785 75 746 q 233 847 171 825 q 361 868 296 868 q 520 840 456 868 q 625 760 585 811 q 683 637 665 708 q 701 479 701 565 q 667 308 701 394 q 574 149 633 221 q 437 31 515 78 q 271 -25 358 -17 m 361 649 q 314 644 336 649 q 274 627 292 639 q 245 596 256 615 q 235 549 235 576 q 265 481 235 506 q 336 456 296 456 q 376 460 354 456 q 419 474 399 464 q 452 499 439 483 q 465 536 465 514 q 438 616 465 583 q 361 649 410 649 z "},"\u0000":{"ha":0,"x_min":0,"x_max":0,"o":""},"\r":{"ha":347,"x_min":0,"x_max":0,"o":""}," ":{"ha":458,"x_min":0,"x_max":0,"o":""},"!":{"ha":329,"x_min":42,"x_max":296,"o":"m 263 218 q 163 204 215 204 q 68 218 111 204 q 56 299 60 249 q 50 400 51 349 q 49 494 49 451 q 49 556 49 538 q 47 616 49 574 q 46 708 44 658 q 53 808 47 758 q 72 888 58 857 q 171 903 118 903 q 268 888 224 903 q 284 819 279 860 q 291 737 289 778 q 292 660 293 696 q 292 608 292 625 q 293 541 292 590 q 294 432 294 492 q 286 314 293 372 q 263 218 279 256 m 161 -32 q 109 -21 132 -32 q 72 8 86 -10 q 49 46 57 25 q 42 86 42 67 q 72 157 42 126 q 164 188 101 188 q 264 159 232 188 q 296 86 296 131 q 264 3 296 39 q 161 -32 232 -32 z "},"\"":{"ha":461,"x_min":25,"x_max":433,"o":"m 256 942 q 291 953 272 950 q 329 957 310 957 q 421 942 375 957 q 432 883 431 914 q 433 824 433 851 q 431 765 433 794 q 417 708 428 736 q 374 697 396 700 q 331 694 353 694 q 290 697 311 694 q 253 708 269 699 q 242 762 244 735 q 239 817 239 789 q 242 881 239 847 q 256 942 244 914 m 42 940 q 77 952 58 949 q 115 956 96 956 q 207 940 161 956 q 218 881 217 913 q 219 822 219 850 q 217 764 219 793 q 203 707 214 735 q 160 696 182 699 q 117 693 139 693 q 76 695 97 693 q 39 707 56 697 q 28 760 31 733 q 25 815 25 788 q 28 879 25 846 q 42 940 31 913 z "},"#":{"ha":883,"x_min":63,"x_max":828,"o":"m 585 782 q 653 792 618 792 q 719 778 688 792 q 749 696 746 738 q 749 684 749 690 q 746 672 749 678 q 761 675 754 675 q 796 670 781 675 q 825 658 811 665 q 819 553 828 603 q 782 453 810 503 q 740 443 763 446 q 699 440 718 440 q 690 425 694 429 q 735 417 715 422 q 771 400 756 411 q 765 284 779 342 q 724 174 751 226 q 668 165 699 165 q 649 165 657 165 q 635 168 642 165 q 619 98 628 133 q 594 33 611 63 q 504 23 554 19 q 422 50 454 26 q 417 73 418 61 q 414 97 415 85 q 421 171 413 133 l 360 168 q 339 114 351 143 q 310 61 326 85 q 239 45 278 44 q 160 76 200 46 q 154 99 156 88 q 151 122 153 111 q 152 153 150 138 q 157 185 154 169 q 149 182 154 182 q 68 211 97 182 q 77 317 63 260 q 115 425 92 374 q 165 429 139 429 q 208 447 194 429 q 165 458 185 451 q 128 478 144 465 q 131 578 121 522 q 174 685 142 635 l 183 685 q 209 684 194 685 q 238 685 224 683 q 263 692 251 686 q 278 713 274 699 q 292 753 285 732 q 311 794 300 775 q 385 803 346 804 q 464 788 424 803 q 483 724 481 760 q 484 703 483 714 q 482 681 485 693 q 523 683 507 675 q 547 701 539 690 q 558 717 556 711 q 557 714 560 724 q 569 748 563 729 q 585 782 575 767 m 426 417 q 456 414 440 417 q 483 418 472 411 q 490 434 489 424 q 493 454 492 444 q 478 459 489 457 q 457 461 468 461 q 435 460 446 461 q 419 457 425 460 q 411 442 413 454 q 413 417 410 429 l 426 417 z "},"$":{"ha":626,"x_min":49,"x_max":590,"o":"m 360 -57 q 301 -72 336 -75 q 247 -54 267 -69 q 239 -8 240 -32 q 238 32 238 15 l 238 85 q 166 99 201 89 q 103 129 131 110 q 97 221 92 171 q 126 303 101 271 l 129 303 q 168 299 151 303 q 200 292 185 296 q 232 284 215 288 q 271 281 249 281 q 292 281 276 281 q 326 285 308 282 q 356 292 343 288 q 369 303 369 296 q 356 316 369 311 q 324 323 342 321 q 290 325 307 325 q 267 325 274 325 q 99 380 150 325 q 49 543 49 435 q 61 622 49 585 q 98 690 74 660 q 157 742 122 721 q 236 774 192 764 q 235 794 236 785 q 235 813 235 804 q 237 862 235 832 q 250 915 239 892 q 300 929 274 931 q 353 913 326 928 q 362 877 358 896 q 367 840 365 858 q 368 807 368 822 q 368 782 368 792 l 368 775 q 426 771 397 782 q 479 739 456 760 q 487 664 490 701 q 471 585 483 626 q 464 584 468 585 q 456 583 460 583 q 412 585 442 583 q 351 586 382 588 q 299 576 321 585 q 276 546 276 568 q 288 539 276 542 q 313 534 299 536 q 340 531 326 532 q 358 528 354 529 q 455 508 413 522 q 528 469 497 494 q 574 404 558 443 q 590 310 590 365 q 573 227 590 267 q 526 158 556 188 q 455 109 496 128 q 368 86 414 90 l 368 21 q 367 -16 368 6 q 360 -57 367 -37 z "},"%":{"ha":981,"x_min":39,"x_max":935,"o":"m 247 -6 q 165 33 200 10 q 124 103 131 56 q 167 182 138 136 q 231 273 197 228 q 295 357 264 318 q 343 414 326 396 q 484 588 415 500 q 628 761 553 676 q 670 805 646 781 q 725 844 694 829 q 798 794 765 826 q 853 722 831 763 q 824 664 844 692 q 668 464 749 563 q 507 265 588 365 q 465 211 488 240 q 417 151 442 182 q 369 93 393 121 q 321 43 344 65 q 288 15 306 29 q 247 -6 271 1 m 250 482 q 158 498 197 482 q 92 540 118 514 q 52 599 65 565 q 39 669 39 633 q 54 733 39 701 q 97 789 69 764 q 163 829 125 814 q 246 844 200 844 q 400 799 353 844 q 447 678 447 754 q 435 611 447 646 q 397 548 422 576 q 335 501 372 519 q 250 482 299 482 m 250 644 q 274 656 267 644 q 281 678 281 667 q 269 688 281 686 q 250 690 258 690 q 228 686 239 690 q 217 672 217 682 q 226 653 217 661 q 250 644 235 644 m 738 -22 q 645 -6 685 -22 q 579 35 606 10 q 540 95 553 61 q 526 165 526 129 q 542 228 526 197 q 584 285 557 260 q 649 325 611 310 q 733 340 688 340 q 887 295 839 340 q 935 174 935 250 q 922 108 935 143 q 885 44 910 74 q 823 -3 860 15 q 738 -22 786 -22 m 738 140 q 761 151 754 140 q 768 174 768 163 q 757 184 768 182 q 738 186 746 186 q 715 182 726 186 q 704 168 704 178 q 713 149 704 157 q 738 140 722 140 z "},"&":{"ha":922,"x_min":22,"x_max":881,"o":"m 881 114 q 858 77 874 96 q 824 42 843 58 q 785 14 806 26 q 746 -6 764 1 q 710 16 729 3 q 676 42 692 29 q 649 67 660 56 q 636 85 638 79 q 581 47 610 67 q 523 10 553 26 q 460 -16 493 -6 q 392 -26 428 -26 q 115 47 207 -26 q 22 282 22 119 q 69 444 22 376 q 218 553 115 513 q 205 584 211 565 q 194 622 199 603 q 186 656 189 640 q 183 678 183 672 q 206 764 183 726 q 265 826 228 801 q 352 865 303 851 q 456 878 401 878 q 508 874 481 878 q 563 863 536 871 q 615 844 590 856 q 657 815 640 832 q 648 770 656 794 q 628 722 640 746 q 599 679 615 699 q 563 647 582 660 q 546 656 553 651 q 532 665 539 661 q 517 673 525 669 q 494 676 508 676 q 454 671 475 676 q 433 644 433 665 q 447 610 433 633 q 483 559 461 588 q 531 499 504 531 q 582 438 557 467 q 628 385 607 408 q 661 349 650 361 q 688 394 675 369 q 722 436 701 419 q 795 402 757 426 q 851 346 833 378 q 825 281 844 314 q 786 225 806 249 q 834 176 806 206 q 881 114 863 146 m 479 224 q 435 280 458 250 q 392 335 413 310 q 354 376 371 360 q 329 393 338 393 q 293 383 308 393 q 267 357 278 372 q 252 324 257 342 q 247 289 247 306 q 259 242 247 261 q 290 212 271 224 q 333 194 310 200 q 379 189 357 189 q 440 198 419 189 q 479 224 461 207 z "},"'":{"ha":257,"x_min":25,"x_max":219,"o":"m 42 940 q 77 952 58 949 q 115 956 96 956 q 207 940 161 956 q 218 881 217 913 q 219 822 219 850 q 217 764 219 793 q 203 707 214 735 q 160 696 182 699 q 117 693 139 693 q 76 695 97 693 q 39 707 56 697 q 28 760 31 733 q 25 815 25 788 q 28 879 25 846 q 42 940 31 913 z "},"(":{"ha":442,"x_min":24,"x_max":400,"o":"m 385 93 q 396 50 392 75 q 400 0 400 25 q 396 -50 400 -25 q 382 -93 392 -75 q 360 -97 372 -97 q 342 -94 351 -97 q 325 -89 333 -92 q 95 93 167 -22 q 24 379 24 208 q 36 506 24 442 q 72 629 49 569 q 132 742 96 689 q 215 838 168 796 q 248 864 229 849 q 288 893 267 879 q 331 917 310 907 q 371 926 353 926 l 375 926 q 389 877 385 904 q 393 822 393 850 q 391 766 393 794 q 385 714 389 738 q 328 642 351 678 q 292 565 306 606 q 272 481 278 525 q 265 383 265 436 q 299 198 265 272 q 385 93 332 124 z "},")":{"ha":443,"x_min":31,"x_max":407,"o":"m 46 93 q 132 198 99 124 q 165 383 165 272 q 159 481 165 436 q 139 565 153 525 q 102 642 125 606 q 46 714 79 678 q 40 766 42 738 q 38 822 38 794 q 42 877 38 850 q 56 926 46 904 l 60 926 q 99 917 78 926 q 142 893 121 907 q 183 864 164 879 q 215 838 201 849 q 299 742 263 796 q 358 629 335 689 q 394 506 382 569 q 407 379 407 442 q 335 93 407 208 q 106 -89 264 -22 q 88 -94 97 -92 q 71 -97 79 -97 q 49 -93 60 -97 q 35 -50 39 -75 q 31 0 31 -25 q 35 50 31 25 q 46 93 39 75 z "},"*":{"ha":503,"x_min":29,"x_max":490,"o":"m 335 876 q 338 851 338 867 q 339 819 339 836 q 340 788 339 803 q 340 761 340 772 q 358 772 347 765 q 379 785 368 779 q 401 797 390 792 q 419 804 411 803 q 461 750 443 781 q 490 689 479 719 q 441 653 471 669 q 386 622 411 638 q 406 603 394 614 q 431 581 418 593 q 454 558 443 569 q 471 538 465 547 q 431 483 456 510 q 378 438 406 456 q 356 455 372 440 q 322 486 340 469 q 288 519 304 503 q 265 542 272 535 q 242 519 258 535 q 209 486 226 503 q 176 456 192 469 q 154 439 161 442 q 101 484 126 457 q 61 539 76 511 q 98 579 72 556 q 139 618 124 603 q 82 650 114 633 q 29 688 50 667 q 58 749 40 718 q 100 803 76 779 q 122 794 108 801 q 149 779 135 788 q 176 763 163 771 q 197 750 189 754 q 197 775 197 758 q 196 810 196 792 q 197 846 196 829 q 200 869 197 863 q 279 882 240 882 q 307 881 292 882 q 335 876 322 879 z "},"+":{"ha":646,"x_min":72,"x_max":599,"o":"m 231 643 q 330 651 279 654 q 431 643 381 649 q 438 579 438 617 q 440 518 439 542 q 460 519 451 519 q 481 519 469 519 q 502 519 486 519 q 536 519 518 519 q 569 517 554 518 q 590 515 585 517 q 598 416 599 465 q 590 318 597 367 q 560 312 581 314 q 517 308 539 310 q 474 304 494 306 q 443 303 453 303 q 442 272 443 290 q 438 234 440 254 q 433 196 436 214 q 426 167 431 178 q 331 158 379 157 q 236 167 282 160 q 228 199 232 179 q 223 238 225 218 q 219 276 221 258 q 217 306 218 294 q 190 304 199 306 q 164 303 182 303 q 147 303 158 303 q 122 305 135 304 q 99 307 110 306 q 83 310 88 308 q 75 402 78 354 q 82 501 72 450 q 115 509 97 507 q 151 512 132 511 q 187 513 169 513 q 218 517 204 514 q 222 580 219 543 q 231 643 224 617 z "},",":{"ha":374,"x_min":26,"x_max":324,"o":"m 324 124 q 308 39 324 78 q 261 -28 292 0 q 188 -73 231 -57 q 92 -89 146 -89 q 40 -64 54 -89 q 26 -11 26 -39 q 63 47 26 25 q 49 80 53 63 q 44 113 44 97 q 81 208 44 169 q 186 246 118 246 q 288 210 251 246 q 324 124 324 174 z "},"-":{"ha":592,"x_min":75,"x_max":497,"o":"m 483 538 q 497 431 497 489 q 483 332 497 372 q 429 322 457 322 q 365 320 407 321 q 278 319 324 319 q 190 319 232 319 q 125 319 147 319 q 106 321 115 319 q 89 325 97 322 q 78 374 82 347 q 75 427 75 400 q 78 481 75 454 q 89 529 82 507 q 140 538 113 538 q 208 540 164 539 q 299 540 251 540 q 391 540 347 540 q 458 540 435 540 q 471 540 465 540 q 483 538 476 539 z "},".":{"ha":358,"x_min":43,"x_max":325,"o":"m 179 -44 q 75 -8 107 -44 q 43 101 43 28 q 78 205 43 164 q 178 246 114 246 q 287 213 249 246 q 325 113 325 181 q 287 -1 325 42 q 179 -44 249 -44 z "},"/":{"ha":592,"x_min":24,"x_max":578,"o":"m 228 -68 q 119 -46 169 -65 q 24 22 69 -26 q 63 156 38 76 q 120 324 88 235 q 189 504 153 413 q 263 676 225 596 q 338 816 301 756 q 404 901 374 876 q 498 863 454 889 q 578 800 542 836 q 547 697 568 764 q 497 545 525 629 q 433 369 468 461 q 363 193 399 278 q 292 39 328 108 q 228 -68 257 -31 z "},":":{"ha":386,"x_min":43,"x_max":325,"o":"m 179 588 q 75 624 107 588 q 43 733 43 660 q 78 837 43 796 q 178 878 114 878 q 287 845 249 878 q 325 744 325 813 q 287 631 325 674 q 179 588 249 588 m 179 -44 q 75 -8 107 -44 q 43 101 43 28 q 78 205 43 164 q 178 246 114 246 q 287 213 249 246 q 325 113 325 181 q 287 -1 325 42 q 179 -44 249 -44 z "},";":{"ha":393,"x_min":26,"x_max":325,"o":"m 179 588 q 75 624 107 588 q 43 733 43 660 q 78 837 43 796 q 178 878 114 878 q 287 845 249 878 q 325 744 325 813 q 287 631 325 674 q 179 588 249 588 m 324 124 q 308 39 324 78 q 261 -28 292 0 q 188 -73 231 -57 q 92 -89 146 -89 q 40 -64 54 -89 q 26 -11 26 -39 q 63 47 26 25 q 49 80 53 63 q 44 113 44 97 q 81 208 44 169 q 186 246 118 246 q 288 210 251 246 q 324 124 324 174 z "},"<":{"ha":439,"x_min":24,"x_max":422,"o":"m 422 326 q 383 235 407 278 q 322 156 358 193 q 260 181 296 167 q 184 215 224 196 q 106 256 144 233 q 39 306 68 279 q 24 426 24 360 q 39 554 25 492 q 102 607 67 582 q 174 653 138 632 q 247 690 211 674 q 310 715 282 706 q 366 642 343 686 q 404 551 389 597 q 372 519 390 535 q 335 488 354 503 q 297 461 315 474 q 265 438 279 449 q 352 386 308 414 q 422 326 396 358 z "},"=":{"ha":631,"x_min":107,"x_max":540,"o":"m 126 444 q 110 528 108 482 q 126 619 111 575 q 179 624 150 622 q 236 625 208 625 q 288 625 264 625 q 324 625 311 625 q 362 625 338 625 q 414 624 386 625 q 471 622 442 624 q 525 615 500 619 q 540 532 540 575 q 525 453 539 489 q 476 443 503 446 q 423 439 450 440 q 370 438 396 438 q 324 439 344 439 q 226 438 276 439 q 126 444 175 438 m 126 247 q 110 323 113 279 q 126 408 107 367 q 183 416 153 414 q 241 419 213 418 q 295 419 269 419 q 339 419 321 419 q 426 418 374 419 q 525 408 479 417 q 539 326 538 368 q 525 247 540 283 q 422 236 476 236 q 326 236 367 236 q 292 237 318 236 q 233 240 265 238 q 172 244 201 242 q 126 247 142 246 z "},">":{"ha":449,"x_min":18,"x_max":417,"o":"m 18 326 q 88 386 44 358 q 175 438 132 414 q 143 461 161 449 q 106 488 125 474 q 68 519 86 503 q 36 551 50 535 q 74 642 51 597 q 131 715 97 686 q 194 690 158 706 q 266 653 229 674 q 338 607 303 632 q 401 554 374 582 q 416 426 415 492 q 401 306 417 360 q 334 256 372 279 q 256 215 296 233 q 181 181 217 196 q 118 156 144 167 q 58 235 82 193 q 18 326 33 278 z "},"?":{"ha":490,"x_min":19,"x_max":472,"o":"m 43 651 q 25 699 31 672 q 19 756 19 726 q 23 817 19 786 q 32 878 26 849 q 71 895 47 889 q 119 905 94 901 q 168 910 144 908 q 207 911 192 911 q 314 892 265 911 q 398 839 363 874 q 453 756 433 804 q 472 649 472 707 q 449 496 472 558 q 357 385 425 433 q 336 369 344 375 q 323 355 328 363 q 316 338 318 347 q 313 311 314 328 q 312 292 313 307 q 310 258 311 276 q 308 226 310 240 q 306 207 307 211 q 201 201 257 201 q 101 207 146 201 q 96 232 99 214 q 91 272 93 250 q 88 313 89 293 q 88 340 88 332 q 98 422 88 392 q 124 470 108 453 q 159 498 140 488 q 194 520 178 508 q 220 551 210 532 q 231 603 231 569 q 210 649 231 639 q 158 658 190 658 q 138 658 154 658 q 101 656 121 657 q 64 654 81 656 q 43 651 47 653 m 189 -32 q 137 -21 160 -32 q 99 8 114 -10 q 77 46 85 25 q 69 86 69 67 q 99 157 69 126 q 192 188 129 188 q 292 159 260 188 q 324 86 324 131 q 292 3 324 39 q 189 -32 260 -32 z "},"@":{"ha":1035,"x_min":18,"x_max":1001,"o":"m 606 628 q 653 641 621 639 q 713 631 685 643 q 740 575 733 608 q 746 513 746 542 q 744 463 746 488 q 742 413 742 438 q 744 392 742 404 q 753 370 747 381 q 767 353 758 360 q 785 346 775 346 q 803 356 796 346 q 814 380 810 367 q 819 407 818 393 q 821 428 821 421 q 799 554 821 496 q 739 655 778 613 q 645 722 700 697 q 524 746 590 746 q 401 717 460 746 q 298 641 343 689 q 226 529 253 593 q 200 394 200 465 q 222 281 200 335 q 281 185 243 226 q 373 119 319 143 q 490 94 426 94 q 569 97 526 94 q 656 103 611 100 q 742 110 700 107 q 819 113 785 113 l 828 113 q 839 38 842 76 q 819 -42 836 -1 q 510 -76 733 -76 q 313 -44 403 -76 q 157 49 222 -11 q 55 192 92 108 q 18 376 18 275 q 58 582 18 485 q 167 752 97 679 q 330 867 236 825 q 532 910 424 910 q 713 878 628 910 q 863 787 799 846 q 964 644 926 728 q 1001 460 1001 561 q 985 351 1001 407 q 938 250 969 296 q 861 174 907 204 q 756 144 815 144 q 683 165 711 144 q 629 218 656 186 q 596 207 614 218 q 556 181 578 196 q 506 155 533 167 q 444 143 478 143 q 364 163 399 143 q 305 215 329 183 q 268 288 281 247 q 256 371 256 329 q 274 472 256 421 q 323 565 292 524 q 394 632 354 606 q 479 658 435 658 q 550 644 519 658 q 588 585 581 629 q 594 605 590 593 q 606 628 599 617 m 486 342 q 544 369 519 342 q 569 428 569 396 q 550 472 569 456 q 503 489 531 489 q 475 481 489 489 q 450 459 461 472 q 433 428 439 446 q 426 393 426 411 q 447 356 426 369 q 486 342 467 342 z "},"A":{"ha":769,"x_min":6,"x_max":761,"o":"m 239 856 q 299 872 265 867 q 371 878 333 878 q 467 872 418 878 q 560 856 515 865 q 595 769 575 832 q 637 621 615 706 q 679 441 658 536 q 717 258 700 346 q 747 101 735 171 q 761 0 758 32 q 702 -9 733 -7 q 640 -11 671 -11 q 519 0 571 -11 q 506 39 514 15 q 492 88 499 63 q 478 138 485 114 q 465 176 471 161 q 439 172 454 174 q 406 171 424 171 q 342 173 374 171 q 293 178 311 175 q 283 135 289 161 q 271 83 278 110 q 258 34 264 57 q 244 0 251 11 q 128 -8 190 -8 q 11 0 65 -8 q 14 95 6 29 q 40 247 22 161 q 81 428 57 333 q 133 609 106 524 q 188 761 160 694 q 239 856 215 828 m 390 711 q 385 688 390 711 q 374 628 381 664 q 358 551 367 593 q 343 471 350 508 q 331 406 336 433 q 324 374 325 379 q 350 376 335 376 q 382 376 365 376 q 417 376 400 376 q 444 374 433 376 q 418 535 431 463 q 409 595 414 565 q 400 650 404 625 q 393 691 396 675 q 390 711 390 707 z "},"B":{"ha":714,"x_min":26,"x_max":693,"o":"m 33 856 q 80 867 51 863 q 141 872 108 871 q 205 868 174 872 q 261 856 236 864 q 262 804 264 836 q 263 754 260 772 q 288 797 275 775 q 320 839 301 819 q 365 871 339 858 q 428 883 390 883 q 513 868 471 883 q 590 823 556 853 q 644 749 624 793 q 665 649 665 706 q 616 507 665 560 q 489 436 567 454 q 556 422 521 435 q 622 385 592 408 q 673 326 653 361 q 693 246 693 292 q 666 124 693 174 q 589 43 639 74 q 469 -1 539 13 q 313 -14 399 -14 q 237 -13 271 -14 q 170 -10 203 -12 q 104 -6 138 -8 q 33 0 71 -3 q 29 74 31 21 q 27 202 28 128 q 26 365 26 276 q 27 541 26 453 q 29 711 28 629 q 33 856 31 793 m 343 533 q 401 549 379 533 q 424 606 424 564 q 403 644 424 633 q 360 654 383 654 q 333 649 346 654 q 308 635 319 643 q 290 619 297 628 q 283 601 283 610 l 283 535 q 297 533 288 533 l 343 533 m 301 193 q 344 193 319 193 q 392 199 369 193 q 431 218 415 204 q 447 260 447 232 q 435 294 447 282 q 406 312 424 306 q 369 319 389 318 q 335 321 350 321 l 297 321 q 283 308 283 321 l 283 199 q 291 194 283 194 q 301 193 299 193 z "},"C":{"ha":572,"x_min":18,"x_max":556,"o":"m 544 190 q 552 135 550 165 q 554 76 554 106 q 551 21 554 47 q 544 -24 549 -6 q 505 -26 533 -25 q 439 -26 476 -26 q 264 -5 342 -26 q 131 67 186 17 q 47 201 76 118 q 18 407 18 285 q 142 765 18 651 q 494 879 265 879 q 519 878 500 879 q 544 878 539 878 q 553 831 551 858 q 555 775 556 804 q 551 717 554 746 q 544 667 549 689 l 514 667 q 428 651 469 667 q 354 605 386 636 q 303 524 322 574 q 285 406 285 475 q 302 294 285 338 q 349 228 319 251 q 416 197 378 206 q 494 189 454 189 q 501 189 494 189 q 515 189 507 189 q 532 190 524 189 q 544 190 540 190 z "},"D":{"ha":763,"x_min":26,"x_max":743,"o":"m 38 0 q 29 73 26 33 q 29 150 32 113 l 31 690 q 31 776 31 732 q 38 858 31 821 q 96 869 63 865 q 167 876 129 874 q 243 878 204 878 q 319 879 282 879 q 492 846 414 879 q 626 754 569 813 q 713 617 682 696 q 743 450 743 539 q 713 274 743 357 q 628 128 683 190 q 494 28 574 65 q 315 -8 415 -8 q 177 -9 246 -8 q 38 0 108 -10 m 288 199 q 378 221 342 199 q 438 279 415 243 q 471 361 461 315 q 481 454 481 407 q 473 526 481 490 q 448 592 465 563 q 402 639 431 621 q 332 657 374 657 l 310 657 q 292 656 301 657 q 282 644 282 656 l 282 206 q 288 199 285 199 z "},"E":{"ha":617,"x_min":26,"x_max":588,"o":"m 579 224 q 585 172 583 200 q 588 115 588 143 q 585 58 588 86 q 579 10 583 31 q 526 0 567 4 q 430 -7 485 -4 q 314 -11 375 -10 q 199 -12 253 -12 q 103 -11 143 -12 q 51 -6 63 -10 q 29 89 32 39 q 26 188 26 139 l 26 704 q 27 745 26 724 q 31 788 28 767 q 38 828 33 810 q 49 856 42 846 l 578 856 q 585 828 583 856 q 588 767 588 801 q 585 700 588 732 q 579 657 583 668 l 286 651 l 283 544 q 328 547 301 546 q 382 547 354 547 q 436 547 410 547 q 482 547 463 547 q 510 540 496 547 q 510 357 528 447 q 485 351 500 351 q 384 348 435 350 q 283 347 333 346 l 283 267 q 304 213 283 221 q 368 204 325 204 q 415 206 386 204 q 475 210 444 207 q 534 216 506 213 q 579 224 563 219 z "},"F":{"ha":582,"x_min":25,"x_max":565,"o":"m 513 465 q 522 365 522 417 q 510 269 521 314 l 274 267 l 278 99 q 278 80 278 94 q 278 49 278 65 q 277 17 278 32 q 276 0 276 3 q 221 -8 251 -6 q 158 -10 190 -11 q 94 -7 126 -10 q 35 0 63 -4 q 28 147 31 61 q 26 331 26 233 q 26 531 25 429 q 26 722 26 632 q 32 790 26 754 q 53 857 38 825 q 155 857 85 857 q 303 856 225 857 q 452 856 382 856 q 554 856 522 856 q 565 757 565 808 q 554 656 564 706 l 301 657 q 285 653 293 657 q 278 642 278 650 l 278 479 q 297 463 278 463 q 347 463 318 463 q 405 464 375 464 q 463 465 435 464 q 513 465 492 465 z "},"G":{"ha":786,"x_min":21,"x_max":761,"o":"m 414 351 q 399 450 401 396 q 414 547 397 504 l 589 547 q 669 531 636 547 q 722 490 701 515 q 752 433 743 464 q 761 374 761 403 q 743 220 761 294 q 685 90 725 146 q 578 -1 644 33 q 414 -35 511 -35 q 237 3 311 -35 q 115 106 163 42 q 44 254 67 169 q 21 432 21 339 q 47 624 21 539 q 126 769 74 710 q 257 860 178 828 q 440 892 336 892 q 519 888 481 892 q 588 881 557 885 q 639 873 618 876 q 664 869 660 869 q 672 768 674 821 q 663 669 671 715 q 633 676 657 672 q 579 683 610 679 q 517 690 549 688 q 461 693 485 693 q 380 673 414 693 q 323 618 346 653 q 289 536 300 583 q 278 435 278 489 q 285 356 278 397 q 310 281 293 315 q 357 224 328 246 q 429 201 386 201 q 513 232 492 201 q 533 317 533 263 q 518 346 533 340 q 479 351 503 351 l 414 351 z "},"H":{"ha":719,"x_min":32,"x_max":697,"o":"m 689 -1 q 576 -14 636 -14 q 457 -1 515 -14 q 453 56 453 28 l 447 290 l 286 290 l 275 72 q 267 -1 275 39 q 151 -12 213 -11 q 38 -1 89 -12 q 33 35 35 17 q 32 72 32 54 l 32 811 q 40 857 32 835 q 152 867 93 867 q 268 857 211 867 q 274 832 272 844 q 275 808 275 819 l 278 506 l 451 504 l 453 803 q 454 829 453 815 q 458 857 456 843 q 515 860 485 858 q 574 864 544 863 q 633 865 604 865 q 688 857 663 864 q 695 828 693 843 q 697 799 697 814 l 697 56 q 689 -1 697 28 z "},"I":{"ha":453,"x_min":25,"x_max":432,"o":"m 424 174 q 430 138 428 158 q 432 94 432 117 q 430 52 432 72 q 424 17 428 32 q 390 8 411 11 q 342 2 368 4 q 288 0 315 0 q 238 0 261 0 l 193 0 q 92 3 135 0 q 32 25 49 7 q 28 56 29 38 q 28 93 28 74 q 29 132 28 113 q 32 165 31 151 q 64 178 42 174 q 110 182 86 182 l 107 690 l 86 690 q 74 690 82 690 q 58 691 67 690 q 42 692 50 692 q 32 694 35 693 q 25 769 25 726 q 32 846 25 811 q 105 858 56 856 q 204 860 154 860 q 264 859 232 860 q 326 857 296 858 q 381 852 356 856 q 419 843 406 849 q 419 701 432 768 q 388 699 404 701 q 356 700 371 697 l 356 178 q 369 178 360 178 q 390 177 379 178 q 411 176 401 176 q 424 174 421 175 z "},"J":{"ha":633,"x_min":13,"x_max":597,"o":"m 24 317 q 58 329 35 324 q 109 339 82 335 q 160 345 136 343 q 194 344 185 347 q 201 299 200 322 q 208 255 203 275 q 226 222 213 235 q 271 208 240 208 q 316 217 300 208 q 340 240 332 225 q 349 274 347 254 q 350 318 350 294 q 351 366 350 342 q 351 414 351 390 l 351 636 q 310 635 338 636 q 253 635 283 635 q 193 635 222 635 q 144 640 164 636 q 132 690 136 661 q 128 750 128 719 q 132 809 128 781 q 144 856 136 838 q 165 857 156 857 q 185 857 174 857 l 594 856 q 597 832 596 850 q 597 794 597 814 q 597 758 597 775 q 597 733 597 740 q 596 546 597 639 q 594 358 594 453 q 594 249 594 308 q 576 140 593 189 q 478 20 553 68 q 282 -28 403 -28 q 176 -11 225 -28 q 90 38 126 6 q 33 118 54 71 q 13 226 13 165 q 15 269 13 246 q 24 317 17 293 z "},"K":{"ha":689,"x_min":17,"x_max":689,"o":"m 260 3 q 144 -8 206 -8 q 28 3 82 -8 q 20 149 17 75 q 24 296 24 224 q 23 494 24 396 q 22 692 22 592 q 22 730 22 708 q 24 774 22 751 q 28 818 25 797 q 39 853 32 839 q 85 863 60 860 q 139 865 111 865 q 195 862 167 865 q 249 853 224 858 q 265 812 260 833 q 271 768 271 790 q 270 723 271 758 q 269 649 269 688 q 267 578 268 610 q 263 542 265 546 q 282 573 268 549 q 315 630 296 597 q 354 700 333 663 q 397 771 375 738 q 437 829 418 804 q 469 863 456 854 q 524 852 496 860 q 580 833 553 844 q 632 807 607 821 q 675 779 657 793 q 655 738 671 767 q 617 673 639 710 q 569 597 594 636 q 522 523 544 557 q 483 465 500 489 q 460 435 465 440 q 483 409 465 432 q 525 353 501 386 q 576 283 549 321 q 628 209 604 244 q 668 146 651 174 q 689 107 685 118 q 591 35 647 67 q 483 -12 535 3 q 422 63 456 17 q 356 156 388 108 q 300 247 325 204 q 265 310 275 289 q 267 215 265 261 q 269 119 269 168 q 268 60 269 90 q 260 3 267 31 z "},"L":{"ha":565,"x_min":42,"x_max":536,"o":"m 522 228 q 533 172 529 203 q 536 110 536 142 q 533 49 536 79 q 522 -1 529 19 l 383 -1 q 319 -1 368 -1 q 214 -1 269 -1 q 109 0 158 0 q 44 0 60 0 l 42 72 l 42 817 q 42 837 42 828 q 44 856 43 846 q 162 867 101 867 q 281 856 222 867 q 285 840 283 849 q 286 825 286 832 l 286 238 q 339 246 304 244 q 411 245 374 247 q 481 238 449 243 q 522 228 513 233 z "},"M":{"ha":876,"x_min":32,"x_max":846,"o":"m 585 856 q 700 869 642 869 q 810 856 758 868 q 826 810 819 839 q 838 751 833 782 q 844 691 842 719 q 846 644 846 663 l 846 65 q 844 33 846 50 q 835 0 842 17 q 783 -11 813 -7 q 722 -15 753 -15 q 662 -12 692 -15 q 607 0 632 -8 q 603 36 604 18 q 603 69 603 54 l 608 518 q 581 481 601 510 q 535 419 561 451 q 481 363 508 388 q 431 338 453 338 q 387 365 414 338 q 334 426 360 392 q 290 489 308 460 q 272 522 272 518 l 272 65 q 263 0 272 29 q 146 -11 207 -11 q 36 0 85 -11 q 32 60 32 33 l 32 625 q 32 675 32 643 q 34 742 32 707 q 41 808 36 776 q 56 857 46 840 q 108 870 79 865 q 166 875 136 875 q 225 871 196 875 q 279 857 254 867 q 323 782 300 826 q 367 696 346 738 q 406 624 388 654 q 433 594 424 594 q 464 640 444 608 q 505 708 483 671 q 548 785 526 746 q 585 856 569 825 z "},"N":{"ha":786,"x_min":28,"x_max":756,"o":"m 750 0 q 699 -9 731 -6 q 631 -13 667 -12 q 561 -11 596 -14 q 501 0 526 -8 q 431 110 463 51 q 372 229 400 168 q 317 351 343 290 q 258 468 290 413 q 262 406 260 438 q 264 344 264 375 q 265 265 264 313 q 265 169 265 218 q 261 75 264 121 q 251 0 258 29 q 210 -8 238 -4 q 151 -12 182 -11 q 88 -11 119 -14 q 35 0 57 -8 q 29 40 31 19 q 28 81 28 61 l 28 804 q 30 830 28 817 q 38 854 32 843 q 90 862 58 860 q 154 864 121 864 q 220 861 188 864 q 278 854 253 858 q 306 805 288 842 q 349 721 325 768 q 400 622 374 674 q 449 526 426 569 q 489 455 472 483 q 510 425 506 426 l 510 774 q 511 814 510 793 q 519 854 513 835 q 572 864 540 861 q 638 866 604 867 q 701 863 671 865 q 750 854 732 860 q 756 806 756 833 l 756 93 q 755 47 756 69 q 750 0 754 24 z "},"O":{"ha":794,"x_min":13,"x_max":775,"o":"m 396 -35 q 222 -2 294 -35 q 102 90 149 31 q 34 231 56 149 q 13 413 13 314 q 32 608 13 521 q 97 758 51 696 q 215 853 142 819 q 397 888 289 888 q 575 850 503 888 q 692 748 647 813 q 756 595 736 683 q 775 407 775 507 q 751 240 775 319 q 680 99 728 160 q 561 1 632 38 q 396 -35 490 -35 m 396 197 q 465 219 439 197 q 504 275 490 242 q 522 347 518 308 q 526 417 526 385 q 524 490 526 450 q 508 563 521 529 q 469 621 494 597 q 397 644 443 644 q 328 620 356 644 q 286 560 301 596 q 265 484 271 524 q 258 413 258 444 q 264 342 258 379 q 284 272 269 304 q 326 219 299 240 q 396 197 353 197 z "},"P":{"ha":688,"x_min":14,"x_max":681,"o":"m 256 -14 q 193 -24 226 -21 q 126 -26 160 -26 q 17 -14 61 -26 q 16 11 17 -10 q 15 56 15 32 q 14 101 14 81 q 14 126 14 122 l 21 856 q 127 868 69 864 q 238 872 185 872 q 401 858 321 872 q 543 808 481 844 q 643 706 606 771 q 681 540 681 642 q 596 286 681 375 q 354 197 511 197 q 301 197 325 197 q 260 206 278 197 q 260 163 260 193 q 260 97 260 132 q 259 31 260 63 q 256 -14 258 0 m 260 401 q 310 394 288 394 q 403 430 368 394 q 438 524 438 465 q 411 622 438 581 q 319 663 385 663 q 292 660 308 663 q 263 651 275 657 l 260 401 z "},"Q":{"ha":797,"x_min":13,"x_max":775,"o":"m 764 129 q 774 42 774 86 q 764 -33 774 -1 q 749 -35 757 -35 q 729 -36 740 -36 q 653 -36 697 -36 q 563 -35 610 -36 q 473 -35 517 -35 q 397 -35 429 -35 q 222 -2 294 -35 q 102 90 149 31 q 34 231 56 149 q 13 413 13 314 q 32 608 13 521 q 97 758 51 696 q 215 853 142 819 q 397 888 289 888 q 679 765 583 888 q 775 407 775 643 q 767 328 775 368 q 744 250 758 288 q 713 181 731 213 q 676 131 694 150 l 751 131 q 764 129 760 131 m 396 197 q 465 219 439 197 q 504 275 490 242 q 522 347 518 308 q 526 417 526 385 q 524 490 526 450 q 508 563 521 529 q 469 621 494 597 q 397 644 443 644 q 328 620 356 644 q 286 560 301 596 q 265 484 271 524 q 258 413 258 444 q 264 342 258 379 q 284 272 269 304 q 326 219 299 240 q 396 197 353 197 z "},"R":{"ha":672,"x_min":31,"x_max":654,"o":"m 654 -25 q 597 -34 626 -32 q 535 -36 567 -36 q 474 -34 504 -36 q 414 -25 443 -32 q 411 -19 411 -19 q 379 47 394 8 q 348 123 364 86 q 315 188 332 160 q 278 221 297 215 l 278 -6 q 278 -15 278 -10 q 276 -25 278 -19 q 206 -35 240 -32 q 136 -39 171 -39 q 32 -25 79 -39 q 31 -4 31 -18 l 31 857 l 300 856 q 437 841 374 856 q 546 794 500 826 q 618 708 592 763 q 644 575 644 654 q 605 418 644 481 q 507 308 565 356 q 560 231 535 274 q 605 143 585 188 q 638 55 625 99 q 654 -25 651 11 m 274 468 q 365 492 328 468 q 401 563 401 515 q 388 597 401 583 q 356 619 375 611 q 314 629 336 626 q 274 631 292 632 l 274 468 z "},"S":{"ha":575,"x_min":21,"x_max":549,"o":"m 31 -21 q 23 28 25 0 q 21 85 21 56 q 23 144 21 115 q 31 196 25 174 q 58 195 33 196 q 113 194 83 194 q 168 194 143 194 q 196 194 193 194 q 221 196 207 194 q 247 201 235 197 q 269 214 260 206 q 278 238 278 222 q 260 290 278 264 q 215 345 242 317 q 156 406 188 374 q 98 474 125 438 q 53 551 71 510 q 35 642 35 593 q 55 741 35 699 q 110 811 75 783 q 191 853 144 839 q 290 867 238 867 q 328 867 293 867 q 406 866 364 867 q 484 865 449 865 q 522 864 519 864 q 530 813 528 840 q 532 756 532 785 q 529 701 532 728 q 522 651 526 674 q 489 652 518 651 q 426 653 460 653 q 365 654 393 654 q 336 654 338 654 q 322 653 331 654 q 306 650 314 653 q 293 640 299 647 q 288 621 288 633 q 307 573 288 599 q 356 519 326 547 q 418 458 385 490 q 481 388 451 425 q 529 308 510 350 q 549 218 549 265 q 527 116 549 161 q 469 40 506 71 q 385 -8 433 8 q 282 -24 336 -24 q 260 -24 279 -24 q 214 -24 240 -24 q 156 -23 188 -24 q 99 -22 125 -22 q 53 -22 72 -22 q 31 -21 33 -21 z "},"T":{"ha":519,"x_min":6,"x_max":513,"o":"m 385 0 q 327 -11 357 -8 q 268 -14 297 -14 q 140 0 200 -14 l 140 621 q 76 622 113 621 q 15 633 40 624 q 10 660 13 643 q 8 694 8 676 q 6 730 7 713 q 6 757 6 747 q 8 803 6 781 q 15 850 10 826 q 31 854 24 853 q 47 856 39 856 l 506 856 q 511 819 510 838 q 513 783 513 801 q 512 748 513 769 q 510 705 511 726 q 508 663 510 683 q 506 628 507 642 q 446 621 478 621 q 386 621 414 621 l 386 18 q 386 9 386 14 q 385 0 386 4 z "},"U":{"ha":782,"x_min":25,"x_max":744,"o":"m 507 851 q 564 863 531 860 q 632 867 597 867 q 739 851 697 867 q 743 824 742 838 q 744 794 744 810 l 744 350 q 659 82 744 169 q 383 -6 574 -6 q 119 74 213 -6 q 25 318 25 154 l 25 792 q 26 821 25 806 q 32 851 28 836 q 85 864 53 860 q 151 868 117 868 q 219 864 186 868 q 274 851 251 860 q 276 822 276 838 q 276 789 276 806 l 276 328 q 287 282 276 301 q 313 249 297 263 q 349 228 329 235 q 389 221 369 221 q 439 236 418 221 q 473 276 460 251 q 493 332 486 301 q 500 393 500 363 l 500 793 q 507 851 500 817 z "},"V":{"ha":740,"x_min":0,"x_max":740,"o":"m 506 40 q 363 29 435 29 q 224 40 290 29 q 180 126 204 65 q 131 267 156 188 q 82 435 106 346 q 40 606 58 525 q 11 752 22 688 q 0 846 0 817 l 0 856 q 51 864 22 860 q 110 869 79 868 q 173 867 142 871 q 231 856 204 864 q 235 839 233 847 q 239 821 236 831 q 299 557 268 694 q 369 296 329 419 q 443 572 410 433 q 513 856 476 711 q 629 868 568 869 q 740 856 690 867 q 732 801 740 842 q 710 703 724 760 q 678 580 696 647 q 642 443 661 513 q 603 307 622 374 q 567 187 585 240 q 536 97 550 133 q 515 51 522 61 q 506 40 508 44 z "},"W":{"ha":999,"x_min":26,"x_max":972,"o":"m 39 853 q 147 864 88 864 q 256 853 207 864 q 261 794 261 829 l 263 338 q 265 312 263 326 q 273 284 267 297 q 289 262 279 271 q 313 253 299 253 q 365 300 346 253 q 385 424 385 347 q 385 519 385 469 q 386 610 386 568 q 387 685 386 653 q 388 732 388 718 q 390 792 388 760 q 401 853 393 825 q 438 863 414 860 q 488 865 461 865 q 542 860 515 864 q 590 853 569 857 q 599 808 596 832 q 602 760 601 783 q 603 717 603 738 q 603 683 603 696 q 601 601 603 657 q 601 485 600 546 q 606 372 601 425 q 619 293 610 318 q 638 263 626 274 q 671 253 650 253 q 728 293 715 253 q 740 396 740 333 l 740 810 q 744 853 740 832 q 795 860 767 857 q 853 863 824 863 q 913 860 883 863 q 967 853 942 857 q 972 810 972 836 l 972 317 q 953 187 972 246 q 898 85 933 128 q 812 18 863 42 q 699 -6 761 -6 q 606 14 644 -6 q 542 58 568 33 q 501 108 515 83 q 482 144 486 133 q 452 88 468 115 q 413 40 436 61 q 358 7 390 19 q 279 -6 325 -6 q 90 62 153 -6 q 26 269 26 129 l 26 788 q 39 853 26 822 z "},"X":{"ha":821,"x_min":13,"x_max":807,"o":"m 296 0 q 226 -15 264 -10 q 149 -19 188 -19 q 75 -13 111 -18 q 13 0 39 -8 q 44 67 26 28 q 83 151 63 107 q 123 241 103 196 q 161 324 143 286 q 193 389 179 363 q 214 422 207 415 q 183 484 201 443 q 140 575 164 525 q 92 678 117 625 q 42 775 67 731 q 24 815 31 794 q 18 856 18 835 q 79 865 46 861 q 147 868 113 868 q 213 865 181 868 q 271 856 246 863 q 306 797 285 836 q 347 715 326 757 q 384 639 367 674 q 410 593 401 604 l 556 856 q 604 867 576 864 q 664 871 632 871 q 729 867 696 871 q 793 856 763 864 q 791 834 793 849 q 785 813 789 819 q 764 774 779 804 q 728 703 749 743 q 685 617 708 663 q 642 532 663 571 q 607 467 622 493 q 588 438 592 440 q 602 411 590 435 q 632 350 614 388 q 672 267 650 313 q 718 173 694 221 q 765 80 742 125 q 807 0 788 35 q 742 -13 781 -8 q 664 -18 704 -18 q 583 -13 624 -18 q 508 0 542 -8 q 484 53 497 17 q 458 129 471 89 q 431 208 444 169 q 404 268 417 246 l 296 0 z "},"Y":{"ha":676,"x_min":-4,"x_max":681,"o":"m 474 6 q 344 -12 414 -14 q 221 6 275 -10 l 221 281 q 206 347 221 303 q 169 447 192 392 q 120 565 147 503 q 68 683 93 626 q 23 785 43 739 q -4 856 3 832 q 119 868 53 867 q 253 856 186 869 l 347 553 l 446 856 q 500 865 469 863 q 563 867 531 868 q 625 864 594 867 q 681 856 656 861 q 665 796 681 838 q 627 699 650 754 q 577 581 604 643 q 527 459 550 518 q 489 351 504 400 q 474 274 474 301 l 474 6 z "},"Z":{"ha":576,"x_min":26,"x_max":574,"o":"m 565 214 q 572 157 571 189 q 574 100 574 125 q 572 50 574 75 q 565 0 571 25 l 40 0 q 29 45 32 22 q 26 92 26 68 q 28 139 26 115 q 33 186 31 163 l 279 657 l 39 658 q 35 758 35 708 q 39 858 35 808 q 291 858 165 860 q 543 856 417 857 q 550 808 549 832 q 551 760 551 783 q 551 733 551 751 q 549 696 550 715 q 544 659 547 676 q 539 635 542 642 q 517 592 535 625 q 474 513 499 558 q 423 416 450 467 q 373 322 396 365 q 335 250 350 279 q 321 218 321 221 q 326 215 324 215 l 565 214 z "},"[":{"ha":439,"x_min":38,"x_max":399,"o":"m 381 46 q 393 -28 393 11 q 381 -103 393 -68 q 314 -108 350 -110 q 242 -106 278 -106 q 193 -103 224 -106 q 132 -96 163 -101 q 78 -81 101 -90 q 51 -60 56 -72 q 44 -8 47 -42 q 40 67 42 25 q 38 155 39 108 q 38 244 38 201 q 39 321 39 286 q 39 375 39 356 l 39 557 q 38 597 39 569 q 38 656 38 624 q 39 725 38 689 q 44 794 40 761 q 57 851 49 826 q 78 885 65 875 q 126 903 94 897 q 192 913 157 910 q 262 916 228 915 q 317 917 296 917 q 348 915 332 917 q 381 910 364 913 q 397 831 396 869 q 381 764 399 792 q 322 760 353 760 q 268 760 292 760 l 268 53 q 328 52 300 53 q 381 46 357 51 z "},"\\":{"ha":594,"x_min":8,"x_max":563,"o":"m 358 -68 q 294 40 329 -31 q 223 197 258 111 q 153 377 188 283 q 90 556 119 471 q 40 709 61 640 q 8 814 18 778 q 88 876 44 850 q 182 915 132 903 q 249 829 213 890 q 323 687 285 768 q 397 512 361 606 q 466 327 433 418 q 524 156 499 236 q 563 22 549 76 q 467 -46 517 -26 q 358 -68 417 -65 z "},"]":{"ha":451,"x_min":29,"x_max":390,"o":"m 47 46 q 99 52 71 51 q 160 53 128 53 l 160 760 q 106 760 136 760 q 47 764 75 760 q 31 831 29 792 q 47 910 32 869 q 80 915 64 913 q 111 917 96 917 q 166 916 132 917 q 235 913 200 915 q 302 903 271 910 q 350 885 333 897 q 372 851 364 875 q 383 794 379 826 q 389 725 388 761 q 390 656 390 689 q 390 597 390 624 q 389 557 389 569 l 389 375 q 389 321 389 356 q 390 244 389 286 q 390 155 390 201 q 388 67 389 108 q 383 -8 386 25 q 376 -60 381 -42 q 349 -81 372 -72 q 296 -96 326 -90 q 235 -103 265 -101 q 186 -106 204 -106 q 114 -108 150 -106 q 47 -103 78 -110 q 35 -28 35 -68 q 47 46 35 11 z "},"^":{"ha":494,"x_min":38,"x_max":439,"o":"m 439 700 q 397 628 421 661 q 342 568 372 596 q 313 609 328 586 q 283 652 297 632 q 258 686 269 672 q 242 700 247 700 q 224 685 236 700 q 197 650 213 671 q 164 607 181 629 q 132 568 147 585 q 77 622 99 588 q 38 693 56 657 q 68 751 49 718 q 110 819 88 785 q 154 885 132 853 q 194 939 176 917 q 245 948 218 946 q 296 939 272 950 q 331 888 311 918 q 371 824 350 857 q 410 758 392 790 q 439 700 428 725 z "},"_":{"ha":508,"x_min":42,"x_max":464,"o":"m 450 46 q 464 -61 464 -3 q 450 -160 464 -119 q 396 -169 424 -169 q 332 -172 374 -171 q 244 -172 290 -172 q 156 -172 199 -172 q 92 -172 114 -172 q 73 -171 82 -172 q 56 -167 64 -169 q 45 -118 49 -144 q 42 -65 42 -92 q 45 -11 42 -37 q 56 38 49 15 q 107 46 79 46 q 174 48 131 47 q 266 49 218 49 q 358 49 314 49 q 425 49 401 49 q 438 48 432 49 q 450 46 443 47 z "},"`":{"ha":292,"x_min":24,"x_max":256,"o":"m 182 882 q 138 905 165 882 q 85 959 111 928 q 42 1022 60 990 q 24 1068 24 1053 q 33 1093 24 1076 q 56 1125 43 1110 q 85 1152 69 1140 q 111 1164 100 1164 q 157 1139 132 1164 q 203 1079 182 1114 q 240 1008 225 1044 q 256 951 256 972 q 249 930 256 942 q 231 908 242 918 q 207 890 219 897 q 182 882 194 882 z "},"a":{"ha":769,"x_min":6,"x_max":761,"o":"m 239 856 q 307 873 268 868 q 389 877 346 878 q 476 870 432 876 q 560 856 519 864 q 595 769 575 832 q 637 621 615 706 q 679 441 658 536 q 717 258 700 346 q 747 101 735 171 q 761 0 758 32 q 699 -9 732 -7 q 634 -11 667 -11 q 572 -8 601 -11 q 519 0 543 -6 q 506 39 514 15 q 492 88 499 63 q 478 138 485 114 q 465 176 471 161 q 428 172 451 172 q 380 172 406 171 q 331 174 354 172 q 293 178 307 176 q 283 135 289 161 q 271 83 278 110 q 258 34 264 57 q 244 0 251 11 q 127 -8 189 -8 q 11 0 65 -8 q 14 95 6 29 q 40 247 22 161 q 81 428 57 333 q 133 609 106 524 q 188 761 160 694 q 239 856 215 828 m 390 711 q 385 688 390 711 q 374 628 381 664 q 358 551 367 593 q 343 471 350 508 q 331 406 336 433 q 324 374 325 379 q 350 376 335 375 q 383 376 365 376 q 416 376 400 376 q 444 374 432 375 q 418 535 431 463 q 409 595 414 565 q 400 650 404 625 q 393 691 396 675 q 390 711 390 707 z "},"b":{"ha":714,"x_min":26,"x_max":693,"o":"m 33 856 q 80 867 51 863 q 141 872 108 871 q 205 868 174 872 q 261 856 236 864 q 262 804 264 836 q 263 754 260 772 q 288 797 275 775 q 320 839 301 819 q 365 871 339 858 q 428 883 390 883 q 513 868 471 883 q 590 823 556 853 q 644 749 624 793 q 665 649 665 706 q 616 507 665 560 q 489 436 567 454 q 556 422 521 435 q 622 385 592 408 q 673 326 653 361 q 693 246 693 292 q 666 124 693 174 q 589 43 639 74 q 469 -1 539 13 q 313 -14 399 -14 q 237 -13 271 -14 q 170 -10 203 -12 q 104 -6 138 -8 q 33 0 71 -3 q 29 74 31 21 q 27 202 28 128 q 26 365 26 276 q 27 541 26 453 q 29 711 28 629 q 33 856 31 793 m 343 533 q 401 549 379 533 q 424 606 424 564 q 403 644 424 633 q 360 654 383 654 q 333 649 346 654 q 308 635 319 643 q 290 619 297 628 q 283 601 283 610 l 283 535 q 297 533 288 533 l 343 533 m 301 193 q 344 193 319 193 q 392 199 369 193 q 431 218 415 204 q 447 260 447 232 q 435 294 447 282 q 406 312 424 306 q 369 319 389 318 q 335 321 350 321 l 297 321 q 283 308 283 321 l 283 199 q 291 194 283 194 q 301 193 299 193 z "},"c":{"ha":572,"x_min":18,"x_max":556,"o":"m 544 190 q 552 135 550 165 q 554 76 554 106 q 551 21 554 47 q 544 -24 549 -6 q 505 -26 533 -25 q 439 -26 476 -26 q 264 -5 342 -26 q 131 67 186 17 q 47 201 76 118 q 18 407 18 285 q 142 765 18 651 q 494 879 265 879 q 519 878 500 879 q 544 878 539 878 q 553 831 551 858 q 555 775 556 804 q 551 717 554 746 q 544 667 549 689 l 514 667 q 428 651 469 667 q 354 605 386 636 q 303 524 322 574 q 285 406 285 475 q 302 294 285 338 q 349 228 319 251 q 416 197 378 206 q 494 189 454 189 q 501 189 494 189 q 515 189 507 189 q 532 190 524 189 q 544 190 540 190 z "},"d":{"ha":763,"x_min":26,"x_max":743,"o":"m 38 0 q 29 73 26 33 q 29 150 32 113 l 31 690 q 31 776 31 732 q 38 858 31 821 q 96 869 63 865 q 167 876 129 874 q 243 878 204 878 q 319 879 282 879 q 492 846 414 879 q 626 754 569 813 q 713 617 682 696 q 743 450 743 539 q 713 274 743 357 q 628 128 683 190 q 494 28 574 65 q 315 -8 415 -8 q 177 -9 246 -8 q 38 0 108 -10 m 288 199 q 378 221 342 199 q 438 279 415 243 q 471 361 461 315 q 481 454 481 407 q 473 526 481 490 q 448 592 465 563 q 402 639 431 621 q 332 657 374 657 l 310 657 q 292 656 301 657 q 282 644 282 656 l 282 206 q 288 199 285 199 z "},"e":{"ha":617,"x_min":26,"x_max":588,"o":"m 579 224 q 585 172 583 200 q 588 115 588 143 q 585 58 588 86 q 579 10 583 31 q 525 0 567 4 q 428 -7 483 -4 q 312 -11 374 -10 q 196 -12 250 -12 q 102 -11 142 -12 q 51 -6 63 -10 q 29 89 32 39 q 26 188 26 139 l 26 704 q 27 745 26 724 q 31 788 28 767 q 38 828 33 810 q 49 856 42 846 l 578 856 q 585 828 583 856 q 588 767 588 801 q 585 700 588 732 q 579 657 583 668 l 286 651 l 283 544 q 328 547 301 546 q 382 547 354 547 q 436 547 410 547 q 482 547 463 547 q 510 540 496 547 q 510 357 528 447 q 485 351 500 351 q 384 348 435 350 q 283 347 333 346 l 283 267 q 304 213 283 221 q 368 204 325 204 q 415 206 386 204 q 475 210 444 207 q 534 216 506 213 q 579 224 563 219 z "},"f":{"ha":582,"x_min":25,"x_max":565,"o":"m 513 465 q 522 365 522 417 q 510 269 521 314 l 274 267 l 278 99 q 278 80 278 94 q 278 49 278 65 q 277 17 278 32 q 276 0 276 3 q 221 -8 251 -6 q 158 -10 190 -11 q 94 -7 126 -10 q 35 0 63 -4 q 28 147 31 61 q 26 331 26 233 q 26 531 25 429 q 26 722 26 632 q 32 790 26 754 q 53 857 38 825 q 155 857 85 857 q 303 856 225 857 q 452 856 382 856 q 554 856 522 856 q 565 757 565 808 q 554 656 564 706 l 301 657 q 285 653 293 657 q 278 642 278 650 l 278 479 q 297 463 278 463 q 347 463 318 463 q 405 464 375 464 q 463 465 435 464 q 513 465 492 465 z "},"g":{"ha":786,"x_min":21,"x_max":761,"o":"m 414 351 q 399 450 401 396 q 414 547 397 504 l 589 547 q 669 531 636 547 q 722 490 701 515 q 752 433 743 464 q 761 374 761 403 q 743 220 761 294 q 685 90 725 146 q 578 -1 644 33 q 414 -35 511 -35 q 237 3 311 -35 q 115 106 163 42 q 44 254 67 169 q 21 432 21 339 q 47 624 21 539 q 126 769 74 710 q 257 860 178 828 q 440 892 336 892 q 519 888 481 892 q 588 881 557 885 q 639 873 618 876 q 664 869 660 869 q 672 768 674 821 q 663 669 671 715 q 633 676 657 672 q 579 683 610 679 q 517 690 549 688 q 461 693 485 693 q 380 673 414 693 q 323 618 346 653 q 289 536 300 583 q 278 435 278 489 q 285 356 278 397 q 310 281 293 315 q 357 224 328 246 q 429 201 386 201 q 513 232 492 201 q 533 317 533 263 q 518 346 533 340 q 479 351 503 351 l 414 351 z "},"h":{"ha":719,"x_min":32,"x_max":697,"o":"m 689 -1 q 576 -14 636 -14 q 457 -1 515 -14 q 453 56 453 28 l 447 290 l 286 290 l 275 72 q 267 -1 275 39 q 151 -12 213 -11 q 38 -1 89 -12 q 33 35 35 17 q 32 72 32 54 l 32 811 q 40 857 32 835 q 152 867 93 867 q 268 857 211 867 q 274 832 272 844 q 275 808 275 819 l 278 506 l 451 504 l 453 803 q 454 829 453 815 q 458 857 456 843 q 515 860 485 858 q 574 864 544 863 q 633 865 604 865 q 688 857 663 864 q 695 828 693 843 q 697 799 697 814 l 697 56 q 689 -1 697 28 z "},"i":{"ha":453,"x_min":25,"x_max":432,"o":"m 424 174 q 430 138 428 158 q 432 94 432 117 q 430 52 432 72 q 424 17 428 32 q 390 8 411 11 q 342 2 368 4 q 288 0 315 0 q 238 0 261 0 l 193 0 q 92 3 135 0 q 32 25 49 7 q 28 56 29 38 q 28 93 28 74 q 29 132 28 113 q 32 165 31 151 q 64 178 42 174 q 110 182 86 182 l 107 690 l 86 690 q 74 690 82 690 q 58 691 67 690 q 42 692 50 692 q 32 694 35 693 q 25 769 25 726 q 32 846 25 811 q 105 858 56 856 q 204 860 154 860 q 264 859 232 860 q 326 857 296 858 q 381 852 356 856 q 419 843 406 849 q 419 701 432 768 q 388 699 404 701 q 356 700 371 697 l 356 178 q 369 178 360 178 q 390 177 379 178 q 411 176 401 176 q 424 174 421 175 z "},"j":{"ha":633,"x_min":13,"x_max":597,"o":"m 24 317 q 58 329 35 324 q 109 339 82 335 q 160 345 136 343 q 194 344 185 347 q 201 299 200 322 q 208 255 203 275 q 226 222 213 235 q 271 208 240 208 q 316 217 300 208 q 340 240 332 225 q 349 274 347 254 q 350 318 350 294 q 351 366 350 342 q 351 414 351 390 l 351 636 q 310 635 338 636 q 253 635 283 635 q 193 635 222 635 q 144 640 164 636 q 132 690 136 661 q 128 750 128 719 q 132 809 128 781 q 144 856 136 838 q 165 857 156 857 q 185 857 174 857 l 594 856 q 597 832 596 850 q 597 794 597 814 q 597 758 597 775 q 597 733 597 740 q 596 546 597 639 q 594 358 594 453 q 594 249 594 308 q 576 140 593 189 q 478 20 553 68 q 282 -28 403 -28 q 176 -11 225 -28 q 90 38 126 6 q 33 118 54 71 q 13 226 13 165 q 15 269 13 246 q 24 317 17 293 z "},"k":{"ha":689,"x_min":17,"x_max":689,"o":"m 260 3 q 144 -8 206 -8 q 28 3 82 -8 q 20 149 17 75 q 24 296 24 224 q 23 494 24 396 q 22 692 22 592 q 22 730 22 708 q 24 774 22 751 q 28 818 25 797 q 39 853 32 839 q 85 863 60 860 q 139 865 111 865 q 195 862 167 865 q 249 853 224 858 q 265 812 260 833 q 271 768 271 790 q 270 723 271 758 q 269 649 269 688 q 267 578 268 610 q 263 542 265 546 q 282 573 268 549 q 315 630 296 597 q 354 700 333 663 q 397 771 375 738 q 437 829 418 804 q 469 863 456 854 q 524 852 496 860 q 580 833 553 844 q 632 807 607 821 q 675 779 657 793 q 655 738 671 767 q 617 673 639 710 q 569 597 594 636 q 522 523 544 557 q 483 465 500 489 q 460 435 465 440 q 483 409 465 432 q 525 353 501 386 q 576 283 549 321 q 628 209 604 244 q 668 146 651 174 q 689 107 685 118 q 591 35 647 67 q 483 -12 535 3 q 422 63 456 17 q 356 156 388 108 q 300 247 325 204 q 265 310 275 289 q 267 215 265 261 q 269 119 269 168 q 268 60 269 90 q 260 3 267 31 z "},"l":{"ha":565,"x_min":42,"x_max":536,"o":"m 522 228 q 533 172 529 203 q 536 110 536 142 q 533 49 536 79 q 522 -1 529 19 l 383 -1 q 319 -1 368 -1 q 214 -1 269 -1 q 109 0 158 0 q 44 0 60 0 l 42 72 l 42 817 q 42 837 42 828 q 44 856 43 846 q 162 867 101 867 q 281 856 222 867 q 285 840 283 849 q 286 825 286 832 l 286 238 q 339 246 304 244 q 411 245 374 247 q 481 238 449 243 q 522 228 513 233 z "},"m":{"ha":876,"x_min":32,"x_max":846,"o":"m 585 856 q 700 869 642 869 q 810 856 758 868 q 826 810 819 839 q 838 751 833 782 q 844 691 842 719 q 846 644 846 663 l 846 65 q 844 33 846 50 q 835 0 842 17 q 783 -11 813 -7 q 722 -15 753 -15 q 662 -12 692 -15 q 607 0 632 -8 q 603 36 604 18 q 603 69 603 54 l 608 518 q 581 481 601 510 q 535 419 561 451 q 481 363 508 388 q 431 338 453 338 q 387 365 414 338 q 334 426 360 392 q 290 489 308 460 q 272 522 272 518 l 272 65 q 263 0 272 29 q 146 -11 207 -11 q 36 0 85 -11 q 32 60 32 33 l 32 625 q 32 675 32 643 q 34 742 32 707 q 41 808 36 776 q 56 857 46 840 q 108 870 79 865 q 166 875 136 875 q 225 871 196 875 q 279 857 254 867 q 323 782 300 826 q 367 696 346 738 q 406 624 388 654 q 433 594 424 594 q 464 640 444 608 q 505 708 483 671 q 548 785 526 746 q 585 856 569 825 z "},"n":{"ha":786,"x_min":28,"x_max":756,"o":"m 750 0 q 699 -9 731 -6 q 631 -13 667 -12 q 561 -11 596 -14 q 501 0 526 -8 q 431 110 463 51 q 372 229 400 168 q 317 351 343 290 q 258 468 290 413 q 262 406 260 438 q 264 344 264 375 q 265 265 264 313 q 265 169 265 218 q 261 75 264 121 q 251 0 258 29 q 210 -8 238 -4 q 151 -12 182 -11 q 88 -11 119 -14 q 35 0 57 -8 q 29 40 31 19 q 28 81 28 61 l 28 804 q 30 830 28 817 q 38 854 32 843 q 90 862 58 860 q 154 864 121 864 q 220 861 188 864 q 278 854 253 858 q 306 805 288 842 q 349 721 325 768 q 400 622 374 674 q 449 526 426 569 q 489 455 472 483 q 510 425 506 426 l 510 774 q 511 814 510 793 q 519 854 513 835 q 572 864 540 861 q 638 866 604 867 q 701 863 671 865 q 750 854 732 860 q 756 806 756 833 l 756 93 q 755 47 756 69 q 750 0 754 24 z "},"o":{"ha":794,"x_min":13,"x_max":775,"o":"m 396 -35 q 222 -2 294 -35 q 102 90 149 31 q 34 231 56 149 q 13 413 13 314 q 32 608 13 521 q 97 758 51 696 q 215 853 142 819 q 397 888 289 888 q 575 850 503 888 q 692 748 647 813 q 756 595 736 683 q 775 407 775 507 q 751 240 775 319 q 680 99 728 160 q 561 1 632 38 q 396 -35 490 -35 m 396 197 q 465 219 439 197 q 504 275 490 242 q 522 347 518 308 q 526 417 526 385 q 524 490 526 450 q 508 563 521 529 q 469 621 494 597 q 397 644 443 644 q 328 620 356 644 q 286 560 301 596 q 265 484 271 524 q 258 413 258 444 q 264 342 258 379 q 284 272 269 304 q 326 219 299 240 q 396 197 353 197 z "},"p":{"ha":688,"x_min":14,"x_max":681,"o":"m 256 -14 q 196 -23 228 -19 q 131 -26 164 -26 q 69 -24 99 -26 q 17 -14 40 -21 q 16 11 17 -10 q 15 56 15 32 q 14 101 14 81 q 14 126 14 122 l 21 856 q 93 865 54 861 q 171 870 132 868 q 247 872 210 872 q 314 869 283 872 q 583 779 485 858 q 681 540 681 700 q 596 286 681 375 q 354 197 511 197 q 301 197 325 197 q 260 206 278 197 q 260 163 260 193 q 260 97 260 132 q 259 31 260 63 q 256 -14 258 0 m 260 401 q 319 394 293 393 q 403 431 369 397 q 438 524 438 465 q 411 622 438 581 q 319 663 385 663 q 292 660 308 663 q 263 651 275 657 l 260 401 z "},"q":{"ha":797,"x_min":13,"x_max":775,"o":"m 764 129 q 774 42 774 86 q 764 -33 774 -1 q 749 -35 757 -35 q 729 -36 740 -36 q 653 -36 697 -36 q 563 -35 610 -36 q 473 -35 517 -35 q 397 -35 429 -35 q 222 -2 294 -35 q 102 90 149 31 q 34 231 56 149 q 13 413 13 314 q 32 608 13 521 q 97 758 51 696 q 215 853 142 819 q 397 888 289 888 q 679 765 583 888 q 775 407 775 643 q 767 328 775 368 q 744 250 758 288 q 713 181 731 213 q 676 131 694 150 l 751 131 q 764 129 760 131 m 396 197 q 465 219 439 197 q 504 275 490 242 q 522 347 518 308 q 526 417 526 385 q 524 490 526 450 q 508 563 521 529 q 469 621 494 597 q 397 644 443 644 q 328 620 356 644 q 286 560 301 596 q 265 484 271 524 q 258 413 258 444 q 264 342 258 379 q 284 272 269 304 q 326 219 299 240 q 396 197 353 197 z "},"r":{"ha":672,"x_min":31,"x_max":654,"o":"m 654 -25 q 535 -36 599 -36 q 414 -25 472 -36 q 411 -19 411 -19 q 379 47 394 8 q 348 123 364 86 q 315 188 332 160 q 278 221 297 215 l 278 -6 q 278 -15 278 -10 q 276 -25 278 -19 q 151 -40 213 -36 q 32 -25 90 -43 q 31 -4 31 -18 l 31 857 l 300 856 q 437 841 374 856 q 546 794 500 826 q 618 708 592 763 q 644 575 644 654 q 605 418 644 481 q 507 308 565 356 q 560 231 535 274 q 605 143 585 188 q 638 55 625 99 q 654 -25 651 11 m 274 468 q 365 492 328 468 q 401 563 401 515 q 388 597 401 583 q 356 619 375 611 q 314 629 336 626 q 274 631 292 632 l 274 468 z "},"s":{"ha":575,"x_min":21,"x_max":549,"o":"m 31 -21 q 23 28 25 0 q 21 85 21 56 q 23 144 21 115 q 31 196 25 174 q 58 195 33 196 q 113 194 83 194 q 168 194 143 194 q 196 194 193 194 q 221 196 207 194 q 247 201 235 197 q 269 214 260 206 q 278 238 278 222 q 260 290 278 264 q 215 345 242 317 q 156 406 188 374 q 98 474 125 438 q 53 551 71 510 q 35 642 35 593 q 55 741 35 699 q 110 811 75 783 q 191 853 144 839 q 290 867 238 867 q 328 867 293 867 q 406 866 364 867 q 484 865 449 865 q 522 864 519 864 q 530 813 528 840 q 532 756 532 785 q 529 701 532 728 q 522 651 526 674 q 489 652 518 651 q 426 653 460 653 q 365 654 393 654 q 336 654 338 654 q 322 653 331 654 q 306 650 314 653 q 293 640 299 647 q 288 621 288 633 q 307 573 288 599 q 356 519 326 547 q 418 458 385 490 q 481 388 451 425 q 529 308 510 350 q 549 218 549 265 q 527 116 549 161 q 469 40 506 71 q 385 -8 433 8 q 282 -24 336 -24 q 260 -24 279 -24 q 214 -24 240 -24 q 156 -23 188 -24 q 99 -22 125 -22 q 53 -22 72 -22 q 31 -21 33 -21 z "},"t":{"ha":519,"x_min":6,"x_max":513,"o":"m 385 0 q 327 -11 357 -8 q 268 -14 297 -14 q 140 0 200 -14 l 140 621 q 76 622 113 621 q 15 633 40 624 q 10 660 13 643 q 8 694 8 676 q 6 730 7 713 q 6 757 6 747 q 8 803 6 781 q 15 850 10 826 q 31 854 24 853 q 47 856 39 856 l 506 856 q 511 819 510 838 q 513 783 513 801 q 512 748 513 769 q 510 705 511 726 q 508 663 510 683 q 506 628 507 642 q 446 621 478 621 q 386 621 414 621 l 386 18 q 386 9 386 14 q 385 0 386 4 z "},"u":{"ha":782,"x_min":25,"x_max":744,"o":"m 507 851 q 564 863 531 860 q 632 867 597 867 q 739 851 697 867 q 743 824 742 838 q 744 794 744 810 l 744 350 q 659 82 744 169 q 383 -6 574 -6 q 119 74 213 -6 q 25 318 25 154 l 25 792 q 26 821 25 806 q 32 851 28 836 q 85 864 53 860 q 151 868 117 868 q 219 864 186 868 q 274 851 251 860 q 276 822 276 838 q 276 789 276 806 l 276 328 q 287 282 276 301 q 313 249 297 263 q 349 228 329 235 q 389 221 369 221 q 439 236 418 221 q 473 276 460 251 q 493 332 486 301 q 500 393 500 363 l 500 793 q 507 851 500 817 z "},"v":{"ha":740,"x_min":0,"x_max":740,"o":"m 506 40 q 363 29 435 29 q 224 40 290 29 q 180 126 204 65 q 131 267 156 188 q 82 435 106 346 q 40 606 58 525 q 11 752 22 688 q 0 846 0 817 l 0 856 q 51 864 22 860 q 110 869 79 868 q 173 867 142 871 q 231 856 204 864 q 235 839 233 847 q 239 821 236 831 q 299 557 268 694 q 369 296 329 419 q 443 572 410 433 q 513 856 476 711 q 629 868 568 869 q 740 856 690 867 q 732 801 740 842 q 710 703 724 760 q 678 580 696 647 q 642 443 661 513 q 603 307 622 374 q 567 187 585 240 q 536 97 550 133 q 515 51 522 61 q 506 40 508 44 z "},"w":{"ha":999,"x_min":26,"x_max":972,"o":"m 39 853 q 147 864 88 864 q 256 853 207 864 q 261 794 261 829 l 263 338 q 265 312 263 326 q 273 284 267 297 q 289 262 279 271 q 313 253 299 253 q 365 300 346 253 q 385 424 385 347 q 385 519 385 469 q 386 610 386 568 q 387 685 386 653 q 388 732 388 718 q 390 792 388 760 q 401 853 393 825 q 438 863 414 860 q 488 865 461 865 q 542 860 515 864 q 590 853 569 857 q 599 808 596 832 q 602 760 601 783 q 603 717 603 738 q 603 683 603 696 q 601 601 603 657 q 601 485 600 546 q 606 372 601 425 q 619 293 610 318 q 638 263 626 274 q 671 253 650 253 q 728 293 715 253 q 740 396 740 333 l 740 810 q 744 853 740 832 q 795 860 767 857 q 853 863 824 863 q 913 860 883 863 q 967 853 942 857 q 972 810 972 836 l 972 317 q 953 187 972 246 q 898 85 933 128 q 812 18 863 42 q 699 -6 761 -6 q 606 14 644 -6 q 542 58 568 33 q 501 108 515 83 q 482 144 486 133 q 452 88 468 115 q 413 40 436 61 q 358 7 390 19 q 279 -6 325 -6 q 90 62 153 -6 q 26 269 26 129 l 26 788 q 39 853 26 822 z "},"x":{"ha":821,"x_min":13,"x_max":807,"o":"m 296 0 q 226 -15 264 -10 q 149 -19 188 -19 q 75 -13 111 -18 q 13 0 39 -8 q 44 67 26 28 q 83 151 63 107 q 123 241 103 196 q 161 324 143 286 q 193 389 179 363 q 214 422 207 415 q 183 484 201 443 q 140 575 164 525 q 92 678 117 625 q 42 775 67 731 q 24 815 31 794 q 18 856 18 835 q 79 865 46 861 q 147 868 113 868 q 213 865 181 868 q 271 856 246 863 q 306 797 285 836 q 347 715 326 757 q 384 639 367 674 q 410 593 401 604 l 556 856 q 604 867 576 864 q 664 871 632 871 q 729 867 696 871 q 793 856 763 864 q 791 834 793 849 q 785 813 789 819 q 764 774 779 804 q 728 703 749 743 q 685 617 708 663 q 642 532 663 571 q 607 467 622 493 q 588 438 592 440 q 602 411 590 435 q 632 350 614 388 q 672 267 650 313 q 718 173 694 221 q 765 80 742 125 q 807 0 788 35 q 742 -13 781 -8 q 664 -18 704 -18 q 583 -13 624 -18 q 508 0 542 -8 q 484 53 497 17 q 458 129 471 89 q 431 208 444 169 q 404 268 417 246 l 296 0 z "},"y":{"ha":676,"x_min":-4,"x_max":681,"o":"m 474 6 q 344 -12 414 -14 q 221 6 275 -10 l 221 281 q 206 347 221 303 q 169 447 192 392 q 120 565 147 503 q 68 683 93 626 q 23 785 43 739 q -4 856 3 832 q 119 868 53 867 q 253 856 186 869 l 347 553 l 446 856 q 500 865 469 863 q 563 867 531 868 q 625 864 594 867 q 681 856 656 861 q 665 796 681 838 q 627 699 650 754 q 577 581 604 643 q 527 459 550 518 q 489 351 504 400 q 474 274 474 301 l 474 6 z "},"z":{"ha":576,"x_min":26,"x_max":574,"o":"m 565 214 q 572 157 571 189 q 574 100 574 125 q 572 50 574 75 q 565 0 571 25 l 40 0 q 29 45 32 22 q 26 92 26 68 q 28 139 26 115 q 33 186 31 163 l 279 657 l 39 658 q 35 758 35 708 q 39 858 35 808 q 291 858 165 860 q 543 856 417 857 q 550 808 549 832 q 551 760 551 783 q 551 733 551 751 q 549 696 550 715 q 544 659 547 676 q 539 635 542 642 q 517 592 535 625 q 474 513 499 558 q 423 416 450 467 q 373 322 396 365 q 335 250 350 279 q 321 218 321 221 q 326 215 324 215 l 565 214 z "},"{":{"ha":553,"x_min":38,"x_max":513,"o":"m 51 286 q 39 389 40 339 q 56 486 38 439 q 90 510 72 499 q 122 538 107 522 q 148 576 138 554 q 161 631 158 599 q 176 749 167 697 q 213 838 185 801 q 298 892 242 874 q 453 911 354 911 q 496 906 478 911 q 513 830 513 868 q 500 756 513 792 q 453 747 476 751 q 413 736 431 743 q 385 719 396 729 q 374 693 374 708 q 380 621 374 657 q 386 547 386 585 q 381 491 386 511 q 363 457 376 471 q 326 430 349 443 q 268 396 304 417 q 262 392 265 394 q 254 388 258 390 q 308 346 288 364 q 339 309 328 328 q 354 267 350 290 q 358 207 358 243 q 357 173 358 190 q 356 139 356 156 q 367 95 356 110 q 395 74 378 81 q 433 66 413 68 q 475 60 454 64 q 492 -15 490 25 q 476 -92 494 -56 q 425 -97 454 -97 q 272 -80 329 -97 q 182 -28 214 -62 q 137 58 150 7 q 117 176 124 110 q 106 206 115 194 q 87 229 97 218 q 66 253 76 240 q 51 286 56 267 z "},"|":{"ha":350,"x_min":54,"x_max":308,"o":"m 300 -137 q 165 -161 224 -157 q 54 -143 107 -165 l 64 968 q 177 997 117 996 q 308 978 238 999 l 300 -137 z "},"}":{"ha":536,"x_min":51,"x_max":526,"o":"m 513 286 q 498 253 508 267 q 477 229 488 240 q 458 206 467 218 q 447 176 449 194 q 427 58 440 110 q 382 -28 414 7 q 292 -80 350 -62 q 139 -97 235 -97 q 88 -92 110 -97 q 72 -15 69 -56 q 89 60 74 25 q 131 66 110 64 q 169 74 151 68 q 197 95 186 81 q 208 139 208 110 q 207 173 208 156 q 206 207 206 190 q 210 267 206 243 q 225 309 214 290 q 256 346 236 328 q 310 388 276 364 q 302 392 306 390 q 296 396 299 394 q 238 430 261 417 q 201 457 215 443 q 183 491 188 471 q 178 547 178 511 q 184 621 178 585 q 190 693 190 657 q 179 719 190 708 q 151 736 168 729 q 110 747 133 743 q 64 756 88 751 q 51 830 51 792 q 68 906 51 868 q 111 911 86 911 q 266 892 210 911 q 351 838 322 874 q 388 749 379 801 q 403 631 397 697 q 416 576 406 599 q 442 538 426 554 q 474 510 457 522 q 508 486 492 499 q 525 389 526 439 q 513 286 524 339 z "},"~":{"ha":686,"x_min":65,"x_max":613,"o":"m 153 296 q 101 360 125 326 q 65 432 76 394 q 92 483 75 457 q 133 531 110 508 q 185 567 157 553 q 246 581 214 581 q 293 569 271 581 q 338 543 315 557 q 383 517 360 529 q 436 506 407 506 q 457 513 447 506 q 474 530 467 519 q 488 551 482 540 q 499 568 494 561 q 565 528 535 558 q 613 469 594 497 q 587 408 604 439 q 544 351 569 376 q 485 309 518 325 q 414 293 453 293 q 368 305 389 293 q 328 330 347 317 q 288 355 308 343 q 243 367 267 367 q 217 358 229 367 q 194 338 204 350 q 174 315 183 326 q 153 296 164 303 z "},"":{"ha":344,"x_min":44,"x_max":299,"o":"m 179 797 q 231 786 208 797 q 269 758 254 775 q 291 719 283 740 q 299 679 299 699 q 269 608 299 639 q 176 578 239 578 q 76 606 108 578 q 44 679 44 635 q 76 762 44 726 q 179 797 108 797 m 78 547 q 177 561 125 561 q 272 547 229 561 q 285 467 281 517 q 290 365 289 417 q 292 271 292 314 q 292 210 292 228 q 294 149 292 192 q 294 57 296 107 q 288 -42 293 7 q 268 -122 283 -92 q 169 -137 222 -137 q 72 -122 117 -137 q 56 -53 61 -94 q 49 28 51 -12 q 48 105 47 69 q 49 157 49 140 q 47 224 49 175 q 47 333 46 274 q 54 451 47 393 q 78 547 61 510 z "},"":{"ha":615,"x_min":14,"x_max":582,"o":"m 560 353 q 576 249 575 301 q 564 158 576 196 q 538 148 557 154 q 498 135 519 142 q 456 124 476 129 q 424 118 435 119 q 420 66 422 96 q 411 8 418 36 q 376 -3 396 1 q 336 -7 356 -7 q 301 -1 317 -7 q 278 15 285 4 q 272 53 272 35 q 271 86 271 71 l 271 115 q 157 156 206 124 q 76 231 108 188 q 29 326 44 275 q 14 425 14 376 q 74 649 14 561 q 267 769 135 738 q 269 827 267 796 q 281 886 271 858 q 411 882 349 910 q 420 827 418 856 q 425 776 422 799 q 493 756 464 772 q 542 715 522 739 q 572 660 563 690 q 582 601 582 631 q 581 570 582 586 q 574 539 579 554 q 495 520 539 519 q 417 540 451 521 q 411 578 411 557 q 403 585 411 582 q 385 589 396 588 q 365 590 375 590 q 353 590 356 590 q 292 574 315 590 q 256 532 269 557 q 238 478 243 507 q 233 426 233 450 q 265 334 233 368 q 372 300 297 300 q 428 306 400 300 q 483 322 457 313 q 529 340 508 331 q 560 353 550 349 z "},"":{"ha":713,"x_min":38,"x_max":669,"o":"m 71 24 q 55 125 54 71 q 67 231 56 179 q 85 256 75 243 q 106 282 96 269 q 122 308 115 294 q 129 333 129 321 l 129 336 q 88 340 108 336 q 51 353 67 344 q 53 488 38 422 q 125 503 81 503 q 136 635 124 571 q 183 750 149 700 q 276 831 217 800 q 429 861 336 861 q 513 849 471 861 q 588 816 554 838 q 642 763 621 794 q 667 694 664 732 q 666 655 669 674 q 656 621 663 636 q 617 613 638 614 q 578 616 597 613 q 542 624 558 619 q 514 633 525 629 q 513 647 513 638 q 491 669 511 663 q 450 676 471 676 q 390 665 411 676 q 358 633 368 653 q 345 589 347 614 q 344 538 343 564 l 346 506 q 434 508 386 506 q 521 497 482 511 q 538 418 536 463 q 521 340 540 374 q 499 338 510 338 q 474 338 488 338 l 351 338 q 352 263 353 301 q 339 188 351 224 q 438 192 388 192 l 538 193 q 593 191 565 193 q 644 178 621 189 q 660 93 658 135 q 647 11 663 51 q 619 4 635 7 q 585 1 604 1 l 175 1 q 123 7 151 1 q 71 24 94 13 z "},"":{"ha":806,"x_min":46,"x_max":753,"o":"m 181 31 q 117 79 146 47 q 75 142 88 111 q 102 179 88 161 q 126 210 117 197 q 85 273 101 244 q 60 329 69 301 q 49 389 51 357 q 46 463 46 421 q 60 559 46 515 q 106 646 74 603 q 81 688 90 664 q 64 732 72 713 q 94 796 71 768 q 153 844 117 824 q 201 805 178 828 q 233 769 225 782 l 238 769 q 314 799 274 789 q 396 810 354 810 q 483 797 440 810 q 565 764 525 783 l 569 764 q 599 794 581 775 q 639 831 618 813 q 699 796 669 818 q 749 733 728 774 q 727 694 740 713 q 699 656 714 675 q 738 560 724 610 q 753 460 753 511 q 733 335 753 397 q 674 222 714 274 q 697 194 682 211 q 725 157 711 176 q 689 97 707 129 q 628 40 671 65 q 575 87 600 64 q 542 118 550 110 l 538 118 q 390 92 465 92 q 322 101 354 92 q 253 110 289 110 q 240 102 247 110 q 223 83 232 94 q 203 57 214 71 q 181 31 193 43 m 393 281 q 486 327 451 281 q 521 450 521 374 q 493 572 521 526 q 404 618 465 618 q 315 575 347 618 q 282 457 282 532 q 289 392 282 424 q 310 336 296 361 q 344 296 324 311 q 393 281 365 281 z "},"":{"ha":722,"x_min":-3,"x_max":703,"o":"m 528 869 q 626 833 579 864 q 703 763 674 803 l 533 499 q 567 498 553 499 q 596 494 582 497 q 604 436 606 463 q 592 376 603 410 q 568 377 581 376 q 540 378 556 378 l 499 378 l 492 308 l 557 308 q 574 309 565 308 q 590 311 582 310 q 601 256 606 286 q 586 201 597 225 q 532 192 561 193 q 476 192 503 192 q 476 149 476 175 q 473 94 475 122 q 467 40 471 65 q 456 0 463 15 q 349 -13 397 -18 q 256 11 300 -8 q 247 52 250 26 q 243 105 244 78 q 242 156 242 132 q 242 192 242 179 l 154 192 q 128 197 142 192 q 104 208 115 201 q 104 314 88 257 q 126 312 115 313 q 151 311 138 311 l 231 311 l 232 381 l 161 381 q 131 382 146 381 q 103 388 115 383 q 94 438 96 414 q 103 492 92 463 q 140 498 119 497 q 183 499 161 499 q 142 563 167 526 q 92 638 118 599 q 40 713 65 676 q -3 776 15 750 q 42 811 17 796 q 96 838 68 826 q 152 856 124 849 q 206 867 181 864 q 226 826 213 854 q 255 765 239 799 q 288 697 271 732 q 322 633 306 661 q 349 585 338 604 q 367 567 361 567 q 381 572 376 567 q 388 585 385 578 l 528 869 z "},"":{"ha":392,"x_min":88,"x_max":328,"o":"m 317 476 q 206 459 258 457 q 97 476 153 461 q 90 507 90 493 l 90 881 q 99 914 90 897 q 206 938 151 942 q 318 917 260 935 q 324 888 324 906 l 324 507 q 317 476 324 493 m 300 -72 q 197 -85 244 -83 q 103 -71 150 -86 q 88 -10 88 -44 l 96 347 q 99 365 96 354 q 152 372 125 368 q 207 379 179 376 q 264 381 235 382 q 324 369 293 379 q 328 346 328 360 l 324 -3 q 300 -72 324 -40 z "},"":{"ha":638,"x_min":50,"x_max":599,"o":"m 82 -69 q 73 -30 75 -50 q 71 11 71 -10 q 75 64 71 38 q 90 115 79 90 q 134 113 100 114 q 208 111 168 111 q 260 112 235 111 q 306 115 286 113 q 339 123 326 118 q 351 135 351 128 q 331 162 351 150 q 278 186 310 174 q 211 215 247 199 q 144 256 175 232 q 92 311 113 279 q 71 389 71 343 q 121 508 71 458 q 65 560 81 531 q 50 633 50 589 q 78 736 50 690 q 149 815 106 782 q 245 865 192 847 q 350 882 299 882 q 462 883 406 882 q 574 881 518 885 q 581 832 579 857 q 583 783 583 807 q 580 721 583 751 q 568 661 576 690 q 461 681 515 668 q 354 694 407 694 q 331 692 346 694 q 300 683 315 689 q 273 669 285 676 q 261 650 261 661 q 272 635 261 643 q 298 622 283 628 q 326 611 313 615 q 347 604 340 607 q 430 570 388 592 q 507 519 472 549 q 564 451 542 489 q 586 365 586 413 q 581 307 586 336 q 556 254 575 278 q 573 231 565 246 q 586 198 581 215 q 595 163 592 181 q 599 133 599 146 q 576 42 599 81 q 518 -22 554 3 q 436 -60 482 -47 q 343 -72 390 -72 q 265 -74 307 -72 q 183 -75 224 -75 q 131 -74 156 -75 q 82 -69 106 -72 m 411 343 q 397 367 411 354 q 365 391 383 379 q 327 410 346 403 q 299 418 308 418 q 285 415 292 418 q 274 407 278 413 q 290 383 274 396 q 327 361 306 371 q 370 345 349 351 q 401 339 392 339 q 408 340 404 339 q 411 343 411 340 z "},"":{"ha":454,"x_min":31,"x_max":431,"o":"m 333 928 q 261 958 289 928 q 233 1025 233 988 q 262 1092 233 1061 q 333 1122 290 1122 q 405 1092 379 1122 q 431 1025 431 1061 q 406 958 431 988 q 333 928 381 928 m 131 925 q 58 955 86 925 q 31 1022 31 985 q 59 1089 31 1058 q 131 1119 88 1119 q 202 1089 176 1119 q 228 1022 228 1058 q 203 955 228 985 q 131 925 178 925 z "},"":{"ha":967,"x_min":32,"x_max":911,"o":"m 478 -12 q 305 18 386 -12 q 163 104 224 49 q 67 238 103 160 q 32 410 32 315 q 67 589 32 510 q 164 723 103 668 q 308 806 225 778 q 489 835 392 835 q 658 806 581 835 q 791 725 735 778 q 879 596 847 672 q 911 425 911 519 q 878 250 911 331 q 786 111 844 169 q 649 20 728 53 q 478 -12 569 -12 m 482 90 q 606 115 551 90 q 701 185 661 140 q 761 291 740 229 q 782 426 782 353 q 763 546 782 490 q 706 643 743 601 q 613 708 668 685 q 489 732 558 732 q 360 708 419 732 q 258 643 301 685 q 191 546 215 601 q 167 426 167 490 q 192 299 167 360 q 261 192 218 239 q 361 118 304 146 q 482 90 418 90 m 618 283 q 626 216 626 253 q 618 156 625 179 q 592 155 611 156 q 546 154 574 154 q 426 167 479 154 q 335 210 372 181 q 277 290 297 240 q 257 411 257 339 q 342 624 257 557 q 585 690 426 690 q 602 690 589 690 q 618 689 615 689 q 627 628 629 665 q 618 564 625 592 l 597 564 q 539 555 567 564 q 489 527 511 546 q 453 479 467 508 q 440 410 440 450 q 452 344 440 369 q 484 306 464 319 q 531 287 504 292 q 585 282 557 282 q 599 282 592 282 q 610 283 606 282 q 618 283 615 283 z "},"":{"ha":390,"x_min":43,"x_max":365,"o":"m 64 889 q 50 953 51 917 q 64 1025 49 989 q 86 1031 72 1028 q 115 1036 100 1033 q 144 1041 131 1039 q 165 1043 158 1043 q 260 1029 222 1043 q 322 991 299 1015 q 356 933 346 967 q 365 863 365 900 q 329 724 365 771 q 196 676 293 676 q 85 707 126 676 q 43 796 43 738 q 80 865 43 840 q 172 889 117 889 q 197 887 193 889 q 213 885 201 885 q 203 908 213 899 q 167 917 194 917 q 117 906 140 917 q 64 889 93 896 m 169 803 q 200 781 169 781 q 224 788 215 781 q 232 803 232 794 q 226 818 232 810 q 203 826 219 826 q 169 803 169 826 m 51 519 q 45 588 47 551 q 51 658 43 625 q 90 666 63 664 q 136 668 117 668 q 201 667 168 668 q 267 667 235 667 q 314 666 289 667 q 351 661 339 665 q 360 592 363 628 q 351 525 358 557 q 315 515 339 518 q 271 513 290 513 q 203 510 236 511 q 136 510 169 510 q 90 512 117 510 q 51 519 64 514 z "},"":{"ha":822,"x_min":13,"x_max":788,"o":"m 778 343 q 744 260 767 301 q 692 190 722 218 q 624 217 664 201 q 541 253 583 233 q 460 298 499 274 q 399 350 422 322 q 387 447 385 397 q 399 538 389 496 q 463 600 424 569 q 545 656 503 631 q 627 699 588 681 q 692 726 667 717 q 746 677 719 711 q 788 603 772 643 q 760 566 779 585 q 717 528 740 547 q 667 492 693 510 q 619 457 642 474 q 710 404 664 433 q 778 343 756 375 m 406 326 q 372 243 394 285 q 319 174 350 201 q 251 201 292 185 q 169 237 211 217 q 88 281 126 257 q 26 333 50 306 q 15 430 13 381 q 26 521 17 479 q 91 583 51 553 q 173 639 131 614 q 255 682 215 664 q 319 710 294 700 q 374 660 347 694 q 415 586 400 626 q 388 549 407 568 q 344 512 368 531 q 295 475 321 493 q 247 440 269 457 q 338 388 292 417 q 406 326 383 358 z "},"":{"ha":671,"x_min":118,"x_max":618,"o":"m 611 301 q 574 290 596 293 q 527 286 551 286 q 481 290 503 286 q 442 299 458 293 q 436 338 438 318 q 435 376 435 357 l 435 390 q 311 389 367 390 q 189 386 256 388 q 129 392 151 386 q 119 503 118 444 q 138 613 119 563 q 189 617 161 617 l 490 618 q 540 615 517 618 q 580 599 563 611 q 608 566 597 588 q 618 507 618 544 l 618 354 q 617 327 618 340 q 611 301 615 314 z "},"":{"ha":711,"x_min":25,"x_max":679,"o":"m 347 403 q 222 429 281 403 q 120 501 164 456 q 51 608 76 547 q 25 738 25 669 q 51 874 25 813 q 122 981 76 936 q 228 1051 167 1026 q 363 1075 290 1075 q 490 1052 432 1075 q 590 987 549 1029 q 656 884 632 944 q 679 749 679 824 q 656 604 679 668 q 590 495 633 540 q 485 426 547 450 q 347 403 424 403 m 343 486 q 531 552 465 486 q 596 744 596 618 q 578 844 596 797 q 529 927 560 892 q 457 983 499 963 q 369 1004 415 1004 q 262 983 308 1004 q 183 926 215 963 q 135 842 151 890 q 119 739 119 794 q 135 640 119 686 q 181 560 151 594 q 251 506 210 525 q 343 486 292 486 m 524 574 q 408 556 467 547 q 392 587 400 569 q 375 621 383 604 q 358 650 367 638 q 340 664 350 663 l 340 556 q 278 550 308 551 q 218 556 247 549 l 218 944 l 351 944 q 474 917 425 944 q 522 821 522 890 q 502 753 522 781 q 454 704 482 725 q 501 641 481 676 q 524 574 521 606 m 339 774 q 383 784 365 774 q 401 815 401 794 q 379 840 401 833 q 339 844 357 847 l 339 774 z "},"":{"ha":492,"x_min":68,"x_max":404,"o":"m 386 1115 q 401 1028 404 1071 q 389 940 397 985 q 325 929 360 931 q 263 928 290 928 q 210 928 235 928 q 158 929 185 929 q 118 930 138 929 q 79 936 99 931 q 68 1026 68 983 q 83 1119 68 1068 q 104 1121 89 1121 q 241 1118 172 1121 q 379 1115 310 1115 l 386 1115 z "},"":{"ha":454,"x_min":21,"x_max":414,"o":"m 215 556 q 21 729 21 556 q 73 871 21 821 q 217 921 125 921 q 305 907 268 921 q 366 869 342 893 q 402 813 390 846 q 414 743 414 781 q 365 606 414 656 q 215 556 315 556 m 224 690 q 253 703 238 690 q 268 747 268 717 q 254 781 268 772 q 222 790 240 790 q 188 779 204 790 q 172 738 172 768 q 190 699 172 708 q 224 690 207 690 z "},"":{"ha":675,"x_min":60,"x_max":628,"o":"m 238 756 q 344 765 290 767 q 450 756 397 763 q 458 689 457 728 q 460 625 458 650 q 481 626 471 626 q 503 626 492 626 q 528 625 515 626 q 552 625 539 625 q 578 624 565 625 l 619 622 q 627 517 628 569 q 619 414 626 465 q 586 408 608 410 q 540 403 564 406 q 495 400 517 401 q 463 399 474 399 q 461 367 463 386 q 458 326 460 347 q 452 286 456 306 q 444 254 449 267 q 344 246 396 244 q 243 254 292 247 q 235 288 239 268 q 229 330 232 308 q 225 371 226 351 q 222 401 224 390 q 194 400 203 401 q 167 399 186 399 q 149 399 161 399 q 122 401 136 400 q 97 403 108 401 q 81 406 85 404 q 72 503 75 451 q 79 607 69 554 q 114 615 94 613 q 153 618 133 617 q 191 620 172 619 q 224 624 210 621 q 227 690 225 651 q 238 756 229 728 m 585 186 q 601 93 603 146 q 588 -8 600 40 q 563 -15 578 -12 q 531 -20 547 -18 q 500 -23 515 -22 q 475 -24 485 -24 q 321 -22 397 -24 q 165 -18 244 -19 q 144 -17 158 -18 q 116 -15 131 -17 q 89 -10 101 -12 q 71 -4 76 -8 q 63 95 60 40 q 81 186 65 150 q 133 197 101 194 q 199 201 165 200 q 263 201 232 201 q 311 200 293 200 q 347 201 329 200 q 383 201 364 201 q 429 202 403 201 q 484 201 456 203 q 539 197 513 200 q 585 186 565 193 z "},"":{"ha":403,"x_min":13,"x_max":378,"o":"m 368 690 q 374 659 372 676 q 377 624 376 642 q 376 591 378 607 q 368 564 374 575 q 327 560 351 563 q 274 557 303 558 q 213 555 244 556 q 150 554 181 554 q 73 556 107 554 q 24 564 39 558 q 17 590 19 572 q 15 625 14 607 q 19 660 15 643 q 29 685 22 676 q 76 722 51 706 q 123 755 101 738 q 158 797 144 772 q 172 858 172 821 q 157 880 172 875 q 125 885 142 885 l 22 885 q 15 915 17 896 q 13 956 13 935 q 15 999 13 978 q 22 1032 17 1019 l 181 1032 q 358 892 358 1032 q 324 782 358 828 q 240 690 290 736 q 279 691 260 690 q 318 692 299 692 q 328 692 321 692 q 343 692 335 692 q 359 691 351 692 q 368 690 367 690 z "},"":{"ha":393,"x_min":8,"x_max":371,"o":"m 17 556 q 9 612 8 576 q 17 675 10 647 q 31 673 19 674 q 58 672 43 672 q 85 672 72 672 q 100 672 97 672 q 152 681 128 672 q 176 718 176 690 q 149 745 176 742 q 71 749 122 749 q 65 765 67 754 q 65 790 64 776 q 68 817 65 804 q 76 839 71 831 q 131 848 111 842 q 160 861 150 854 q 172 875 169 868 q 175 888 175 882 q 163 912 175 903 q 117 921 150 921 q 99 920 111 921 q 76 919 88 919 q 54 917 64 918 q 42 917 44 917 q 32 971 32 940 q 42 1025 32 1001 q 64 1026 44 1025 q 106 1026 83 1026 q 149 1026 129 1026 q 171 1026 168 1026 q 242 1020 207 1026 q 304 999 276 1014 q 349 963 332 985 q 367 910 367 942 q 341 844 367 869 q 275 796 315 818 q 346 760 321 779 q 371 699 371 742 q 351 634 371 661 q 297 590 331 607 q 222 564 264 572 q 136 556 181 556 l 17 556 z "},"":{"ha":301,"x_min":24,"x_max":256,"o":"m 97 882 q 72 890 85 882 q 49 908 60 897 q 31 930 38 918 q 24 951 24 942 q 39 1008 24 972 q 76 1079 54 1044 q 122 1139 97 1114 q 168 1164 147 1164 q 194 1152 179 1164 q 224 1125 210 1140 q 247 1093 238 1110 q 256 1068 256 1076 q 238 1022 256 1053 q 194 959 219 990 q 141 905 168 928 q 97 882 114 882 z "},"":{"ha":725,"x_min":31,"x_max":689,"o":"m 676 -21 q 637 -28 657 -26 q 596 -31 617 -31 q 496 -19 543 -31 q 492 10 493 -4 q 490 40 490 25 q 492 108 490 56 q 494 231 493 161 q 497 376 496 300 q 497 517 497 453 q 493 624 496 582 q 483 665 490 665 q 474 623 478 665 q 471 516 471 581 q 472 374 471 451 q 474 228 472 297 q 476 108 475 160 q 478 44 478 57 q 477 13 478 29 q 474 -19 476 -4 q 430 -27 453 -25 q 383 -29 407 -29 q 335 -27 358 -29 q 294 -18 313 -25 q 285 42 285 7 l 285 264 q 275 265 282 267 q 260 264 268 264 l 211 264 q 120 288 156 264 q 65 351 85 313 q 38 438 46 390 q 31 532 31 486 q 57 658 31 594 q 133 772 83 721 q 257 854 183 822 q 425 886 331 886 l 688 871 l 689 46 q 676 -21 689 11 z "},"":{"ha":368,"x_min":43,"x_max":325,"o":"m 179 303 q 75 339 107 303 q 43 449 43 375 q 78 552 43 511 q 178 593 114 593 q 287 560 249 593 q 325 460 325 528 q 287 346 325 389 q 179 303 249 303 z "},"":{"ha":376,"x_min":33,"x_max":353,"o":"m 33 -158 q 57 -102 42 -129 q 96 -56 72 -75 q 114 -69 103 -60 q 138 -87 125 -78 q 161 -103 150 -96 q 181 -110 172 -110 q 192 -104 188 -110 q 197 -92 197 -99 q 181 -70 197 -81 q 144 -49 164 -60 q 108 -25 125 -37 q 92 4 92 -12 q 98 33 92 18 q 114 65 104 49 q 135 94 124 81 q 156 117 146 107 l 164 117 q 230 106 196 117 q 292 78 264 96 q 290 55 292 64 q 282 33 289 46 q 318 13 304 26 q 340 -19 332 -1 q 350 -57 347 -36 q 353 -97 353 -78 q 337 -162 353 -135 q 295 -208 321 -190 q 237 -234 269 -225 q 171 -243 204 -243 q 89 -222 129 -243 q 33 -158 49 -200 z "},"":{"ha":288,"x_min":0,"x_max":267,"o":"m 119 1026 q 150 1031 131 1029 q 192 1033 169 1033 q 256 1026 224 1033 q 267 1000 267 1013 l 267 576 q 264 563 267 571 q 215 558 240 560 q 167 556 190 556 q 131 557 147 556 q 104 563 115 558 l 104 856 q 85 841 93 849 q 68 826 78 833 q 24 860 44 836 q 0 910 4 883 q 22 938 8 922 q 52 971 36 954 q 85 1002 68 988 q 119 1026 103 1017 z "},"":{"ha":372,"x_min":26,"x_max":347,"o":"m 186 682 q 63 726 100 682 q 26 867 26 769 q 63 1012 26 963 q 183 1061 100 1061 q 296 1006 258 1061 q 333 871 333 951 q 299 731 333 779 q 186 682 265 682 m 185 831 q 213 843 204 831 q 221 871 221 856 q 210 900 221 886 q 183 914 199 914 q 157 901 168 914 q 146 868 146 888 q 156 842 146 853 q 185 831 165 831 m 36 519 q 30 588 32 551 q 36 658 28 625 q 74 666 47 664 q 121 668 101 668 q 186 667 153 668 q 251 667 219 667 q 299 666 274 667 q 336 661 324 665 q 345 592 347 628 q 336 525 343 557 q 299 515 324 518 q 256 513 275 513 q 188 510 221 511 q 121 510 154 510 q 75 512 101 510 q 36 519 49 514 z "},"":{"ha":819,"x_min":8,"x_max":793,"o":"m 18 326 q 86 388 40 358 q 176 440 132 417 q 128 475 154 457 q 79 512 103 493 q 36 549 56 531 q 8 586 17 568 q 50 660 24 626 q 104 710 76 694 q 169 682 129 700 q 251 639 208 664 q 333 583 293 614 q 397 521 372 553 q 409 430 407 479 q 397 333 411 381 q 335 281 374 306 q 255 237 297 257 q 172 201 213 217 q 104 174 132 185 q 51 243 74 201 q 18 326 29 285 m 400 326 q 468 388 422 358 q 558 440 514 417 q 510 475 536 457 q 461 512 485 493 q 418 549 438 531 q 390 586 399 568 q 432 660 406 626 q 486 710 458 694 q 551 682 511 700 q 633 639 590 664 q 715 583 675 614 q 779 521 754 553 q 791 430 789 479 q 779 333 793 381 q 717 281 756 306 q 637 237 679 257 q 554 201 594 217 q 486 174 514 185 q 433 243 456 201 q 400 326 411 285 z "},"":{"ha":1017,"x_min":22,"x_max":979,"o":"m 275 -18 q 190 13 226 -7 q 142 78 153 32 q 177 161 151 113 q 232 258 203 210 q 289 347 261 306 q 331 408 317 388 q 454 595 394 500 q 581 782 514 690 q 618 828 596 803 q 669 874 640 854 q 746 831 710 860 q 808 764 782 801 q 785 703 801 729 q 649 489 719 594 q 507 276 578 383 q 470 218 490 250 q 429 154 450 186 q 387 92 408 122 q 343 38 365 61 q 313 6 329 22 q 275 -18 297 -10 m 628 79 q 573 108 600 90 q 531 153 546 126 q 561 230 542 181 q 599 328 581 279 q 633 413 618 376 q 651 454 649 450 q 654 458 653 457 q 658 461 656 458 q 736 447 699 458 q 804 417 774 436 q 788 367 799 399 q 765 304 776 336 q 744 246 754 272 q 731 211 735 219 q 725 199 728 204 q 719 186 722 193 l 808 186 l 814 451 q 814 465 814 458 q 817 479 814 472 q 853 487 832 485 q 896 489 874 489 q 937 487 917 489 q 976 479 957 485 q 979 460 979 465 l 978 11 q 976 -3 978 4 q 974 -18 975 -11 q 890 -26 926 -26 q 814 -18 858 -26 q 810 5 811 -10 q 809 35 810 19 q 808 63 808 50 q 808 79 808 75 l 628 79 m 149 851 q 181 856 160 854 q 225 858 201 858 q 292 851 260 858 q 304 825 304 836 l 304 401 q 303 393 304 399 q 293 385 301 388 q 260 377 278 379 q 222 375 242 375 q 172 378 196 375 q 132 388 149 382 l 132 681 q 113 666 121 674 q 94 651 104 658 q 47 685 68 661 q 22 735 26 708 q 46 763 32 747 q 77 796 60 779 q 113 827 94 813 q 149 851 131 842 z "},"":{"ha":1015,"x_min":22,"x_max":983,"o":"m 275 -18 q 190 13 226 -7 q 142 78 153 32 q 177 161 151 113 q 232 258 203 210 q 289 347 261 306 q 331 408 317 388 q 454 595 394 500 q 581 782 514 690 q 618 828 596 803 q 669 874 640 854 q 746 831 710 860 q 808 764 782 801 q 785 703 801 729 q 649 489 719 594 q 507 276 578 383 q 470 218 490 250 q 429 154 450 186 q 387 92 408 122 q 343 38 365 61 q 313 6 329 22 q 275 -18 297 -10 m 974 110 q 980 78 978 96 q 983 44 982 61 q 981 10 983 26 q 974 -17 979 -6 q 933 -20 957 -18 q 879 -24 908 -22 q 818 -26 850 -25 q 756 -26 786 -26 q 678 -24 713 -26 q 629 -17 644 -22 q 622 9 625 -8 q 620 44 619 26 q 624 79 621 63 q 635 104 628 96 q 682 141 657 125 q 728 174 707 157 q 764 216 750 192 q 778 278 778 240 q 763 299 778 294 q 731 304 747 304 l 628 304 q 620 335 622 315 q 618 376 618 354 q 620 418 618 397 q 628 451 622 439 l 786 451 q 964 311 964 451 q 930 201 964 247 q 846 110 896 156 q 885 110 865 110 q 924 111 904 111 q 933 111 926 111 q 949 111 940 111 q 965 110 957 111 q 974 110 972 110 m 149 851 q 181 856 160 854 q 225 858 201 858 q 292 851 260 858 q 304 825 304 836 l 304 401 q 303 393 304 399 q 293 385 301 388 q 260 377 278 379 q 222 375 242 375 q 172 378 196 375 q 132 388 149 382 l 132 681 q 113 666 121 674 q 94 651 104 658 q 47 685 68 661 q 22 735 26 708 q 46 763 32 747 q 77 796 60 779 q 113 827 94 813 q 149 851 131 842 z "},"":{"ha":1040,"x_min":31,"x_max":1004,"o":"m 300 -18 q 215 13 251 -7 q 167 78 178 32 q 202 161 176 113 q 257 258 228 210 q 314 347 286 306 q 356 408 342 388 q 479 595 419 500 q 606 782 539 690 q 643 828 621 803 q 694 874 665 854 q 771 831 735 860 q 833 764 807 801 q 810 703 826 729 q 674 489 744 594 q 532 276 603 383 q 495 218 515 250 q 454 154 475 186 q 412 92 433 122 q 368 38 390 61 q 338 6 354 22 q 300 -18 322 -10 m 653 79 q 598 108 625 90 q 556 153 571 126 q 586 230 567 181 q 624 328 606 279 q 658 413 643 376 q 676 454 674 450 q 679 458 678 457 q 683 461 681 458 q 761 447 724 458 q 829 417 799 436 q 813 367 824 399 q 790 304 801 336 q 769 246 779 272 q 756 211 760 219 q 750 199 753 204 q 744 186 747 193 l 833 186 l 839 451 q 839 465 839 458 q 842 479 839 472 q 878 487 857 485 q 921 489 899 489 q 962 487 942 489 q 1001 479 982 485 q 1004 460 1004 465 l 1003 11 q 1001 -3 1003 4 q 999 -18 1000 -11 q 915 -26 951 -26 q 839 -18 883 -26 q 835 5 836 -10 q 834 35 835 19 q 833 63 833 50 q 833 79 833 75 l 653 79 m 39 390 q 31 447 31 411 q 39 510 32 482 q 53 508 42 508 q 80 507 65 507 q 107 507 94 507 q 122 507 119 507 q 174 516 150 507 q 199 553 199 525 q 172 580 199 576 q 93 583 144 583 q 88 600 89 589 q 87 625 86 611 q 90 652 88 639 q 99 674 93 665 q 153 683 133 676 q 182 696 172 689 q 194 710 192 703 q 197 722 197 717 q 185 747 197 738 q 139 756 172 756 q 122 755 133 756 q 98 753 110 754 q 76 752 86 753 q 64 751 67 751 q 54 806 54 775 q 64 860 54 836 q 86 860 67 860 q 128 861 106 861 q 171 861 151 861 q 193 861 190 861 q 266 855 229 861 q 333 834 303 849 q 383 798 364 819 q 403 744 403 776 q 370 678 403 704 q 297 631 338 653 q 375 595 343 614 q 407 533 407 576 q 382 467 407 496 q 318 419 357 439 q 233 390 279 400 q 142 381 186 381 q 113 382 129 381 q 81 385 97 383 q 53 389 65 388 q 39 390 42 390 z "},"":{"ha":519,"x_min":32,"x_max":485,"o":"m 315 790 q 367 779 344 790 q 405 751 390 768 q 427 713 419 733 q 435 672 435 692 q 405 601 435 632 q 313 571 375 571 q 213 599 244 571 q 181 672 181 628 q 213 755 181 719 q 315 790 244 790 m 461 107 q 479 59 474 86 q 485 2 485 32 q 481 -59 485 -28 q 472 -119 478 -90 q 433 -137 457 -131 q 385 -147 410 -143 q 336 -151 360 -150 q 297 -153 313 -153 q 190 -134 239 -153 q 106 -81 142 -115 q 51 3 71 -46 q 32 110 32 51 q 56 263 32 200 q 147 374 79 325 q 168 390 160 383 q 181 403 176 396 q 188 421 186 411 q 192 447 190 431 q 192 467 192 451 q 194 500 193 482 q 196 533 194 518 q 199 551 197 547 q 303 557 247 557 q 403 551 358 557 q 408 526 406 544 q 413 487 411 508 q 416 446 415 465 q 417 418 417 426 q 406 336 417 367 q 380 288 396 306 q 345 260 364 271 q 310 238 326 250 q 284 208 294 226 q 274 156 274 189 q 294 110 274 119 q 346 100 314 100 q 367 101 350 100 q 403 103 383 101 q 440 105 424 104 q 461 107 457 106 z "},"":{"ha":769,"x_min":6,"x_max":761,"o":"m 428 882 q 384 905 411 882 q 331 959 357 928 q 288 1022 306 990 q 269 1068 269 1053 q 279 1093 269 1076 q 302 1125 289 1110 q 331 1152 315 1140 q 357 1164 346 1164 q 403 1139 378 1164 q 449 1079 428 1114 q 486 1008 471 1044 q 501 951 501 972 q 494 930 501 942 q 476 908 488 918 q 453 890 465 897 q 428 882 440 882 m 239 856 q 307 873 268 868 q 389 877 346 878 q 476 870 432 876 q 560 856 519 864 q 595 769 575 832 q 637 621 615 706 q 679 441 658 536 q 717 258 700 346 q 747 101 735 171 q 761 0 758 32 q 699 -9 732 -7 q 634 -11 667 -11 q 572 -8 601 -11 q 519 0 543 -6 q 506 39 514 15 q 492 88 499 63 q 478 138 485 114 q 465 176 471 161 q 428 172 451 172 q 380 172 406 171 q 331 174 354 172 q 293 178 307 176 q 283 135 289 161 q 271 83 278 110 q 258 34 264 57 q 244 0 251 11 q 127 -8 189 -8 q 11 0 65 -8 q 14 95 6 29 q 40 247 22 161 q 81 428 57 333 q 133 609 106 524 q 188 761 160 694 q 239 856 215 828 m 390 711 q 385 688 390 711 q 374 628 381 664 q 358 551 367 593 q 343 471 350 508 q 331 406 336 433 q 324 374 325 379 q 350 376 335 375 q 383 376 365 376 q 416 376 400 376 q 444 374 432 375 q 418 535 431 463 q 409 595 414 565 q 400 650 404 625 q 393 691 396 675 q 390 711 390 707 z "},"":{"ha":769,"x_min":6,"x_max":761,"o":"m 343 882 q 318 890 331 882 q 294 908 306 897 q 276 930 283 918 q 269 951 269 942 q 285 1008 269 972 q 322 1079 300 1044 q 368 1139 343 1114 q 414 1164 393 1164 q 440 1152 425 1164 q 469 1125 456 1140 q 492 1093 483 1110 q 501 1068 501 1076 q 483 1022 501 1053 q 440 959 465 990 q 387 905 414 928 q 343 882 360 882 m 239 856 q 307 873 268 868 q 389 877 346 878 q 476 870 432 876 q 560 856 519 864 q 595 769 575 832 q 637 621 615 706 q 679 441 658 536 q 717 258 700 346 q 747 101 735 171 q 761 0 758 32 q 699 -9 732 -7 q 634 -11 667 -11 q 572 -8 601 -11 q 519 0 543 -6 q 506 39 514 15 q 492 88 499 63 q 478 138 485 114 q 465 176 471 161 q 428 172 451 172 q 380 172 406 171 q 331 174 354 172 q 293 178 307 176 q 283 135 289 161 q 271 83 278 110 q 258 34 264 57 q 244 0 251 11 q 127 -8 189 -8 q 11 0 65 -8 q 14 95 6 29 q 40 247 22 161 q 81 428 57 333 q 133 609 106 524 q 188 761 160 694 q 239 856 215 828 m 390 711 q 385 688 390 711 q 374 628 381 664 q 358 551 367 593 q 343 471 350 508 q 331 406 336 433 q 324 374 325 379 q 350 376 335 375 q 383 376 365 376 q 416 376 400 376 q 444 374 432 375 q 418 535 431 463 q 409 595 414 565 q 400 650 404 625 q 393 691 396 675 q 390 711 390 707 z "},"":{"ha":769,"x_min":6,"x_max":761,"o":"m 456 1154 q 522 1092 489 1126 q 575 1026 556 1058 q 545 957 567 990 q 499 906 524 924 q 467 922 483 910 q 437 948 451 933 q 410 977 422 963 q 390 1000 399 992 q 369 976 382 992 q 340 945 356 961 q 307 917 324 929 q 275 900 290 904 q 227 950 247 921 q 196 1011 207 979 q 217 1049 203 1029 q 249 1090 231 1069 q 288 1128 267 1110 q 326 1160 308 1146 q 390 1164 356 1167 q 456 1154 424 1161 m 239 856 q 307 873 268 868 q 389 877 346 878 q 476 870 432 876 q 560 856 519 864 q 595 769 575 832 q 637 621 615 706 q 679 441 658 536 q 717 258 700 346 q 747 101 735 171 q 761 0 758 32 q 699 -9 732 -7 q 634 -11 667 -11 q 572 -8 601 -11 q 519 0 543 -6 q 506 39 514 15 q 492 88 499 63 q 478 138 485 114 q 465 176 471 161 q 428 172 451 172 q 380 172 406 171 q 331 174 354 172 q 293 178 307 176 q 283 135 289 161 q 271 83 278 110 q 258 34 264 57 q 244 0 251 11 q 127 -8 189 -8 q 11 0 65 -8 q 14 95 6 29 q 40 247 22 161 q 81 428 57 333 q 133 609 106 524 q 188 761 160 694 q 239 856 215 828 m 390 711 q 385 688 390 711 q 374 628 381 664 q 358 551 367 593 q 343 471 350 508 q 331 406 336 433 q 324 374 325 379 q 350 376 335 375 q 383 376 365 376 q 416 376 400 376 q 444 374 432 375 q 418 535 431 463 q 409 595 414 565 q 400 650 404 625 q 393 691 396 675 q 390 711 390 707 z "},"":{"ha":769,"x_min":6,"x_max":761,"o":"m 233 900 q 190 962 210 929 q 161 1031 171 994 q 183 1078 169 1054 q 217 1124 197 1103 q 260 1158 236 1144 q 310 1171 283 1171 q 349 1160 331 1171 q 385 1135 367 1149 q 422 1111 403 1122 q 465 1100 442 1100 q 483 1107 475 1100 q 497 1123 490 1114 q 508 1142 503 1132 q 517 1160 513 1153 q 570 1121 546 1150 q 610 1065 594 1092 q 589 1006 603 1036 q 554 952 575 976 q 506 913 533 928 q 447 897 479 897 q 410 908 426 897 q 376 933 393 919 q 343 957 360 946 q 307 968 326 968 q 285 960 294 968 q 267 940 275 951 q 250 918 258 929 q 233 900 242 907 m 239 856 q 307 873 268 868 q 389 877 346 878 q 476 870 432 876 q 560 856 519 864 q 595 769 575 832 q 637 621 615 706 q 679 441 658 536 q 717 258 700 346 q 747 101 735 171 q 761 0 758 32 q 699 -9 732 -7 q 634 -11 667 -11 q 572 -8 601 -11 q 519 0 543 -6 q 506 39 514 15 q 492 88 499 63 q 478 138 485 114 q 465 176 471 161 q 428 172 451 172 q 380 172 406 171 q 331 174 354 172 q 293 178 307 176 q 283 135 289 161 q 271 83 278 110 q 258 34 264 57 q 244 0 251 11 q 127 -8 189 -8 q 11 0 65 -8 q 14 95 6 29 q 40 247 22 161 q 81 428 57 333 q 133 609 106 524 q 188 761 160 694 q 239 856 215 828 m 390 711 q 385 688 390 711 q 374 628 381 664 q 358 551 367 593 q 343 471 350 508 q 331 406 336 433 q 324 374 325 379 q 350 376 335 375 q 383 376 365 376 q 416 376 400 376 q 444 374 432 375 q 418 535 431 463 q 409 595 414 565 q 400 650 404 625 q 393 691 396 675 q 390 711 390 707 z "},"":{"ha":769,"x_min":6,"x_max":761,"o":"m 488 928 q 415 958 443 928 q 388 1025 388 988 q 416 1092 388 1061 q 488 1122 444 1122 q 559 1092 533 1122 q 585 1025 585 1061 q 560 958 585 988 q 488 928 535 928 m 285 925 q 213 955 240 925 q 185 1022 185 985 q 213 1089 185 1058 q 285 1119 242 1119 q 356 1089 331 1119 q 382 1022 382 1058 q 357 955 382 985 q 285 925 332 925 m 239 856 q 307 873 268 868 q 389 877 346 878 q 476 870 432 876 q 560 856 519 864 q 595 769 575 832 q 637 621 615 706 q 679 441 658 536 q 717 258 700 346 q 747 101 735 171 q 761 0 758 32 q 699 -9 732 -7 q 634 -11 667 -11 q 572 -8 601 -11 q 519 0 543 -6 q 506 39 514 15 q 492 88 499 63 q 478 138 485 114 q 465 176 471 161 q 428 172 451 172 q 380 172 406 171 q 331 174 354 172 q 293 178 307 176 q 283 135 289 161 q 271 83 278 110 q 258 34 264 57 q 244 0 251 11 q 127 -8 189 -8 q 11 0 65 -8 q 14 95 6 29 q 40 247 22 161 q 81 428 57 333 q 133 609 106 524 q 188 761 160 694 q 239 856 215 828 m 390 711 q 385 688 390 711 q 374 628 381 664 q 358 551 367 593 q 343 471 350 508 q 331 406 336 433 q 324 374 325 379 q 350 376 335 375 q 383 376 365 376 q 416 376 400 376 q 444 374 432 375 q 418 535 431 463 q 409 595 414 565 q 400 650 404 625 q 393 691 396 675 q 390 711 390 707 z "},"":{"ha":769,"x_min":6,"x_max":761,"o":"m 375 910 q 278 943 315 910 q 240 1029 240 976 q 251 1080 240 1057 q 281 1121 263 1103 q 326 1149 300 1139 q 382 1158 351 1158 q 438 1149 411 1158 q 485 1122 464 1139 q 517 1082 506 1104 q 529 1035 529 1060 q 517 987 529 1010 q 483 947 504 964 q 433 920 461 931 q 375 910 406 910 m 385 1054 q 362 1046 372 1054 q 351 1032 351 1038 q 359 1020 351 1028 q 382 1013 367 1013 q 403 1019 393 1013 q 413 1032 413 1025 q 403 1047 413 1039 q 385 1054 394 1054 m 239 856 q 307 873 268 868 q 389 877 346 878 q 476 870 432 876 q 560 856 519 864 q 595 769 575 832 q 637 621 615 706 q 679 441 658 536 q 717 258 700 346 q 747 101 735 171 q 761 0 758 32 q 699 -9 732 -7 q 634 -11 667 -11 q 572 -8 601 -11 q 519 0 543 -6 q 506 39 514 15 q 492 88 499 63 q 478 138 485 114 q 465 176 471 161 q 428 172 451 172 q 380 172 406 171 q 331 174 354 172 q 293 178 307 176 q 283 135 289 161 q 271 83 278 110 q 258 34 264 57 q 244 0 251 11 q 127 -8 189 -8 q 11 0 65 -8 q 14 95 6 29 q 40 247 22 161 q 81 428 57 333 q 133 609 106 524 q 188 761 160 694 q 239 856 215 828 m 390 711 q 385 688 390 711 q 374 628 381 664 q 358 551 367 593 q 343 471 350 508 q 331 406 336 433 q 324 374 325 379 q 350 376 335 375 q 383 376 365 376 q 416 376 400 376 q 444 374 432 375 q 418 535 431 463 q 409 595 414 565 q 400 650 404 625 q 393 691 396 675 q 390 711 390 707 z "},"":{"ha":1108,"x_min":6,"x_max":1079,"o":"m 239 856 q 299 872 265 867 q 371 878 333 878 q 467 872 418 878 q 560 856 515 865 l 1069 856 q 1077 828 1075 856 q 1079 767 1079 801 q 1077 700 1079 732 q 1071 657 1075 668 l 778 651 l 775 544 q 819 547 793 546 q 874 547 846 547 q 928 547 901 547 q 974 547 954 547 q 1001 540 988 547 q 1001 357 1019 447 q 976 351 992 351 q 876 348 926 350 q 775 347 825 346 l 775 267 q 796 213 775 221 q 860 204 817 204 q 907 206 878 204 q 967 210 936 207 q 1026 216 997 213 q 1071 224 1054 219 q 1077 172 1075 200 q 1079 115 1079 143 q 1077 58 1079 86 q 1071 10 1075 31 q 1017 0 1058 4 q 922 -7 976 -4 q 806 -11 867 -10 q 690 -12 744 -12 q 594 -11 635 -12 q 543 -6 554 -10 q 531 -2 536 -3 q 519 0 525 -1 q 506 39 514 15 q 492 88 499 63 q 478 138 485 114 q 465 176 471 161 q 439 172 454 174 q 406 171 424 171 q 342 173 374 171 q 293 178 311 175 q 283 135 289 161 q 271 83 278 110 q 258 34 264 57 q 244 0 251 11 q 128 -8 190 -8 q 11 0 65 -8 q 14 95 6 29 q 40 247 22 161 q 81 428 57 333 q 133 609 106 524 q 188 761 160 694 q 239 856 215 828 m 390 711 q 385 688 390 711 q 374 628 381 664 q 358 551 367 593 q 343 471 350 508 q 331 406 336 433 q 324 374 325 379 q 350 376 335 376 q 382 376 365 376 q 417 376 400 376 q 444 374 433 376 q 418 535 431 463 q 409 595 414 565 q 400 650 404 625 q 393 691 396 675 q 390 711 390 707 z "},"":{"ha":572,"x_min":18,"x_max":556,"o":"m 544 190 q 552 135 550 165 q 554 76 554 106 q 551 21 554 47 q 544 -24 549 -6 q 505 -26 533 -25 q 439 -26 476 -26 l 435 -26 q 444 -61 442 -43 q 446 -97 446 -79 q 430 -162 446 -135 q 388 -208 414 -190 q 330 -234 363 -225 q 264 -243 297 -243 q 182 -222 222 -243 q 126 -158 142 -200 q 150 -102 135 -129 q 189 -56 165 -75 q 207 -69 196 -60 q 231 -87 218 -78 q 254 -103 243 -96 q 274 -110 265 -110 q 285 -104 281 -110 q 290 -92 290 -99 q 274 -70 290 -81 q 238 -49 257 -60 q 201 -25 218 -37 q 185 4 185 -12 q 189 26 185 14 q 63 164 107 72 q 18 407 18 256 q 142 765 18 651 q 494 879 265 879 q 519 878 500 879 q 544 878 539 878 q 553 831 551 858 q 555 775 556 804 q 551 717 554 746 q 544 667 549 689 l 514 667 q 428 651 469 667 q 354 605 386 636 q 303 524 322 574 q 285 406 285 475 q 302 294 285 338 q 349 228 319 251 q 416 197 378 206 q 494 189 454 189 q 501 189 494 189 q 515 189 507 189 q 532 190 524 189 q 544 190 540 190 z "},"":{"ha":617,"x_min":26,"x_max":588,"o":"m 351 882 q 308 905 335 882 q 255 959 281 928 q 211 1022 229 990 q 193 1068 193 1053 q 203 1093 193 1076 q 226 1125 213 1110 q 254 1152 239 1140 q 281 1164 269 1164 q 326 1139 301 1164 q 373 1079 351 1114 q 410 1008 394 1044 q 425 951 425 972 q 418 930 425 942 q 400 908 411 918 q 376 890 389 897 q 351 882 364 882 m 579 224 q 585 172 583 200 q 588 115 588 143 q 585 58 588 86 q 579 10 583 31 q 525 0 567 4 q 428 -7 483 -4 q 312 -11 374 -10 q 196 -12 250 -12 q 102 -11 142 -12 q 51 -6 63 -10 q 29 89 32 39 q 26 188 26 139 l 26 704 q 27 745 26 724 q 31 788 28 767 q 38 828 33 810 q 49 856 42 846 l 578 856 q 585 828 583 856 q 588 767 588 801 q 585 700 588 732 q 579 657 583 668 l 286 651 l 283 544 q 328 547 301 546 q 382 547 354 547 q 436 547 410 547 q 482 547 463 547 q 510 540 496 547 q 510 357 528 447 q 485 351 500 351 q 384 348 435 350 q 283 347 333 346 l 283 267 q 304 213 283 221 q 368 204 325 204 q 415 206 386 204 q 475 210 444 207 q 534 216 506 213 q 579 224 563 219 z "},"":{"ha":617,"x_min":26,"x_max":588,"o":"m 267 882 q 242 890 254 882 q 218 908 229 897 q 200 930 207 918 q 193 951 193 942 q 208 1008 193 972 q 245 1079 224 1044 q 292 1139 267 1114 q 338 1164 317 1164 q 364 1152 349 1164 q 393 1125 379 1140 q 416 1093 407 1110 q 425 1068 425 1076 q 407 1022 425 1053 q 363 959 389 990 q 310 905 338 928 q 267 882 283 882 m 579 224 q 585 172 583 200 q 588 115 588 143 q 585 58 588 86 q 579 10 583 31 q 525 0 567 4 q 428 -7 483 -4 q 312 -11 374 -10 q 196 -12 250 -12 q 102 -11 142 -12 q 51 -6 63 -10 q 29 89 32 39 q 26 188 26 139 l 26 704 q 27 745 26 724 q 31 788 28 767 q 38 828 33 810 q 49 856 42 846 l 578 856 q 585 828 583 856 q 588 767 588 801 q 585 700 588 732 q 579 657 583 668 l 286 651 l 283 544 q 328 547 301 546 q 382 547 354 547 q 436 547 410 547 q 482 547 463 547 q 510 540 496 547 q 510 357 528 447 q 485 351 500 351 q 384 348 435 350 q 283 347 333 346 l 283 267 q 304 213 283 221 q 368 204 325 204 q 415 206 386 204 q 475 210 444 207 q 534 216 506 213 q 579 224 563 219 z "},"":{"ha":617,"x_min":26,"x_max":588,"o":"m 379 1154 q 446 1092 413 1126 q 499 1026 479 1058 q 469 957 490 990 q 422 906 447 924 q 391 922 407 910 q 360 948 375 933 q 334 977 346 963 q 314 1000 322 992 q 292 976 306 992 q 263 945 279 961 q 231 917 247 929 q 199 900 214 904 q 151 950 171 921 q 119 1011 131 979 q 140 1049 126 1029 q 172 1090 154 1069 q 211 1128 190 1110 q 250 1160 232 1146 q 313 1164 279 1167 q 379 1154 347 1161 m 579 224 q 585 172 583 200 q 588 115 588 143 q 585 58 588 86 q 579 10 583 31 q 525 0 567 4 q 428 -7 483 -4 q 312 -11 374 -10 q 196 -12 250 -12 q 102 -11 142 -12 q 51 -6 63 -10 q 29 89 32 39 q 26 188 26 139 l 26 704 q 27 745 26 724 q 31 788 28 767 q 38 828 33 810 q 49 856 42 846 l 578 856 q 585 828 583 856 q 588 767 588 801 q 585 700 588 732 q 579 657 583 668 l 286 651 l 283 544 q 328 547 301 546 q 382 547 354 547 q 436 547 410 547 q 482 547 463 547 q 510 540 496 547 q 510 357 528 447 q 485 351 500 351 q 384 348 435 350 q 283 347 333 346 l 283 267 q 304 213 283 221 q 368 204 325 204 q 415 206 386 204 q 475 210 444 207 q 534 216 506 213 q 579 224 563 219 z "},"":{"ha":617,"x_min":26,"x_max":588,"o":"m 411 928 q 339 958 367 928 q 311 1025 311 988 q 340 1092 311 1061 q 411 1122 368 1122 q 483 1092 457 1122 q 508 1025 508 1061 q 483 958 508 988 q 411 928 458 928 m 208 925 q 136 955 164 925 q 108 1022 108 985 q 137 1089 108 1058 q 208 1119 165 1119 q 280 1089 254 1119 q 306 1022 306 1058 q 281 955 306 985 q 208 925 256 925 m 579 224 q 585 172 583 200 q 588 115 588 143 q 585 58 588 86 q 579 10 583 31 q 525 0 567 4 q 428 -7 483 -4 q 312 -11 374 -10 q 196 -12 250 -12 q 102 -11 142 -12 q 51 -6 63 -10 q 29 89 32 39 q 26 188 26 139 l 26 704 q 27 745 26 724 q 31 788 28 767 q 38 828 33 810 q 49 856 42 846 l 578 856 q 585 828 583 856 q 588 767 588 801 q 585 700 588 732 q 579 657 583 668 l 286 651 l 283 544 q 328 547 301 546 q 382 547 354 547 q 436 547 410 547 q 482 547 463 547 q 510 540 496 547 q 510 357 528 447 q 485 351 500 351 q 384 348 435 350 q 283 347 333 346 l 283 267 q 304 213 283 221 q 368 204 325 204 q 415 206 386 204 q 475 210 444 207 q 534 216 506 213 q 579 224 563 219 z "},"":{"ha":453,"x_min":25,"x_max":432,"o":"m 269 882 q 226 905 253 882 q 173 959 199 928 q 129 1022 147 990 q 111 1068 111 1053 q 121 1093 111 1076 q 144 1125 131 1110 q 172 1152 157 1140 q 199 1164 188 1164 q 244 1139 219 1164 q 291 1079 269 1114 q 328 1008 313 1044 q 343 951 343 972 q 336 930 343 942 q 318 908 329 918 q 294 890 307 897 q 269 882 282 882 m 424 174 q 430 138 428 158 q 432 94 432 117 q 430 52 432 72 q 424 17 428 32 q 390 8 411 11 q 342 2 368 4 q 288 0 315 0 q 238 0 261 0 l 193 0 q 92 3 135 0 q 32 25 49 7 q 28 56 29 38 q 28 93 28 74 q 29 132 28 113 q 32 165 31 151 q 64 178 42 174 q 110 182 86 182 l 107 690 l 86 690 q 74 690 82 690 q 58 691 67 690 q 42 692 50 692 q 32 694 35 693 q 25 769 25 726 q 32 846 25 811 q 105 858 56 856 q 204 860 154 860 q 264 859 232 860 q 326 857 296 858 q 381 852 356 856 q 419 843 406 849 q 419 701 432 768 q 388 699 404 701 q 356 700 371 697 l 356 178 q 369 178 360 178 q 390 177 379 178 q 411 176 401 176 q 424 174 421 175 z "},"":{"ha":453,"x_min":25,"x_max":432,"o":"m 185 882 q 160 890 172 882 q 136 908 147 897 q 118 930 125 918 q 111 951 111 942 q 126 1008 111 972 q 163 1079 142 1044 q 210 1139 185 1114 q 256 1164 235 1164 q 282 1152 267 1164 q 311 1125 297 1140 q 334 1093 325 1110 q 343 1068 343 1076 q 325 1022 343 1053 q 281 959 307 990 q 228 905 256 928 q 185 882 201 882 m 424 174 q 430 138 428 158 q 432 94 432 117 q 430 52 432 72 q 424 17 428 32 q 390 8 411 11 q 342 2 368 4 q 288 0 315 0 q 238 0 261 0 l 193 0 q 92 3 135 0 q 32 25 49 7 q 28 56 29 38 q 28 93 28 74 q 29 132 28 113 q 32 165 31 151 q 64 178 42 174 q 110 182 86 182 l 107 690 l 86 690 q 74 690 82 690 q 58 691 67 690 q 42 692 50 692 q 32 694 35 693 q 25 769 25 726 q 32 846 25 811 q 105 858 56 856 q 204 860 154 860 q 264 859 232 860 q 326 857 296 858 q 381 852 356 856 q 419 843 406 849 q 419 701 432 768 q 388 699 404 701 q 356 700 371 697 l 356 178 q 369 178 360 178 q 390 177 379 178 q 411 176 401 176 q 424 174 421 175 z "},"":{"ha":453,"x_min":25,"x_max":432,"o":"m 296 1154 q 363 1092 329 1126 q 415 1026 396 1058 q 385 957 407 990 q 339 906 364 924 q 308 922 324 910 q 277 948 292 933 q 251 977 263 963 q 231 1000 239 992 q 209 976 222 992 q 180 945 196 961 q 147 917 164 929 q 115 900 131 904 q 67 950 88 921 q 36 1011 47 979 q 57 1049 43 1029 q 89 1090 71 1069 q 128 1128 107 1110 q 167 1160 149 1146 q 230 1164 196 1167 q 296 1154 264 1161 m 424 174 q 430 138 428 158 q 432 94 432 117 q 430 52 432 72 q 424 17 428 32 q 390 8 411 11 q 342 2 368 4 q 288 0 315 0 q 238 0 261 0 l 193 0 q 92 3 135 0 q 32 25 49 7 q 28 56 29 38 q 28 93 28 74 q 29 132 28 113 q 32 165 31 151 q 64 178 42 174 q 110 182 86 182 l 107 690 l 86 690 q 74 690 82 690 q 58 691 67 690 q 42 692 50 692 q 32 694 35 693 q 25 769 25 726 q 32 846 25 811 q 105 858 56 856 q 204 860 154 860 q 264 859 232 860 q 326 857 296 858 q 381 852 356 856 q 419 843 406 849 q 419 701 432 768 q 388 699 404 701 q 356 700 371 697 l 356 178 q 369 178 360 178 q 390 177 379 178 q 411 176 401 176 q 424 174 421 175 z "},"":{"ha":453,"x_min":25,"x_max":432,"o":"m 329 928 q 257 958 285 928 q 229 1025 229 988 q 258 1092 229 1061 q 329 1122 286 1122 q 401 1092 375 1122 q 426 1025 426 1061 q 401 958 426 988 q 329 928 376 928 m 126 925 q 54 955 82 925 q 26 1022 26 985 q 55 1089 26 1058 q 126 1119 83 1119 q 198 1089 172 1119 q 224 1022 224 1058 q 199 955 224 985 q 126 925 174 925 m 424 174 q 430 138 428 158 q 432 94 432 117 q 430 52 432 72 q 424 17 428 32 q 390 8 411 11 q 342 2 368 4 q 288 0 315 0 q 238 0 261 0 l 193 0 q 92 3 135 0 q 32 25 49 7 q 28 56 29 38 q 28 93 28 74 q 29 132 28 113 q 32 165 31 151 q 64 178 42 174 q 110 182 86 182 l 107 690 l 86 690 q 74 690 82 690 q 58 691 67 690 q 42 692 50 692 q 32 694 35 693 q 25 769 25 726 q 32 846 25 811 q 105 858 56 856 q 204 860 154 860 q 264 859 232 860 q 326 857 296 858 q 381 852 356 856 q 419 843 406 849 q 419 701 432 768 q 388 699 404 701 q 356 700 371 697 l 356 178 q 369 178 360 178 q 390 177 379 178 q 411 176 401 176 q 424 174 421 175 z "},"":{"ha":763,"x_min":-40,"x_max":743,"o":"m 38 0 q 29 73 26 33 q 29 150 32 113 l 26 389 q -26 394 -3 389 q -37 443 -33 417 q -40 497 -40 469 q -37 550 -40 524 q -26 599 -33 576 q 1 606 -12 604 q 31 607 15 607 l 31 690 q 31 776 31 732 q 38 858 31 821 q 96 869 63 865 q 167 876 129 874 q 243 878 204 878 q 319 879 282 879 q 492 846 414 879 q 626 754 569 813 q 713 617 682 696 q 743 450 743 539 q 713 274 743 357 q 628 128 683 190 q 494 28 574 65 q 315 -8 415 -8 q 177 -9 246 -8 q 38 0 108 -10 m 288 199 q 378 221 342 199 q 438 279 415 243 q 471 361 461 315 q 481 454 481 407 q 473 526 481 490 q 448 592 465 563 q 402 639 431 621 q 332 657 374 657 l 310 657 q 292 656 301 657 q 282 644 282 656 l 283 610 l 343 610 q 356 609 350 610 q 368 607 361 608 q 382 500 382 558 q 368 401 382 442 q 314 392 342 392 q 299 391 307 392 q 282 390 292 390 l 282 206 q 288 199 285 199 z "},"":{"ha":786,"x_min":28,"x_max":756,"o":"m 242 900 q 199 962 218 929 q 169 1031 179 994 q 192 1078 178 1054 q 225 1124 206 1103 q 268 1158 244 1144 q 318 1171 292 1171 q 357 1160 339 1171 q 393 1135 375 1149 q 431 1111 411 1122 q 474 1100 450 1100 q 491 1107 483 1100 q 505 1123 499 1114 q 516 1142 511 1132 q 525 1160 521 1153 q 578 1121 554 1150 q 618 1065 603 1092 q 597 1006 611 1036 q 563 952 583 976 q 515 913 542 928 q 456 897 488 897 q 418 908 435 897 q 385 933 401 919 q 351 957 368 946 q 315 968 335 968 q 293 960 303 968 q 275 940 283 951 q 258 918 267 929 q 242 900 250 907 m 750 0 q 699 -9 731 -6 q 631 -13 667 -12 q 561 -11 596 -14 q 501 0 526 -8 q 431 110 463 51 q 372 229 400 168 q 317 351 343 290 q 258 468 290 413 q 262 406 260 438 q 264 344 264 375 q 265 265 264 313 q 265 169 265 218 q 261 75 264 121 q 251 0 258 29 q 210 -8 238 -4 q 151 -12 182 -11 q 88 -11 119 -14 q 35 0 57 -8 q 29 40 31 19 q 28 81 28 61 l 28 804 q 30 830 28 817 q 38 854 32 843 q 90 862 58 860 q 154 864 121 864 q 220 861 188 864 q 278 854 253 858 q 306 805 288 842 q 349 721 325 768 q 400 622 374 674 q 449 526 426 569 q 489 455 472 483 q 510 425 506 426 l 510 774 q 511 814 510 793 q 519 854 513 835 q 572 864 540 861 q 638 866 604 867 q 701 863 671 865 q 750 854 732 860 q 756 806 756 833 l 756 93 q 755 47 756 69 q 750 0 754 24 z "},"":{"ha":794,"x_min":13,"x_max":775,"o":"m 396 -35 q 222 -2 294 -35 q 102 90 149 31 q 34 231 56 149 q 13 413 13 314 q 32 608 13 521 q 97 758 51 696 q 215 853 142 819 q 397 888 289 888 l 424 888 q 380 921 404 897 q 333 973 356 944 q 297 1028 311 1001 q 282 1068 282 1054 q 292 1093 282 1076 q 315 1125 301 1110 q 343 1152 328 1140 q 369 1164 358 1164 q 415 1139 390 1164 q 462 1079 440 1114 q 499 1008 483 1044 q 514 951 514 972 q 495 913 514 935 q 454 885 476 892 q 604 833 543 875 q 703 728 665 792 q 758 583 742 665 q 775 407 775 500 q 751 240 775 319 q 680 99 728 160 q 561 1 632 38 q 396 -35 490 -35 m 396 197 q 465 219 439 197 q 504 275 490 242 q 522 347 518 308 q 526 417 526 385 q 524 490 526 450 q 508 563 521 529 q 469 621 494 597 q 397 644 443 644 q 328 620 356 644 q 286 560 301 596 q 265 484 271 524 q 258 413 258 444 q 264 342 258 379 q 284 272 269 304 q 326 219 299 240 q 396 197 353 197 z "},"":{"ha":794,"x_min":13,"x_max":775,"o":"m 396 -35 q 222 -2 294 -35 q 102 90 149 31 q 34 231 56 149 q 13 413 13 314 q 29 596 13 513 q 85 740 46 679 q 186 839 124 801 q 340 885 249 876 q 300 914 318 892 q 282 951 282 936 q 297 1008 282 972 q 334 1079 313 1044 q 381 1139 356 1114 q 426 1164 406 1164 q 453 1152 438 1164 q 482 1125 468 1140 q 505 1093 496 1110 q 514 1068 514 1076 q 499 1028 514 1054 q 463 974 485 1001 q 417 922 442 946 q 374 888 393 897 l 397 888 q 575 850 503 888 q 692 748 647 813 q 756 595 736 683 q 775 407 775 507 q 751 240 775 319 q 680 99 728 160 q 561 1 632 38 q 396 -35 490 -35 m 396 197 q 465 219 439 197 q 504 275 490 242 q 522 347 518 308 q 526 417 526 385 q 524 490 526 450 q 508 563 521 529 q 469 621 494 597 q 397 644 443 644 q 328 620 356 644 q 286 560 301 596 q 265 484 271 524 q 258 413 258 444 q 264 342 258 379 q 284 272 269 304 q 326 219 299 240 q 396 197 353 197 z "},"":{"ha":794,"x_min":13,"x_max":775,"o":"m 468 1154 q 535 1092 501 1126 q 588 1026 568 1058 q 558 957 579 990 q 511 906 536 924 q 480 922 496 910 q 449 948 464 933 q 423 977 435 963 q 403 1000 411 992 q 381 976 394 992 q 352 945 368 961 q 319 917 336 929 q 288 900 303 904 q 240 950 260 921 q 208 1011 219 979 q 229 1049 215 1029 q 261 1090 243 1069 q 300 1128 279 1110 q 339 1160 321 1146 q 402 1164 368 1167 q 468 1154 436 1161 m 396 -35 q 222 -2 294 -35 q 102 90 149 31 q 34 231 56 149 q 13 413 13 314 q 32 608 13 521 q 97 758 51 696 q 215 853 142 819 q 397 888 289 888 q 575 850 503 888 q 692 748 647 813 q 756 595 736 683 q 775 407 775 507 q 751 240 775 319 q 680 99 728 160 q 561 1 632 38 q 396 -35 490 -35 m 396 197 q 465 219 439 197 q 504 275 490 242 q 522 347 518 308 q 526 417 526 385 q 524 490 526 450 q 508 563 521 529 q 469 621 494 597 q 397 644 443 644 q 328 620 356 644 q 286 560 301 596 q 265 484 271 524 q 258 413 258 444 q 264 342 258 379 q 284 272 269 304 q 326 219 299 240 q 396 197 353 197 z "},"":{"ha":794,"x_min":13,"x_max":775,"o":"m 246 900 q 203 962 222 929 q 174 1031 183 994 q 196 1078 182 1054 q 229 1124 210 1103 q 272 1158 249 1144 q 322 1171 296 1171 q 361 1160 343 1171 q 397 1135 379 1149 q 435 1111 415 1122 q 478 1100 454 1100 q 495 1107 488 1100 q 509 1123 503 1114 q 520 1142 515 1132 q 529 1160 525 1153 q 583 1121 558 1150 q 622 1065 607 1092 q 601 1006 615 1036 q 567 952 588 976 q 519 913 546 928 q 460 897 492 897 q 422 908 439 897 q 389 933 406 919 q 356 957 372 946 q 319 968 339 968 q 297 960 307 968 q 279 940 288 951 q 263 918 271 929 q 246 900 254 907 m 396 -35 q 222 -2 294 -35 q 102 90 149 31 q 34 231 56 149 q 13 413 13 314 q 32 608 13 521 q 97 758 51 696 q 215 853 142 819 q 397 888 289 888 q 575 850 503 888 q 692 748 647 813 q 756 595 736 683 q 775 407 775 507 q 751 240 775 319 q 680 99 728 160 q 561 1 632 38 q 396 -35 490 -35 m 396 197 q 465 219 439 197 q 504 275 490 242 q 522 347 518 308 q 526 417 526 385 q 524 490 526 450 q 508 563 521 529 q 469 621 494 597 q 397 644 443 644 q 328 620 356 644 q 286 560 301 596 q 265 484 271 524 q 258 413 258 444 q 264 342 258 379 q 284 272 269 304 q 326 219 299 240 q 396 197 353 197 z "},"":{"ha":794,"x_min":13,"x_max":775,"o":"m 500 928 q 428 958 456 928 q 400 1025 400 988 q 428 1092 400 1061 q 500 1122 457 1122 q 572 1092 546 1122 q 597 1025 597 1061 q 572 958 597 988 q 500 928 547 928 m 297 925 q 225 955 253 925 q 197 1022 197 985 q 226 1089 197 1058 q 297 1119 254 1119 q 369 1089 343 1119 q 394 1022 394 1058 q 369 955 394 985 q 297 925 344 925 m 396 -35 q 222 -2 294 -35 q 102 90 149 31 q 34 231 56 149 q 13 413 13 314 q 32 608 13 521 q 97 758 51 696 q 215 853 142 819 q 397 888 289 888 q 575 850 503 888 q 692 748 647 813 q 756 595 736 683 q 775 407 775 507 q 751 240 775 319 q 680 99 728 160 q 561 1 632 38 q 396 -35 490 -35 m 396 197 q 465 219 439 197 q 504 275 490 242 q 522 347 518 308 q 526 417 526 385 q 524 490 526 450 q 508 563 521 529 q 469 621 494 597 q 397 644 443 644 q 328 620 356 644 q 286 560 301 596 q 265 484 271 524 q 258 413 258 444 q 264 342 258 379 q 284 272 269 304 q 326 219 299 240 q 396 197 353 197 z "},"":{"ha":599,"x_min":31,"x_max":550,"o":"m 406 667 q 481 601 447 639 q 546 524 514 564 q 526 494 539 511 q 497 461 513 478 q 468 429 482 444 q 446 406 454 414 q 472 383 457 397 q 502 353 488 369 q 529 323 517 338 q 550 297 542 308 q 484 222 519 257 q 410 158 449 188 q 383 176 400 163 q 349 203 367 189 q 317 232 332 218 q 294 253 301 246 q 270 229 286 244 q 236 199 254 214 q 201 169 218 183 q 174 151 185 156 q 101 213 133 178 q 40 286 68 249 q 59 317 46 299 q 88 354 72 335 q 117 390 103 374 q 138 415 131 407 q 118 433 125 428 q 99 451 111 439 q 84 466 94 456 q 62 489 74 476 q 41 512 50 501 q 31 526 32 522 q 90 597 58 561 q 165 661 122 632 q 196 641 179 654 q 229 613 213 628 q 262 585 246 599 q 289 563 278 571 q 314 586 299 571 q 345 617 329 601 q 377 646 361 632 q 406 667 393 660 z "},"":{"ha":794,"x_min":13,"x_max":775,"o":"m 396 -35 l 378 -35 q 328 -110 351 -81 q 200 -85 258 -107 q 88 -8 142 -64 q 100 32 93 11 q 114 76 107 53 q 37 222 61 136 q 13 413 13 307 q 32 608 13 521 q 97 758 51 696 q 215 853 142 819 q 397 888 289 888 q 427 888 413 888 q 457 885 442 888 q 536 982 499 951 q 740 867 654 953 q 723 811 733 844 q 699 736 713 778 q 757 587 739 671 q 775 407 775 503 q 751 240 775 319 q 680 99 728 160 q 561 1 632 38 q 396 -35 490 -35 m 396 197 q 465 219 439 197 q 504 275 490 242 q 522 347 518 308 q 526 417 526 385 q 524 490 526 450 q 508 563 521 529 q 469 621 494 597 q 397 644 443 644 q 328 620 356 644 q 286 560 301 596 q 265 484 271 524 q 258 413 258 444 q 264 342 258 379 q 284 272 269 304 q 326 219 299 240 q 396 197 353 197 z "},"":{"ha":782,"x_min":25,"x_max":744,"o":"m 433 882 q 390 905 417 882 q 337 959 363 928 q 293 1022 311 990 q 275 1068 275 1053 q 285 1093 275 1076 q 308 1125 294 1110 q 336 1152 321 1140 q 363 1164 351 1164 q 408 1139 383 1164 q 455 1079 433 1114 q 492 1008 476 1044 q 507 951 507 972 q 500 930 507 942 q 482 908 493 918 q 458 890 471 897 q 433 882 446 882 m 507 851 q 564 863 531 860 q 632 867 597 867 q 739 851 697 867 q 743 824 742 838 q 744 794 744 810 l 744 350 q 659 82 744 169 q 383 -6 574 -6 q 119 74 213 -6 q 25 318 25 154 l 25 792 q 26 821 25 806 q 32 851 28 836 q 85 864 53 860 q 151 868 117 868 q 219 864 186 868 q 274 851 251 860 q 276 822 276 838 q 276 789 276 806 l 276 328 q 287 282 276 301 q 313 249 297 263 q 349 228 329 235 q 389 221 369 221 q 439 236 418 221 q 473 276 460 251 q 493 332 486 301 q 500 393 500 363 l 500 793 q 507 851 500 817 z "},"":{"ha":782,"x_min":25,"x_max":744,"o":"m 349 882 q 324 890 336 882 q 300 908 311 897 q 282 930 289 918 q 275 951 275 942 q 290 1008 275 972 q 327 1079 306 1044 q 374 1139 349 1114 q 419 1164 399 1164 q 446 1152 431 1164 q 475 1125 461 1140 q 498 1093 489 1110 q 507 1068 507 1076 q 489 1022 507 1053 q 445 959 471 990 q 392 905 419 928 q 349 882 365 882 m 507 851 q 564 863 531 860 q 632 867 597 867 q 739 851 697 867 q 743 824 742 838 q 744 794 744 810 l 744 350 q 659 82 744 169 q 383 -6 574 -6 q 119 74 213 -6 q 25 318 25 154 l 25 792 q 26 821 25 806 q 32 851 28 836 q 85 864 53 860 q 151 868 117 868 q 219 864 186 868 q 274 851 251 860 q 276 822 276 838 q 276 789 276 806 l 276 328 q 287 282 276 301 q 313 249 297 263 q 349 228 329 235 q 389 221 369 221 q 439 236 418 221 q 473 276 460 251 q 493 332 486 301 q 500 393 500 363 l 500 793 q 507 851 500 817 z "},"":{"ha":782,"x_min":25,"x_max":744,"o":"m 461 1154 q 528 1092 494 1126 q 581 1026 561 1058 q 551 957 572 990 q 504 906 529 924 q 473 922 489 910 q 442 948 457 933 q 416 977 428 963 q 396 1000 404 992 q 374 976 388 992 q 345 945 361 961 q 313 917 329 929 q 281 900 296 904 q 233 950 253 921 q 201 1011 213 979 q 222 1049 208 1029 q 254 1090 236 1069 q 293 1128 272 1110 q 332 1160 314 1146 q 395 1164 361 1167 q 461 1154 429 1161 m 507 851 q 564 863 531 860 q 632 867 597 867 q 739 851 697 867 q 743 824 742 838 q 744 794 744 810 l 744 350 q 659 82 744 169 q 383 -6 574 -6 q 119 74 213 -6 q 25 318 25 154 l 25 792 q 26 821 25 806 q 32 851 28 836 q 85 864 53 860 q 151 868 117 868 q 219 864 186 868 q 274 851 251 860 q 276 822 276 838 q 276 789 276 806 l 276 328 q 287 282 276 301 q 313 249 297 263 q 349 228 329 235 q 389 221 369 221 q 439 236 418 221 q 473 276 460 251 q 493 332 486 301 q 500 393 500 363 l 500 793 q 507 851 500 817 z "},"":{"ha":782,"x_min":25,"x_max":744,"o":"m 494 928 q 422 958 450 928 q 394 1025 394 988 q 423 1092 394 1061 q 494 1122 451 1122 q 566 1092 540 1122 q 592 1025 592 1061 q 567 958 592 988 q 494 928 542 928 m 292 925 q 219 955 247 925 q 192 1022 192 985 q 220 1089 192 1058 q 292 1119 249 1119 q 363 1089 338 1119 q 389 1022 389 1058 q 364 955 389 985 q 292 925 339 925 m 507 851 q 564 863 531 860 q 632 867 597 867 q 739 851 697 867 q 743 824 742 838 q 744 794 744 810 l 744 350 q 659 82 744 169 q 383 -6 574 -6 q 119 74 213 -6 q 25 318 25 154 l 25 792 q 26 821 25 806 q 32 851 28 836 q 85 864 53 860 q 151 868 117 868 q 219 864 186 868 q 274 851 251 860 q 276 822 276 838 q 276 789 276 806 l 276 328 q 287 282 276 301 q 313 249 297 263 q 349 228 329 235 q 389 221 369 221 q 439 236 418 221 q 473 276 460 251 q 493 332 486 301 q 500 393 500 363 l 500 793 q 507 851 500 817 z "},"":{"ha":676,"x_min":-4,"x_max":681,"o":"m 296 882 q 271 890 283 882 q 247 908 258 897 q 229 930 236 918 q 222 951 222 942 q 238 1008 222 972 q 274 1079 253 1044 q 321 1139 296 1114 q 367 1164 346 1164 q 393 1152 378 1164 q 422 1125 408 1140 q 445 1093 436 1110 q 454 1068 454 1076 q 436 1022 454 1053 q 392 959 418 990 q 340 905 367 928 q 296 882 313 882 m 474 6 q 344 -12 414 -14 q 221 6 275 -10 l 221 281 q 206 347 221 303 q 169 447 192 392 q 120 565 147 503 q 68 683 93 626 q 23 785 43 739 q -4 856 3 832 q 119 868 53 867 q 253 856 186 869 l 347 553 l 446 856 q 500 865 469 863 q 563 867 531 868 q 625 864 594 867 q 681 856 656 861 q 665 796 681 838 q 627 699 650 754 q 577 581 604 643 q 527 459 550 518 q 489 351 504 400 q 474 274 474 301 l 474 6 z "},"":{"ha":594,"x_min":22,"x_max":579,"o":"m 240 0 q 131 -8 186 -8 q 29 0 71 -8 q 25 37 26 13 q 23 87 24 61 q 22 135 22 113 q 22 169 22 158 l 22 724 q 23 753 22 733 q 24 796 24 774 q 27 838 25 818 q 32 867 29 857 q 94 878 58 874 q 164 883 129 883 q 207 881 186 883 q 243 872 228 879 q 248 851 246 865 q 251 819 250 836 q 253 785 253 801 q 254 757 254 768 l 254 726 l 283 726 q 506 660 432 726 q 579 440 579 593 q 556 303 579 360 q 489 209 532 246 q 386 154 446 172 q 254 135 326 136 q 252 106 253 125 q 249 66 251 86 q 245 28 247 46 q 240 0 243 10 m 254 343 q 304 349 282 338 q 340 387 331 363 q 349 433 349 411 q 340 485 349 464 q 290 507 331 507 q 273 506 282 507 q 254 503 264 504 l 254 343 z "},"":{"ha":731,"x_min":25,"x_max":707,"o":"m 354 -10 q 335 88 335 39 q 350 183 335 136 q 367 185 358 185 q 385 186 376 186 q 451 199 422 186 q 481 240 481 211 q 467 272 481 264 q 433 283 453 281 q 389 288 413 286 q 345 299 365 289 q 311 332 325 308 q 297 400 297 356 q 315 464 297 443 q 356 501 333 485 q 396 536 378 517 q 414 596 414 556 q 398 644 414 632 q 349 657 382 657 q 296 633 314 657 q 269 576 278 610 q 260 508 261 543 q 260 449 260 472 q 261 262 260 354 q 263 75 263 169 q 263 61 263 72 q 262 38 263 50 q 260 14 261 25 q 258 0 260 3 q 206 -10 233 -7 q 151 -14 179 -14 q 54 -3 103 -14 q 34 93 40 35 q 26 210 28 151 q 26 319 25 269 q 26 389 26 368 q 30 492 26 438 q 44 599 33 546 q 76 699 56 651 q 128 783 96 747 q 209 841 161 819 q 324 863 257 863 q 454 848 390 863 q 569 801 518 833 q 650 717 619 768 q 681 593 681 667 q 651 494 681 538 q 578 424 622 451 q 672 344 638 401 q 707 215 707 286 q 672 99 707 143 q 588 30 638 54 q 483 -3 538 6 q 388 -11 428 -11 q 369 -11 378 -11 q 354 -10 361 -11 z "},"":{"ha":769,"x_min":6,"x_max":761,"o":"m 428 882 q 384 905 411 882 q 331 959 357 928 q 288 1022 306 990 q 269 1068 269 1053 q 279 1093 269 1076 q 302 1125 289 1110 q 331 1152 315 1140 q 357 1164 346 1164 q 403 1139 378 1164 q 449 1079 428 1114 q 486 1008 471 1044 q 501 951 501 972 q 494 930 501 942 q 476 908 488 918 q 453 890 465 897 q 428 882 440 882 m 239 856 q 307 873 268 868 q 389 877 346 878 q 476 870 432 876 q 560 856 519 864 q 595 769 575 832 q 637 621 615 706 q 679 441 658 536 q 717 258 700 346 q 747 101 735 171 q 761 0 758 32 q 699 -9 732 -7 q 634 -11 667 -11 q 572 -8 601 -11 q 519 0 543 -6 q 506 39 514 15 q 492 88 499 63 q 478 138 485 114 q 465 176 471 161 q 428 172 451 172 q 380 172 406 171 q 331 174 354 172 q 293 178 307 176 q 283 135 289 161 q 271 83 278 110 q 258 34 264 57 q 244 0 251 11 q 127 -8 189 -8 q 11 0 65 -8 q 14 95 6 29 q 40 247 22 161 q 81 428 57 333 q 133 609 106 524 q 188 761 160 694 q 239 856 215 828 m 390 711 q 385 688 390 711 q 374 628 381 664 q 358 551 367 593 q 343 471 350 508 q 331 406 336 433 q 324 374 325 379 q 350 376 335 375 q 383 376 365 376 q 416 376 400 376 q 444 374 432 375 q 418 535 431 463 q 409 595 414 565 q 400 650 404 625 q 393 691 396 675 q 390 711 390 707 z "},"":{"ha":769,"x_min":6,"x_max":761,"o":"m 343 882 q 318 890 331 882 q 294 908 306 897 q 276 930 283 918 q 269 951 269 942 q 285 1008 269 972 q 322 1079 300 1044 q 368 1139 343 1114 q 414 1164 393 1164 q 440 1152 425 1164 q 469 1125 456 1140 q 492 1093 483 1110 q 501 1068 501 1076 q 483 1022 501 1053 q 440 959 465 990 q 387 905 414 928 q 343 882 360 882 m 239 856 q 307 873 268 868 q 389 877 346 878 q 476 870 432 876 q 560 856 519 864 q 595 769 575 832 q 637 621 615 706 q 679 441 658 536 q 717 258 700 346 q 747 101 735 171 q 761 0 758 32 q 699 -9 732 -7 q 634 -11 667 -11 q 572 -8 601 -11 q 519 0 543 -6 q 506 39 514 15 q 492 88 499 63 q 478 138 485 114 q 465 176 471 161 q 428 172 451 172 q 380 172 406 171 q 331 174 354 172 q 293 178 307 176 q 283 135 289 161 q 271 83 278 110 q 258 34 264 57 q 244 0 251 11 q 127 -8 189 -8 q 11 0 65 -8 q 14 95 6 29 q 40 247 22 161 q 81 428 57 333 q 133 609 106 524 q 188 761 160 694 q 239 856 215 828 m 390 711 q 385 688 390 711 q 374 628 381 664 q 358 551 367 593 q 343 471 350 508 q 331 406 336 433 q 324 374 325 379 q 350 376 335 375 q 383 376 365 376 q 416 376 400 376 q 444 374 432 375 q 418 535 431 463 q 409 595 414 565 q 400 650 404 625 q 393 691 396 675 q 390 711 390 707 z "},"":{"ha":769,"x_min":6,"x_max":761,"o":"m 456 1154 q 522 1092 489 1126 q 575 1026 556 1058 q 545 957 567 990 q 499 906 524 924 q 467 922 483 910 q 437 948 451 933 q 410 977 422 963 q 390 1000 399 992 q 369 976 382 992 q 340 945 356 961 q 307 917 324 929 q 275 900 290 904 q 227 950 247 921 q 196 1011 207 979 q 217 1049 203 1029 q 249 1090 231 1069 q 288 1128 267 1110 q 326 1160 308 1146 q 390 1164 356 1167 q 456 1154 424 1161 m 239 856 q 307 873 268 868 q 389 877 346 878 q 476 870 432 876 q 560 856 519 864 q 595 769 575 832 q 637 621 615 706 q 679 441 658 536 q 717 258 700 346 q 747 101 735 171 q 761 0 758 32 q 699 -9 732 -7 q 634 -11 667 -11 q 572 -8 601 -11 q 519 0 543 -6 q 506 39 514 15 q 492 88 499 63 q 478 138 485 114 q 465 176 471 161 q 428 172 451 172 q 380 172 406 171 q 331 174 354 172 q 293 178 307 176 q 283 135 289 161 q 271 83 278 110 q 258 34 264 57 q 244 0 251 11 q 127 -8 189 -8 q 11 0 65 -8 q 14 95 6 29 q 40 247 22 161 q 81 428 57 333 q 133 609 106 524 q 188 761 160 694 q 239 856 215 828 m 390 711 q 385 688 390 711 q 374 628 381 664 q 358 551 367 593 q 343 471 350 508 q 331 406 336 433 q 324 374 325 379 q 350 376 335 375 q 383 376 365 376 q 416 376 400 376 q 444 374 432 375 q 418 535 431 463 q 409 595 414 565 q 400 650 404 625 q 393 691 396 675 q 390 711 390 707 z "},"":{"ha":769,"x_min":6,"x_max":761,"o":"m 233 900 q 190 962 210 929 q 161 1031 171 994 q 183 1078 169 1054 q 217 1124 197 1103 q 260 1158 236 1144 q 310 1171 283 1171 q 349 1160 331 1171 q 385 1135 367 1149 q 422 1111 403 1122 q 465 1100 442 1100 q 483 1107 475 1100 q 497 1123 490 1114 q 508 1142 503 1132 q 517 1160 513 1153 q 570 1121 546 1150 q 610 1065 594 1092 q 589 1006 603 1036 q 554 952 575 976 q 506 913 533 928 q 447 897 479 897 q 410 908 426 897 q 376 933 393 919 q 343 957 360 946 q 307 968 326 968 q 285 960 294 968 q 267 940 275 951 q 250 918 258 929 q 233 900 242 907 m 239 856 q 307 873 268 868 q 389 877 346 878 q 476 870 432 876 q 560 856 519 864 q 595 769 575 832 q 637 621 615 706 q 679 441 658 536 q 717 258 700 346 q 747 101 735 171 q 761 0 758 32 q 699 -9 732 -7 q 634 -11 667 -11 q 572 -8 601 -11 q 519 0 543 -6 q 506 39 514 15 q 492 88 499 63 q 478 138 485 114 q 465 176 471 161 q 428 172 451 172 q 380 172 406 171 q 331 174 354 172 q 293 178 307 176 q 283 135 289 161 q 271 83 278 110 q 258 34 264 57 q 244 0 251 11 q 127 -8 189 -8 q 11 0 65 -8 q 14 95 6 29 q 40 247 22 161 q 81 428 57 333 q 133 609 106 524 q 188 761 160 694 q 239 856 215 828 m 390 711 q 385 688 390 711 q 374 628 381 664 q 358 551 367 593 q 343 471 350 508 q 331 406 336 433 q 324 374 325 379 q 350 376 335 375 q 383 376 365 376 q 416 376 400 376 q 444 374 432 375 q 418 535 431 463 q 409 595 414 565 q 400 650 404 625 q 393 691 396 675 q 390 711 390 707 z "},"":{"ha":769,"x_min":6,"x_max":761,"o":"m 488 928 q 415 958 443 928 q 388 1025 388 988 q 416 1092 388 1061 q 488 1122 444 1122 q 559 1092 533 1122 q 585 1025 585 1061 q 560 958 585 988 q 488 928 535 928 m 285 925 q 213 955 240 925 q 185 1022 185 985 q 213 1089 185 1058 q 285 1119 242 1119 q 356 1089 331 1119 q 382 1022 382 1058 q 357 955 382 985 q 285 925 332 925 m 239 856 q 307 873 268 868 q 389 877 346 878 q 476 870 432 876 q 560 856 519 864 q 595 769 575 832 q 637 621 615 706 q 679 441 658 536 q 717 258 700 346 q 747 101 735 171 q 761 0 758 32 q 699 -9 732 -7 q 634 -11 667 -11 q 572 -8 601 -11 q 519 0 543 -6 q 506 39 514 15 q 492 88 499 63 q 478 138 485 114 q 465 176 471 161 q 428 172 451 172 q 380 172 406 171 q 331 174 354 172 q 293 178 307 176 q 283 135 289 161 q 271 83 278 110 q 258 34 264 57 q 244 0 251 11 q 127 -8 189 -8 q 11 0 65 -8 q 14 95 6 29 q 40 247 22 161 q 81 428 57 333 q 133 609 106 524 q 188 761 160 694 q 239 856 215 828 m 390 711 q 385 688 390 711 q 374 628 381 664 q 358 551 367 593 q 343 471 350 508 q 331 406 336 433 q 324 374 325 379 q 350 376 335 375 q 383 376 365 376 q 416 376 400 376 q 444 374 432 375 q 418 535 431 463 q 409 595 414 565 q 400 650 404 625 q 393 691 396 675 q 390 711 390 707 z "},"":{"ha":769,"x_min":6,"x_max":761,"o":"m 375 910 q 278 943 315 910 q 240 1029 240 976 q 251 1080 240 1057 q 281 1121 263 1103 q 326 1149 300 1139 q 382 1158 351 1158 q 438 1149 411 1158 q 485 1122 464 1139 q 517 1082 506 1104 q 529 1035 529 1060 q 517 987 529 1010 q 483 947 504 964 q 433 920 461 931 q 375 910 406 910 m 385 1054 q 362 1046 372 1054 q 351 1032 351 1038 q 359 1020 351 1028 q 382 1013 367 1013 q 403 1019 393 1013 q 413 1032 413 1025 q 403 1047 413 1039 q 385 1054 394 1054 m 239 856 q 307 873 268 868 q 389 877 346 878 q 476 870 432 876 q 560 856 519 864 q 595 769 575 832 q 637 621 615 706 q 679 441 658 536 q 717 258 700 346 q 747 101 735 171 q 761 0 758 32 q 699 -9 732 -7 q 634 -11 667 -11 q 572 -8 601 -11 q 519 0 543 -6 q 506 39 514 15 q 492 88 499 63 q 478 138 485 114 q 465 176 471 161 q 428 172 451 172 q 380 172 406 171 q 331 174 354 172 q 293 178 307 176 q 283 135 289 161 q 271 83 278 110 q 258 34 264 57 q 244 0 251 11 q 127 -8 189 -8 q 11 0 65 -8 q 14 95 6 29 q 40 247 22 161 q 81 428 57 333 q 133 609 106 524 q 188 761 160 694 q 239 856 215 828 m 390 711 q 385 688 390 711 q 374 628 381 664 q 358 551 367 593 q 343 471 350 508 q 331 406 336 433 q 324 374 325 379 q 350 376 335 375 q 383 376 365 376 q 416 376 400 376 q 444 374 432 375 q 418 535 431 463 q 409 595 414 565 q 400 650 404 625 q 393 691 396 675 q 390 711 390 707 z "},"":{"ha":1108,"x_min":6,"x_max":1079,"o":"m 239 856 q 307 873 268 868 q 389 877 346 878 q 476 870 432 876 q 560 856 519 864 l 1069 856 q 1077 828 1075 856 q 1079 767 1079 801 q 1077 700 1079 732 q 1071 657 1075 668 l 778 651 l 775 544 q 819 547 793 546 q 874 547 846 547 q 928 547 901 547 q 974 547 954 547 q 1001 540 988 547 q 1001 357 1019 447 q 976 351 992 351 q 876 348 926 350 q 775 347 825 346 l 775 267 q 796 213 775 221 q 860 204 817 204 q 907 206 878 204 q 967 210 936 207 q 1026 216 997 213 q 1071 224 1054 219 q 1077 172 1075 200 q 1079 115 1079 143 q 1077 58 1079 86 q 1071 10 1075 31 q 1017 0 1058 4 q 920 -7 975 -4 q 803 -11 865 -10 q 688 -12 742 -12 q 594 -11 633 -12 q 543 -6 554 -10 q 531 -2 536 -3 q 519 0 525 -1 q 506 39 514 15 q 492 88 499 63 q 478 138 485 114 q 465 176 471 161 q 428 172 451 172 q 380 172 406 171 q 331 174 354 172 q 293 178 307 176 q 283 135 289 161 q 271 83 278 110 q 258 34 264 57 q 244 0 251 11 q 127 -8 189 -8 q 11 0 65 -8 q 14 95 6 29 q 40 247 22 161 q 81 428 57 333 q 133 609 106 524 q 188 761 160 694 q 239 856 215 828 m 390 711 q 385 688 390 711 q 374 628 381 664 q 358 551 367 593 q 343 471 350 508 q 331 406 336 433 q 324 374 325 379 q 350 376 335 375 q 383 376 365 376 q 416 376 400 376 q 444 374 432 375 q 418 535 431 463 q 409 595 414 565 q 400 650 404 625 q 393 691 396 675 q 390 711 390 707 z "},"":{"ha":572,"x_min":18,"x_max":556,"o":"m 544 190 q 552 135 550 165 q 554 76 554 106 q 551 21 554 47 q 544 -24 549 -6 q 505 -26 533 -25 q 439 -26 476 -26 l 435 -26 q 444 -61 442 -43 q 446 -97 446 -79 q 430 -162 446 -135 q 388 -208 414 -190 q 330 -234 363 -225 q 264 -243 297 -243 q 182 -222 222 -243 q 126 -158 142 -200 q 150 -102 135 -129 q 189 -56 165 -75 q 207 -69 196 -60 q 231 -87 218 -78 q 254 -103 243 -96 q 274 -110 265 -110 q 285 -104 281 -110 q 290 -92 290 -99 q 274 -70 290 -81 q 238 -49 257 -60 q 201 -25 218 -37 q 185 4 185 -12 q 189 26 185 14 q 63 164 107 72 q 18 407 18 256 q 142 765 18 651 q 494 879 265 879 q 519 878 500 879 q 544 878 539 878 q 553 831 551 858 q 555 775 556 804 q 551 717 554 746 q 544 667 549 689 l 514 667 q 428 651 469 667 q 354 605 386 636 q 303 524 322 574 q 285 406 285 475 q 302 294 285 338 q 349 228 319 251 q 416 197 378 206 q 494 189 454 189 q 501 189 494 189 q 515 189 507 189 q 532 190 524 189 q 544 190 540 190 z "},"":{"ha":617,"x_min":26,"x_max":588,"o":"m 351 882 q 308 905 335 882 q 255 959 281 928 q 211 1022 229 990 q 193 1068 193 1053 q 203 1093 193 1076 q 226 1125 213 1110 q 254 1152 239 1140 q 281 1164 269 1164 q 326 1139 301 1164 q 373 1079 351 1114 q 410 1008 394 1044 q 425 951 425 972 q 418 930 425 942 q 400 908 411 918 q 376 890 389 897 q 351 882 364 882 m 579 224 q 585 172 583 200 q 588 115 588 143 q 585 58 588 86 q 579 10 583 31 q 525 0 567 4 q 428 -7 483 -4 q 312 -11 374 -10 q 196 -12 250 -12 q 102 -11 142 -12 q 51 -6 63 -10 q 29 89 32 39 q 26 188 26 139 l 26 704 q 27 745 26 724 q 31 788 28 767 q 38 828 33 810 q 49 856 42 846 l 578 856 q 585 828 583 856 q 588 767 588 801 q 585 700 588 732 q 579 657 583 668 l 286 651 l 283 544 q 328 547 301 546 q 382 547 354 547 q 436 547 410 547 q 482 547 463 547 q 510 540 496 547 q 510 357 528 447 q 485 351 500 351 q 384 348 435 350 q 283 347 333 346 l 283 267 q 304 213 283 221 q 368 204 325 204 q 415 206 386 204 q 475 210 444 207 q 534 216 506 213 q 579 224 563 219 z "},"":{"ha":617,"x_min":26,"x_max":588,"o":"m 267 882 q 242 890 254 882 q 218 908 229 897 q 200 930 207 918 q 193 951 193 942 q 208 1008 193 972 q 245 1079 224 1044 q 292 1139 267 1114 q 338 1164 317 1164 q 364 1152 349 1164 q 393 1125 379 1140 q 416 1093 407 1110 q 425 1068 425 1076 q 407 1022 425 1053 q 363 959 389 990 q 310 905 338 928 q 267 882 283 882 m 579 224 q 585 172 583 200 q 588 115 588 143 q 585 58 588 86 q 579 10 583 31 q 525 0 567 4 q 428 -7 483 -4 q 312 -11 374 -10 q 196 -12 250 -12 q 102 -11 142 -12 q 51 -6 63 -10 q 29 89 32 39 q 26 188 26 139 l 26 704 q 27 745 26 724 q 31 788 28 767 q 38 828 33 810 q 49 856 42 846 l 578 856 q 585 828 583 856 q 588 767 588 801 q 585 700 588 732 q 579 657 583 668 l 286 651 l 283 544 q 328 547 301 546 q 382 547 354 547 q 436 547 410 547 q 482 547 463 547 q 510 540 496 547 q 510 357 528 447 q 485 351 500 351 q 384 348 435 350 q 283 347 333 346 l 283 267 q 304 213 283 221 q 368 204 325 204 q 415 206 386 204 q 475 210 444 207 q 534 216 506 213 q 579 224 563 219 z "},"":{"ha":617,"x_min":26,"x_max":588,"o":"m 379 1154 q 446 1092 413 1126 q 499 1026 479 1058 q 469 957 490 990 q 422 906 447 924 q 391 922 407 910 q 360 948 375 933 q 334 977 346 963 q 314 1000 322 992 q 292 976 306 992 q 263 945 279 961 q 231 917 247 929 q 199 900 214 904 q 151 950 171 921 q 119 1011 131 979 q 140 1049 126 1029 q 172 1090 154 1069 q 211 1128 190 1110 q 250 1160 232 1146 q 313 1164 279 1167 q 379 1154 347 1161 m 579 224 q 585 172 583 200 q 588 115 588 143 q 585 58 588 86 q 579 10 583 31 q 525 0 567 4 q 428 -7 483 -4 q 312 -11 374 -10 q 196 -12 250 -12 q 102 -11 142 -12 q 51 -6 63 -10 q 29 89 32 39 q 26 188 26 139 l 26 704 q 27 745 26 724 q 31 788 28 767 q 38 828 33 810 q 49 856 42 846 l 578 856 q 585 828 583 856 q 588 767 588 801 q 585 700 588 732 q 579 657 583 668 l 286 651 l 283 544 q 328 547 301 546 q 382 547 354 547 q 436 547 410 547 q 482 547 463 547 q 510 540 496 547 q 510 357 528 447 q 485 351 500 351 q 384 348 435 350 q 283 347 333 346 l 283 267 q 304 213 283 221 q 368 204 325 204 q 415 206 386 204 q 475 210 444 207 q 534 216 506 213 q 579 224 563 219 z "},"":{"ha":617,"x_min":26,"x_max":588,"o":"m 411 928 q 339 958 367 928 q 311 1025 311 988 q 340 1092 311 1061 q 411 1122 368 1122 q 483 1092 457 1122 q 508 1025 508 1061 q 483 958 508 988 q 411 928 458 928 m 208 925 q 136 955 164 925 q 108 1022 108 985 q 137 1089 108 1058 q 208 1119 165 1119 q 280 1089 254 1119 q 306 1022 306 1058 q 281 955 306 985 q 208 925 256 925 m 579 224 q 585 172 583 200 q 588 115 588 143 q 585 58 588 86 q 579 10 583 31 q 525 0 567 4 q 428 -7 483 -4 q 312 -11 374 -10 q 196 -12 250 -12 q 102 -11 142 -12 q 51 -6 63 -10 q 29 89 32 39 q 26 188 26 139 l 26 704 q 27 745 26 724 q 31 788 28 767 q 38 828 33 810 q 49 856 42 846 l 578 856 q 585 828 583 856 q 588 767 588 801 q 585 700 588 732 q 579 657 583 668 l 286 651 l 283 544 q 328 547 301 546 q 382 547 354 547 q 436 547 410 547 q 482 547 463 547 q 510 540 496 547 q 510 357 528 447 q 485 351 500 351 q 384 348 435 350 q 283 347 333 346 l 283 267 q 304 213 283 221 q 368 204 325 204 q 415 206 386 204 q 475 210 444 207 q 534 216 506 213 q 579 224 563 219 z "},"":{"ha":453,"x_min":25,"x_max":432,"o":"m 269 882 q 226 905 253 882 q 173 959 199 928 q 129 1022 147 990 q 111 1068 111 1053 q 121 1093 111 1076 q 144 1125 131 1110 q 172 1152 157 1140 q 199 1164 188 1164 q 244 1139 219 1164 q 291 1079 269 1114 q 328 1008 313 1044 q 343 951 343 972 q 336 930 343 942 q 318 908 329 918 q 294 890 307 897 q 269 882 282 882 m 424 174 q 430 138 428 158 q 432 94 432 117 q 430 52 432 72 q 424 17 428 32 q 390 8 411 11 q 342 2 368 4 q 288 0 315 0 q 238 0 261 0 l 193 0 q 92 3 135 0 q 32 25 49 7 q 28 56 29 38 q 28 93 28 74 q 29 132 28 113 q 32 165 31 151 q 64 178 42 174 q 110 182 86 182 l 107 690 l 86 690 q 74 690 82 690 q 58 691 67 690 q 42 692 50 692 q 32 694 35 693 q 25 769 25 726 q 32 846 25 811 q 105 858 56 856 q 204 860 154 860 q 264 859 232 860 q 326 857 296 858 q 381 852 356 856 q 419 843 406 849 q 419 701 432 768 q 388 699 404 701 q 356 700 371 697 l 356 178 q 369 178 360 178 q 390 177 379 178 q 411 176 401 176 q 424 174 421 175 z "},"":{"ha":453,"x_min":25,"x_max":432,"o":"m 185 882 q 160 890 172 882 q 136 908 147 897 q 118 930 125 918 q 111 951 111 942 q 126 1008 111 972 q 163 1079 142 1044 q 210 1139 185 1114 q 256 1164 235 1164 q 282 1152 267 1164 q 311 1125 297 1140 q 334 1093 325 1110 q 343 1068 343 1076 q 325 1022 343 1053 q 281 959 307 990 q 228 905 256 928 q 185 882 201 882 m 424 174 q 430 138 428 158 q 432 94 432 117 q 430 52 432 72 q 424 17 428 32 q 390 8 411 11 q 342 2 368 4 q 288 0 315 0 q 238 0 261 0 l 193 0 q 92 3 135 0 q 32 25 49 7 q 28 56 29 38 q 28 93 28 74 q 29 132 28 113 q 32 165 31 151 q 64 178 42 174 q 110 182 86 182 l 107 690 l 86 690 q 74 690 82 690 q 58 691 67 690 q 42 692 50 692 q 32 694 35 693 q 25 769 25 726 q 32 846 25 811 q 105 858 56 856 q 204 860 154 860 q 264 859 232 860 q 326 857 296 858 q 381 852 356 856 q 419 843 406 849 q 419 701 432 768 q 388 699 404 701 q 356 700 371 697 l 356 178 q 369 178 360 178 q 390 177 379 178 q 411 176 401 176 q 424 174 421 175 z "},"":{"ha":453,"x_min":25,"x_max":432,"o":"m 296 1154 q 363 1092 329 1126 q 415 1026 396 1058 q 385 957 407 990 q 339 906 364 924 q 308 922 324 910 q 277 948 292 933 q 251 977 263 963 q 231 1000 239 992 q 209 976 222 992 q 180 945 196 961 q 147 917 164 929 q 115 900 131 904 q 67 950 88 921 q 36 1011 47 979 q 57 1049 43 1029 q 89 1090 71 1069 q 128 1128 107 1110 q 167 1160 149 1146 q 230 1164 196 1167 q 296 1154 264 1161 m 424 174 q 430 138 428 158 q 432 94 432 117 q 430 52 432 72 q 424 17 428 32 q 390 8 411 11 q 342 2 368 4 q 288 0 315 0 q 238 0 261 0 l 193 0 q 92 3 135 0 q 32 25 49 7 q 28 56 29 38 q 28 93 28 74 q 29 132 28 113 q 32 165 31 151 q 64 178 42 174 q 110 182 86 182 l 107 690 l 86 690 q 74 690 82 690 q 58 691 67 690 q 42 692 50 692 q 32 694 35 693 q 25 769 25 726 q 32 846 25 811 q 105 858 56 856 q 204 860 154 860 q 264 859 232 860 q 326 857 296 858 q 381 852 356 856 q 419 843 406 849 q 419 701 432 768 q 388 699 404 701 q 356 700 371 697 l 356 178 q 369 178 360 178 q 390 177 379 178 q 411 176 401 176 q 424 174 421 175 z "},"":{"ha":453,"x_min":25,"x_max":432,"o":"m 329 928 q 257 958 285 928 q 229 1025 229 988 q 258 1092 229 1061 q 329 1122 286 1122 q 401 1092 375 1122 q 426 1025 426 1061 q 401 958 426 988 q 329 928 376 928 m 126 925 q 54 955 82 925 q 26 1022 26 985 q 55 1089 26 1058 q 126 1119 83 1119 q 198 1089 172 1119 q 224 1022 224 1058 q 199 955 224 985 q 126 925 174 925 m 424 174 q 430 138 428 158 q 432 94 432 117 q 430 52 432 72 q 424 17 428 32 q 390 8 411 11 q 342 2 368 4 q 288 0 315 0 q 238 0 261 0 l 193 0 q 92 3 135 0 q 32 25 49 7 q 28 56 29 38 q 28 93 28 74 q 29 132 28 113 q 32 165 31 151 q 64 178 42 174 q 110 182 86 182 l 107 690 l 86 690 q 74 690 82 690 q 58 691 67 690 q 42 692 50 692 q 32 694 35 693 q 25 769 25 726 q 32 846 25 811 q 105 858 56 856 q 204 860 154 860 q 264 859 232 860 q 326 857 296 858 q 381 852 356 856 q 419 843 406 849 q 419 701 432 768 q 388 699 404 701 q 356 700 371 697 l 356 178 q 369 178 360 178 q 390 177 379 178 q 411 176 401 176 q 424 174 421 175 z "},"":{"ha":636,"x_min":18,"x_max":653,"o":"m 542 774 q 531 746 539 758 q 511 722 522 733 q 615 532 576 639 q 653 325 653 425 q 574 68 653 150 q 313 -14 496 -14 q 193 4 247 -14 q 100 57 139 22 q 40 143 61 92 q 18 261 18 194 q 39 363 18 315 q 95 448 60 411 q 178 506 131 485 q 281 526 226 526 q 358 518 326 526 q 408 504 389 510 q 383 556 400 531 q 347 603 365 582 q 316 576 336 592 q 276 553 296 561 q 222 587 244 564 q 179 633 199 610 q 192 670 182 654 q 218 701 203 686 q 182 723 199 711 q 154 754 165 735 q 197 823 175 789 q 240 892 219 857 q 278 883 258 890 q 317 867 297 876 q 355 847 336 857 q 389 831 374 838 l 393 831 q 417 851 404 840 q 446 869 431 863 l 542 774 m 317 204 q 362 222 342 204 q 382 269 382 240 q 362 310 382 297 q 314 324 342 324 q 266 306 286 324 q 246 263 246 289 q 265 221 246 238 q 317 204 285 204 z "},"":{"ha":786,"x_min":28,"x_max":756,"o":"m 242 900 q 199 962 218 929 q 169 1031 179 994 q 192 1078 178 1054 q 225 1124 206 1103 q 268 1158 244 1144 q 318 1171 292 1171 q 357 1160 339 1171 q 393 1135 375 1149 q 431 1111 411 1122 q 474 1100 450 1100 q 491 1107 483 1100 q 505 1123 499 1114 q 516 1142 511 1132 q 525 1160 521 1153 q 578 1121 554 1150 q 618 1065 603 1092 q 597 1006 611 1036 q 563 952 583 976 q 515 913 542 928 q 456 897 488 897 q 418 908 435 897 q 385 933 401 919 q 351 957 368 946 q 315 968 335 968 q 293 960 303 968 q 275 940 283 951 q 258 918 267 929 q 242 900 250 907 m 750 0 q 699 -9 731 -6 q 631 -13 667 -12 q 561 -11 596 -14 q 501 0 526 -8 q 431 110 463 51 q 372 229 400 168 q 317 351 343 290 q 258 468 290 413 q 262 406 260 438 q 264 344 264 375 q 265 265 264 313 q 265 169 265 218 q 261 75 264 121 q 251 0 258 29 q 210 -8 238 -4 q 151 -12 182 -11 q 88 -11 119 -14 q 35 0 57 -8 q 29 40 31 19 q 28 81 28 61 l 28 804 q 30 830 28 817 q 38 854 32 843 q 90 862 58 860 q 154 864 121 864 q 220 861 188 864 q 278 854 253 858 q 306 805 288 842 q 349 721 325 768 q 400 622 374 674 q 449 526 426 569 q 489 455 472 483 q 510 425 506 426 l 510 774 q 511 814 510 793 q 519 854 513 835 q 572 864 540 861 q 638 866 604 867 q 701 863 671 865 q 750 854 732 860 q 756 806 756 833 l 756 93 q 755 47 756 69 q 750 0 754 24 z "},"":{"ha":794,"x_min":13,"x_max":775,"o":"m 396 -35 q 222 -2 294 -35 q 102 90 149 31 q 34 231 56 149 q 13 413 13 314 q 32 608 13 521 q 97 758 51 696 q 215 853 142 819 q 397 888 289 888 l 424 888 q 380 921 404 897 q 333 973 356 944 q 297 1028 311 1001 q 282 1068 282 1054 q 292 1093 282 1076 q 315 1125 301 1110 q 343 1152 328 1140 q 369 1164 358 1164 q 415 1139 390 1164 q 462 1079 440 1114 q 499 1008 483 1044 q 514 951 514 972 q 495 913 514 935 q 454 885 476 892 q 604 833 543 875 q 703 728 665 792 q 758 583 742 665 q 775 407 775 500 q 751 240 775 319 q 680 99 728 160 q 561 1 632 38 q 396 -35 490 -35 m 396 197 q 465 219 439 197 q 504 275 490 242 q 522 347 518 308 q 526 417 526 385 q 524 490 526 450 q 508 563 521 529 q 469 621 494 597 q 397 644 443 644 q 328 620 356 644 q 286 560 301 596 q 265 484 271 524 q 258 413 258 444 q 264 342 258 379 q 284 272 269 304 q 326 219 299 240 q 396 197 353 197 z "},"":{"ha":794,"x_min":13,"x_max":775,"o":"m 396 -35 q 222 -2 294 -35 q 102 90 149 31 q 34 231 56 149 q 13 413 13 314 q 29 596 13 513 q 85 740 46 679 q 186 839 124 801 q 340 885 249 876 q 300 914 318 892 q 282 951 282 936 q 297 1008 282 972 q 334 1079 313 1044 q 381 1139 356 1114 q 426 1164 406 1164 q 453 1152 438 1164 q 482 1125 468 1140 q 505 1093 496 1110 q 514 1068 514 1076 q 499 1028 514 1054 q 463 974 485 1001 q 417 922 442 946 q 374 888 393 897 l 397 888 q 575 850 503 888 q 692 748 647 813 q 756 595 736 683 q 775 407 775 507 q 751 240 775 319 q 680 99 728 160 q 561 1 632 38 q 396 -35 490 -35 m 396 197 q 465 219 439 197 q 504 275 490 242 q 522 347 518 308 q 526 417 526 385 q 524 490 526 450 q 508 563 521 529 q 469 621 494 597 q 397 644 443 644 q 328 620 356 644 q 286 560 301 596 q 265 484 271 524 q 258 413 258 444 q 264 342 258 379 q 284 272 269 304 q 326 219 299 240 q 396 197 353 197 z "},"":{"ha":794,"x_min":13,"x_max":775,"o":"m 468 1154 q 535 1092 501 1126 q 588 1026 568 1058 q 558 957 579 990 q 511 906 536 924 q 480 922 496 910 q 449 948 464 933 q 423 977 435 963 q 403 1000 411 992 q 381 976 394 992 q 352 945 368 961 q 319 917 336 929 q 288 900 303 904 q 240 950 260 921 q 208 1011 219 979 q 229 1049 215 1029 q 261 1090 243 1069 q 300 1128 279 1110 q 339 1160 321 1146 q 402 1164 368 1167 q 468 1154 436 1161 m 396 -35 q 222 -2 294 -35 q 102 90 149 31 q 34 231 56 149 q 13 413 13 314 q 32 608 13 521 q 97 758 51 696 q 215 853 142 819 q 397 888 289 888 q 575 850 503 888 q 692 748 647 813 q 756 595 736 683 q 775 407 775 507 q 751 240 775 319 q 680 99 728 160 q 561 1 632 38 q 396 -35 490 -35 m 396 197 q 465 219 439 197 q 504 275 490 242 q 522 347 518 308 q 526 417 526 385 q 524 490 526 450 q 508 563 521 529 q 469 621 494 597 q 397 644 443 644 q 328 620 356 644 q 286 560 301 596 q 265 484 271 524 q 258 413 258 444 q 264 342 258 379 q 284 272 269 304 q 326 219 299 240 q 396 197 353 197 z "},"":{"ha":794,"x_min":13,"x_max":775,"o":"m 246 900 q 203 962 222 929 q 174 1031 183 994 q 196 1078 182 1054 q 229 1124 210 1103 q 272 1158 249 1144 q 322 1171 296 1171 q 361 1160 343 1171 q 397 1135 379 1149 q 435 1111 415 1122 q 478 1100 454 1100 q 495 1107 488 1100 q 509 1123 503 1114 q 520 1142 515 1132 q 529 1160 525 1153 q 583 1121 558 1150 q 622 1065 607 1092 q 601 1006 615 1036 q 567 952 588 976 q 519 913 546 928 q 460 897 492 897 q 422 908 439 897 q 389 933 406 919 q 356 957 372 946 q 319 968 339 968 q 297 960 307 968 q 279 940 288 951 q 263 918 271 929 q 246 900 254 907 m 396 -35 q 222 -2 294 -35 q 102 90 149 31 q 34 231 56 149 q 13 413 13 314 q 32 608 13 521 q 97 758 51 696 q 215 853 142 819 q 397 888 289 888 q 575 850 503 888 q 692 748 647 813 q 756 595 736 683 q 775 407 775 507 q 751 240 775 319 q 680 99 728 160 q 561 1 632 38 q 396 -35 490 -35 m 396 197 q 465 219 439 197 q 504 275 490 242 q 522 347 518 308 q 526 417 526 385 q 524 490 526 450 q 508 563 521 529 q 469 621 494 597 q 397 644 443 644 q 328 620 356 644 q 286 560 301 596 q 265 484 271 524 q 258 413 258 444 q 264 342 258 379 q 284 272 269 304 q 326 219 299 240 q 396 197 353 197 z "},"":{"ha":794,"x_min":13,"x_max":775,"o":"m 500 928 q 428 958 456 928 q 400 1025 400 988 q 428 1092 400 1061 q 500 1122 457 1122 q 572 1092 546 1122 q 597 1025 597 1061 q 572 958 597 988 q 500 928 547 928 m 297 925 q 225 955 253 925 q 197 1022 197 985 q 226 1089 197 1058 q 297 1119 254 1119 q 369 1089 343 1119 q 394 1022 394 1058 q 369 955 394 985 q 297 925 344 925 m 396 -35 q 222 -2 294 -35 q 102 90 149 31 q 34 231 56 149 q 13 413 13 314 q 32 608 13 521 q 97 758 51 696 q 215 853 142 819 q 397 888 289 888 q 575 850 503 888 q 692 748 647 813 q 756 595 736 683 q 775 407 775 507 q 751 240 775 319 q 680 99 728 160 q 561 1 632 38 q 396 -35 490 -35 m 396 197 q 465 219 439 197 q 504 275 490 242 q 522 347 518 308 q 526 417 526 385 q 524 490 526 450 q 508 563 521 529 q 469 621 494 597 q 397 644 443 644 q 328 620 356 644 q 286 560 301 596 q 265 484 271 524 q 258 413 258 444 q 264 342 258 379 q 284 272 269 304 q 326 219 299 240 q 396 197 353 197 z "},"":{"ha":632,"x_min":35,"x_max":576,"o":"m 310 544 q 267 556 286 544 q 234 587 247 568 q 214 628 221 606 q 207 672 207 651 q 214 724 207 699 q 234 769 221 750 q 269 801 247 789 q 319 814 290 814 q 397 776 369 814 q 425 692 425 738 q 418 640 425 667 q 397 592 411 614 q 362 558 383 571 q 310 544 340 544 m 558 501 q 575 402 576 457 q 561 294 574 347 q 536 288 551 290 q 505 283 521 285 q 474 279 489 281 q 449 278 458 278 q 294 280 371 278 q 140 283 218 282 q 119 284 133 283 q 91 287 106 285 q 64 292 76 289 q 46 299 51 294 q 38 405 35 347 q 56 501 40 463 q 108 513 76 510 q 174 517 140 517 q 237 517 207 518 q 285 517 267 517 q 320 517 303 517 q 357 518 338 518 q 403 518 376 518 q 458 517 429 518 q 513 513 486 517 q 558 501 539 510 m 310 3 q 263 14 281 3 q 234 42 244 25 q 219 83 224 60 q 215 132 215 107 q 222 175 215 151 q 240 218 228 199 q 271 251 253 238 q 313 264 289 264 q 358 253 338 264 q 394 225 379 243 q 416 184 408 207 q 424 138 424 161 q 415 92 424 115 q 392 48 407 68 q 356 15 376 28 q 310 3 335 3 z "},"":{"ha":794,"x_min":13,"x_max":775,"o":"m 396 -35 l 378 -35 q 328 -110 351 -81 q 200 -85 258 -107 q 88 -8 142 -64 q 100 32 93 11 q 114 76 107 53 q 37 222 61 136 q 13 413 13 307 q 32 608 13 521 q 97 758 51 696 q 215 853 142 819 q 397 888 289 888 q 427 888 413 888 q 457 885 442 888 q 536 982 499 951 q 740 867 654 953 q 723 811 733 844 q 699 736 713 778 q 757 587 739 671 q 775 407 775 503 q 751 240 775 319 q 680 99 728 160 q 561 1 632 38 q 396 -35 490 -35 m 396 197 q 465 219 439 197 q 504 275 490 242 q 522 347 518 308 q 526 417 526 385 q 524 490 526 450 q 508 563 521 529 q 469 621 494 597 q 397 644 443 644 q 328 620 356 644 q 286 560 301 596 q 265 484 271 524 q 258 413 258 444 q 264 342 258 379 q 284 272 269 304 q 326 219 299 240 q 396 197 353 197 z "},"":{"ha":782,"x_min":25,"x_max":744,"o":"m 433 882 q 390 905 417 882 q 337 959 363 928 q 293 1022 311 990 q 275 1068 275 1053 q 285 1093 275 1076 q 308 1125 294 1110 q 336 1152 321 1140 q 363 1164 351 1164 q 408 1139 383 1164 q 455 1079 433 1114 q 492 1008 476 1044 q 507 951 507 972 q 500 930 507 942 q 482 908 493 918 q 458 890 471 897 q 433 882 446 882 m 507 851 q 564 863 531 860 q 632 867 597 867 q 739 851 697 867 q 743 824 742 838 q 744 794 744 810 l 744 350 q 659 82 744 169 q 383 -6 574 -6 q 119 74 213 -6 q 25 318 25 154 l 25 792 q 26 821 25 806 q 32 851 28 836 q 85 864 53 860 q 151 868 117 868 q 219 864 186 868 q 274 851 251 860 q 276 822 276 838 q 276 789 276 806 l 276 328 q 287 282 276 301 q 313 249 297 263 q 349 228 329 235 q 389 221 369 221 q 439 236 418 221 q 473 276 460 251 q 493 332 486 301 q 500 393 500 363 l 500 793 q 507 851 500 817 z "},"":{"ha":782,"x_min":25,"x_max":744,"o":"m 349 882 q 324 890 336 882 q 300 908 311 897 q 282 930 289 918 q 275 951 275 942 q 290 1008 275 972 q 327 1079 306 1044 q 374 1139 349 1114 q 419 1164 399 1164 q 446 1152 431 1164 q 475 1125 461 1140 q 498 1093 489 1110 q 507 1068 507 1076 q 489 1022 507 1053 q 445 959 471 990 q 392 905 419 928 q 349 882 365 882 m 507 851 q 564 863 531 860 q 632 867 597 867 q 739 851 697 867 q 743 824 742 838 q 744 794 744 810 l 744 350 q 659 82 744 169 q 383 -6 574 -6 q 119 74 213 -6 q 25 318 25 154 l 25 792 q 26 821 25 806 q 32 851 28 836 q 85 864 53 860 q 151 868 117 868 q 219 864 186 868 q 274 851 251 860 q 276 822 276 838 q 276 789 276 806 l 276 328 q 287 282 276 301 q 313 249 297 263 q 349 228 329 235 q 389 221 369 221 q 439 236 418 221 q 473 276 460 251 q 493 332 486 301 q 500 393 500 363 l 500 793 q 507 851 500 817 z "},"":{"ha":782,"x_min":25,"x_max":744,"o":"m 461 1154 q 528 1092 494 1126 q 581 1026 561 1058 q 551 957 572 990 q 504 906 529 924 q 473 922 489 910 q 442 948 457 933 q 416 977 428 963 q 396 1000 404 992 q 374 976 388 992 q 345 945 361 961 q 313 917 329 929 q 281 900 296 904 q 233 950 253 921 q 201 1011 213 979 q 222 1049 208 1029 q 254 1090 236 1069 q 293 1128 272 1110 q 332 1160 314 1146 q 395 1164 361 1167 q 461 1154 429 1161 m 507 851 q 564 863 531 860 q 632 867 597 867 q 739 851 697 867 q 743 824 742 838 q 744 794 744 810 l 744 350 q 659 82 744 169 q 383 -6 574 -6 q 119 74 213 -6 q 25 318 25 154 l 25 792 q 26 821 25 806 q 32 851 28 836 q 85 864 53 860 q 151 868 117 868 q 219 864 186 868 q 274 851 251 860 q 276 822 276 838 q 276 789 276 806 l 276 328 q 287 282 276 301 q 313 249 297 263 q 349 228 329 235 q 389 221 369 221 q 439 236 418 221 q 473 276 460 251 q 493 332 486 301 q 500 393 500 363 l 500 793 q 507 851 500 817 z "},"":{"ha":782,"x_min":25,"x_max":744,"o":"m 494 928 q 422 958 450 928 q 394 1025 394 988 q 423 1092 394 1061 q 494 1122 451 1122 q 566 1092 540 1122 q 592 1025 592 1061 q 567 958 592 988 q 494 928 542 928 m 292 925 q 219 955 247 925 q 192 1022 192 985 q 220 1089 192 1058 q 292 1119 249 1119 q 363 1089 338 1119 q 389 1022 389 1058 q 364 955 389 985 q 292 925 339 925 m 507 851 q 564 863 531 860 q 632 867 597 867 q 739 851 697 867 q 743 824 742 838 q 744 794 744 810 l 744 350 q 659 82 744 169 q 383 -6 574 -6 q 119 74 213 -6 q 25 318 25 154 l 25 792 q 26 821 25 806 q 32 851 28 836 q 85 864 53 860 q 151 868 117 868 q 219 864 186 868 q 274 851 251 860 q 276 822 276 838 q 276 789 276 806 l 276 328 q 287 282 276 301 q 313 249 297 263 q 349 228 329 235 q 389 221 369 221 q 439 236 418 221 q 473 276 460 251 q 493 332 486 301 q 500 393 500 363 l 500 793 q 507 851 500 817 z "},"":{"ha":676,"x_min":-4,"x_max":681,"o":"m 296 882 q 271 890 283 882 q 247 908 258 897 q 229 930 236 918 q 222 951 222 942 q 238 1008 222 972 q 274 1079 253 1044 q 321 1139 296 1114 q 367 1164 346 1164 q 393 1152 378 1164 q 422 1125 408 1140 q 445 1093 436 1110 q 454 1068 454 1076 q 436 1022 454 1053 q 392 959 418 990 q 340 905 367 928 q 296 882 313 882 m 474 6 q 344 -12 414 -14 q 221 6 275 -10 l 221 281 q 206 347 221 303 q 169 447 192 392 q 120 565 147 503 q 68 683 93 626 q 23 785 43 739 q -4 856 3 832 q 119 868 53 867 q 253 856 186 869 l 347 553 l 446 856 q 500 865 469 863 q 563 867 531 868 q 625 864 594 867 q 681 856 656 861 q 665 796 681 838 q 627 699 650 754 q 577 581 604 643 q 527 459 550 518 q 489 351 504 400 q 474 274 474 301 l 474 6 z "},"":{"ha":594,"x_min":22,"x_max":579,"o":"m 240 0 q 127 -8 185 -8 q 29 0 69 -7 q 25 37 26 13 q 23 87 24 61 q 22 135 22 113 q 22 169 22 158 l 22 724 q 23 753 22 733 q 24 796 24 774 q 27 838 25 818 q 32 867 29 857 q 83 876 54 872 q 140 882 111 881 q 197 881 169 883 q 243 872 224 879 q 248 851 246 865 q 251 819 250 836 q 253 785 253 801 q 254 757 254 768 l 254 726 l 283 726 q 506 660 432 726 q 579 440 579 593 q 556 303 579 360 q 489 209 532 246 q 386 154 446 172 q 254 135 326 136 q 252 106 253 125 q 249 66 251 86 q 245 28 247 46 q 240 0 243 10 m 254 343 q 304 349 282 338 q 340 387 331 363 q 349 433 349 411 q 340 485 349 464 q 290 507 331 507 q 273 506 282 507 q 254 503 264 504 l 254 343 z "},"":{"ha":676,"x_min":-4,"x_max":681,"o":"m 442 928 q 369 958 397 928 q 342 1025 342 988 q 370 1092 342 1061 q 442 1122 399 1122 q 513 1092 488 1122 q 539 1025 539 1061 q 514 958 539 988 q 442 928 489 928 m 239 925 q 167 955 194 925 q 139 1022 139 985 q 167 1089 139 1058 q 239 1119 196 1119 q 310 1089 285 1119 q 336 1022 336 1058 q 311 955 336 985 q 239 925 286 925 m 474 6 q 344 -12 414 -14 q 221 6 275 -10 l 221 281 q 206 347 221 303 q 169 447 192 392 q 120 565 147 503 q 68 683 93 626 q 23 785 43 739 q -4 856 3 832 q 119 868 53 867 q 253 856 186 869 l 347 553 l 446 856 q 500 865 469 863 q 563 867 531 868 q 625 864 594 867 q 681 856 656 861 q 665 796 681 838 q 627 699 650 754 q 577 581 604 643 q 527 459 550 518 q 489 351 504 400 q 474 274 474 301 l 474 6 z "},"":{"ha":763,"x_min":-40,"x_max":743,"o":"m 38 0 q 29 73 26 33 q 29 150 32 113 l 26 389 q -26 394 -3 389 q -37 443 -33 417 q -40 497 -40 469 q -37 550 -40 524 q -26 599 -33 576 q 1 606 -12 604 q 31 607 15 607 l 31 690 q 31 776 31 732 q 38 858 31 821 q 96 869 63 865 q 167 876 129 874 q 243 878 204 878 q 319 879 282 879 q 492 846 414 879 q 626 754 569 813 q 713 617 682 696 q 743 450 743 539 q 713 274 743 357 q 628 128 683 190 q 494 28 574 65 q 315 -8 415 -8 q 177 -9 246 -8 q 38 0 108 -10 m 288 199 q 378 221 342 199 q 438 279 415 243 q 471 361 461 315 q 481 454 481 407 q 473 526 481 490 q 448 592 465 563 q 402 639 431 621 q 332 657 374 657 l 310 657 q 292 656 301 657 q 282 644 282 656 l 283 610 l 343 610 q 356 609 350 610 q 368 607 361 608 q 382 500 382 558 q 368 401 382 442 q 314 392 342 392 q 299 391 307 392 q 282 390 292 390 l 282 206 q 288 199 285 199 z "},"":{"ha":763,"x_min":-40,"x_max":743,"o":"m 38 0 q 29 73 26 33 q 29 150 32 113 l 26 389 q -26 394 -3 389 q -37 443 -33 417 q -40 497 -40 469 q -37 550 -40 524 q -26 599 -33 576 q 1 606 -12 604 q 31 607 15 607 l 31 690 q 31 776 31 732 q 38 858 31 821 q 96 869 63 865 q 167 876 129 874 q 243 878 204 878 q 319 879 282 879 q 492 846 414 879 q 626 754 569 813 q 713 617 682 696 q 743 450 743 539 q 713 274 743 357 q 628 128 683 190 q 494 28 574 65 q 315 -8 415 -8 q 177 -9 246 -8 q 38 0 108 -10 m 288 199 q 378 221 342 199 q 438 279 415 243 q 471 361 461 315 q 481 454 481 407 q 473 526 481 490 q 448 592 465 563 q 402 639 431 621 q 332 657 374 657 l 310 657 q 292 656 301 657 q 282 644 282 656 l 283 610 l 343 610 q 356 609 350 610 q 368 607 361 608 q 382 500 382 558 q 368 401 382 442 q 314 392 342 392 q 299 391 307 392 q 282 390 292 390 l 282 206 q 288 199 285 199 z "},"":{"ha":453,"x_min":25,"x_max":432,"o":"m 424 174 q 430 138 428 158 q 432 94 432 117 q 430 52 432 72 q 424 17 428 32 q 390 8 411 11 q 342 2 368 4 q 288 0 315 0 q 238 0 261 0 l 193 0 q 92 3 135 0 q 32 25 49 7 q 28 56 29 38 q 28 93 28 74 q 29 132 28 113 q 32 165 31 151 q 64 178 42 174 q 110 182 86 182 l 107 690 l 86 690 q 74 690 82 690 q 58 691 67 690 q 42 692 50 692 q 32 694 35 693 q 25 769 25 726 q 32 846 25 811 q 105 858 56 856 q 204 860 154 860 q 264 859 232 860 q 326 857 296 858 q 381 852 356 856 q 419 843 406 849 q 419 701 432 768 q 388 699 404 701 q 356 700 371 697 l 356 178 q 369 178 360 178 q 390 177 379 178 q 411 176 401 176 q 424 174 421 175 z "},"":{"ha":565,"x_min":-58,"x_max":536,"o":"m 522 228 q 533 172 529 203 q 536 110 536 142 q 533 49 536 79 q 522 -1 529 19 l 383 -1 q 319 -1 368 -1 q 214 -1 269 -1 q 109 0 158 0 q 44 0 60 0 l 42 72 l 39 276 q 0 271 22 271 q -40 365 -24 310 q -58 467 -57 419 q -15 488 -40 481 q 8 494 -6 490 q 42 506 22 499 l 42 817 q 42 837 42 828 q 44 856 43 846 q 162 867 101 867 q 281 856 222 867 q 285 840 283 849 q 286 825 286 832 l 289 581 q 319 589 304 585 q 349 596 333 593 q 391 497 375 551 q 407 399 407 442 q 361 375 386 383 q 331 365 350 371 q 286 351 311 358 l 286 238 q 339 246 304 244 q 411 245 374 247 q 481 238 449 243 q 522 228 513 233 z "},"":{"ha":565,"x_min":-58,"x_max":536,"o":"m 522 228 q 533 172 529 203 q 536 110 536 142 q 533 49 536 79 q 522 -1 529 19 l 383 -1 q 319 -1 368 -1 q 214 -1 269 -1 q 109 0 158 0 q 44 0 60 0 l 42 72 l 39 276 q 0 271 22 271 q -40 365 -24 310 q -58 467 -57 419 q -15 488 -40 481 q 8 494 -6 490 q 42 506 22 499 l 42 817 q 42 837 42 828 q 44 856 43 846 q 162 867 101 867 q 281 856 222 867 q 285 840 283 849 q 286 825 286 832 l 289 581 q 319 589 304 585 q 349 596 333 593 q 391 497 375 551 q 407 399 407 442 q 361 375 386 383 q 331 365 350 371 q 286 351 311 358 l 286 238 q 339 246 304 244 q 411 245 374 247 q 481 238 449 243 q 522 228 513 233 z "},"":{"ha":1133,"x_min":13,"x_max":1104,"o":"m 396 -35 q 222 -2 294 -35 q 102 90 149 31 q 34 231 56 149 q 13 413 13 314 q 32 608 13 521 q 97 758 51 696 q 215 853 142 819 q 397 888 289 888 q 565 856 493 888 l 1094 856 q 1102 828 1100 856 q 1104 767 1104 801 q 1102 700 1104 732 q 1096 657 1100 668 l 803 651 l 800 544 q 844 547 818 546 q 899 547 871 547 q 953 547 926 547 q 999 547 979 547 q 1026 540 1013 547 q 1026 357 1044 447 q 1001 351 1017 351 q 901 348 951 350 q 800 347 850 346 l 800 267 q 821 213 800 221 q 885 204 842 204 q 932 206 903 204 q 992 210 961 207 q 1051 216 1022 213 q 1096 224 1079 219 q 1102 172 1100 200 q 1104 115 1104 143 q 1102 58 1104 86 q 1096 10 1100 31 q 1042 0 1083 4 q 947 -7 1001 -4 q 831 -11 892 -10 q 715 -12 769 -12 q 619 -11 660 -12 q 568 -6 579 -10 l 564 3 q 486 -25 528 -15 q 396 -35 444 -35 m 396 197 q 465 219 439 197 q 504 275 490 242 q 522 347 518 308 q 526 417 526 385 q 524 490 526 450 q 508 563 521 529 q 469 621 494 597 q 397 644 443 644 q 328 620 356 644 q 286 560 301 596 q 265 484 271 524 q 258 413 258 444 q 264 342 258 379 q 284 272 269 304 q 326 219 299 240 q 396 197 353 197 z "},"":{"ha":1133,"x_min":13,"x_max":1104,"o":"m 396 -35 q 222 -2 294 -35 q 102 90 149 31 q 34 231 56 149 q 13 413 13 314 q 32 608 13 521 q 97 758 51 696 q 215 853 142 819 q 397 888 289 888 q 565 856 493 888 l 1094 856 q 1102 828 1100 856 q 1104 767 1104 801 q 1102 700 1104 732 q 1096 657 1100 668 l 803 651 l 800 544 q 844 547 818 546 q 899 547 871 547 q 953 547 926 547 q 999 547 979 547 q 1026 540 1013 547 q 1026 357 1044 447 q 1001 351 1017 351 q 901 348 951 350 q 800 347 850 346 l 800 267 q 821 213 800 221 q 885 204 842 204 q 932 206 903 204 q 992 210 961 207 q 1051 216 1022 213 q 1096 224 1079 219 q 1102 172 1100 200 q 1104 115 1104 143 q 1102 58 1104 86 q 1096 10 1100 31 q 1042 0 1083 4 q 945 -7 1000 -4 q 828 -11 890 -10 q 713 -12 767 -12 q 619 -11 658 -12 q 568 -6 579 -10 l 564 3 q 486 -25 528 -15 q 396 -35 444 -35 m 396 197 q 465 219 439 197 q 504 275 490 242 q 522 347 518 308 q 526 417 526 385 q 524 490 526 450 q 508 563 521 529 q 469 621 494 597 q 397 644 443 644 q 328 620 356 644 q 286 560 301 596 q 265 484 271 524 q 258 413 258 444 q 264 342 258 379 q 284 272 269 304 q 326 219 299 240 q 396 197 353 197 z "},"":{"ha":575,"x_min":21,"x_max":549,"o":"m 358 914 q 292 904 326 907 q 229 908 258 901 q 190 940 211 922 q 151 978 169 958 q 119 1019 133 999 q 99 1057 106 1039 q 130 1118 110 1089 q 178 1168 150 1147 q 210 1151 193 1164 q 242 1124 226 1139 q 272 1092 258 1108 q 293 1068 285 1076 q 313 1091 301 1076 q 340 1120 325 1106 q 370 1147 354 1135 q 401 1163 386 1158 q 448 1111 426 1144 q 478 1042 469 1078 q 425 976 458 1010 q 358 914 392 942 m 31 -21 q 23 28 25 0 q 21 85 21 56 q 23 144 21 115 q 31 196 25 174 q 58 195 33 196 q 113 194 83 194 q 168 194 143 194 q 196 194 193 194 q 221 196 207 194 q 247 201 235 197 q 269 214 260 206 q 278 238 278 222 q 260 290 278 264 q 215 345 242 317 q 156 406 188 374 q 98 474 125 438 q 53 551 71 510 q 35 642 35 593 q 55 741 35 699 q 110 811 75 783 q 191 853 144 839 q 290 867 238 867 q 328 867 293 867 q 406 866 364 867 q 484 865 449 865 q 522 864 519 864 q 530 813 528 840 q 532 756 532 785 q 529 701 532 728 q 522 651 526 674 q 489 652 518 651 q 426 653 460 653 q 365 654 393 654 q 336 654 338 654 q 322 653 331 654 q 306 650 314 653 q 293 640 299 647 q 288 621 288 633 q 307 573 288 599 q 356 519 326 547 q 418 458 385 490 q 481 388 451 425 q 529 308 510 350 q 549 218 549 265 q 527 116 549 161 q 469 40 506 71 q 385 -8 433 8 q 282 -24 336 -24 q 260 -24 279 -24 q 214 -24 240 -24 q 156 -23 188 -24 q 99 -22 125 -22 q 53 -22 72 -22 q 31 -21 33 -21 z "},"":{"ha":575,"x_min":21,"x_max":549,"o":"m 358 914 q 292 904 326 907 q 229 908 258 901 q 190 940 211 922 q 151 978 169 958 q 119 1019 133 999 q 99 1057 106 1039 q 130 1118 110 1089 q 178 1168 150 1147 q 210 1151 193 1164 q 242 1124 226 1139 q 272 1092 258 1108 q 293 1068 285 1076 q 313 1091 301 1076 q 340 1120 325 1106 q 370 1147 354 1135 q 401 1163 386 1158 q 448 1111 426 1144 q 478 1042 469 1078 q 425 976 458 1010 q 358 914 392 942 m 31 -21 q 23 28 25 0 q 21 85 21 56 q 23 144 21 115 q 31 196 25 174 q 58 195 33 196 q 113 194 83 194 q 168 194 143 194 q 196 194 193 194 q 221 196 207 194 q 247 201 235 197 q 269 214 260 206 q 278 238 278 222 q 260 290 278 264 q 215 345 242 317 q 156 406 188 374 q 98 474 125 438 q 53 551 71 510 q 35 642 35 593 q 55 741 35 699 q 110 811 75 783 q 191 853 144 839 q 290 867 238 867 q 328 867 293 867 q 406 866 364 867 q 484 865 449 865 q 522 864 519 864 q 530 813 528 840 q 532 756 532 785 q 529 701 532 728 q 522 651 526 674 q 489 652 518 651 q 426 653 460 653 q 365 654 393 654 q 336 654 338 654 q 322 653 331 654 q 306 650 314 653 q 293 640 299 647 q 288 621 288 633 q 307 573 288 599 q 356 519 326 547 q 418 458 385 490 q 481 388 451 425 q 529 308 510 350 q 549 218 549 265 q 527 116 549 161 q 469 40 506 71 q 385 -8 433 8 q 282 -24 336 -24 q 260 -24 279 -24 q 214 -24 240 -24 q 156 -23 188 -24 q 99 -22 125 -22 q 53 -22 72 -22 q 31 -21 33 -21 z "},"":{"ha":676,"x_min":-4,"x_max":681,"o":"m 442 928 q 369 958 397 928 q 342 1025 342 988 q 370 1092 342 1061 q 442 1122 399 1122 q 513 1092 488 1122 q 539 1025 539 1061 q 514 958 539 988 q 442 928 489 928 m 239 925 q 167 955 194 925 q 139 1022 139 985 q 167 1089 139 1058 q 239 1119 196 1119 q 310 1089 285 1119 q 336 1022 336 1058 q 311 955 336 985 q 239 925 286 925 m 474 6 q 344 -12 414 -14 q 221 6 275 -10 l 221 281 q 206 347 221 303 q 169 447 192 392 q 120 565 147 503 q 68 683 93 626 q 23 785 43 739 q -4 856 3 832 q 119 868 53 867 q 253 856 186 869 l 347 553 l 446 856 q 500 865 469 863 q 563 867 531 868 q 625 864 594 867 q 681 856 656 861 q 665 796 681 838 q 627 699 650 754 q 577 581 604 643 q 527 459 550 518 q 489 351 504 400 q 474 274 474 301 l 474 6 z "},"":{"ha":576,"x_min":26,"x_max":574,"o":"m 358 914 q 292 904 326 907 q 229 908 258 901 q 190 940 211 922 q 151 978 169 958 q 119 1019 133 999 q 99 1057 106 1039 q 130 1118 110 1089 q 178 1168 150 1147 q 210 1151 193 1164 q 242 1124 226 1139 q 272 1092 258 1108 q 293 1068 285 1076 q 313 1091 301 1076 q 340 1120 325 1106 q 370 1147 354 1135 q 401 1163 386 1158 q 448 1111 426 1144 q 478 1042 469 1078 q 425 976 458 1010 q 358 914 392 942 m 565 214 q 572 157 571 189 q 574 100 574 125 q 572 50 574 75 q 565 0 571 25 l 40 0 q 29 45 32 22 q 26 92 26 68 q 28 139 26 115 q 33 186 31 163 l 279 657 l 39 658 q 35 758 35 708 q 39 858 35 808 q 291 858 165 860 q 543 856 417 857 q 550 808 549 832 q 551 760 551 783 q 551 733 551 751 q 549 696 550 715 q 544 659 547 676 q 539 635 542 642 q 517 592 535 625 q 474 513 499 558 q 423 416 450 467 q 373 322 396 365 q 335 250 350 279 q 321 218 321 221 q 326 215 324 215 l 565 214 z "},"":{"ha":576,"x_min":26,"x_max":574,"o":"m 358 914 q 292 904 326 907 q 229 908 258 901 q 190 940 211 922 q 151 978 169 958 q 119 1019 133 999 q 99 1057 106 1039 q 130 1118 110 1089 q 178 1168 150 1147 q 210 1151 193 1164 q 242 1124 226 1139 q 272 1092 258 1108 q 293 1068 285 1076 q 313 1091 301 1076 q 340 1120 325 1106 q 370 1147 354 1135 q 401 1163 386 1158 q 448 1111 426 1144 q 478 1042 469 1078 q 425 976 458 1010 q 358 914 392 942 m 565 214 q 572 157 571 189 q 574 100 574 125 q 572 50 574 75 q 565 0 571 25 l 40 0 q 29 45 32 22 q 26 92 26 68 q 28 139 26 115 q 33 186 31 163 l 279 657 l 39 658 q 35 758 35 708 q 39 858 35 808 q 291 858 165 860 q 543 856 417 857 q 550 808 549 832 q 551 760 551 783 q 551 733 551 751 q 549 696 550 715 q 544 659 547 676 q 539 635 542 642 q 517 592 535 625 q 474 513 499 558 q 423 416 450 467 q 373 322 396 365 q 335 250 350 279 q 321 218 321 221 q 326 215 324 215 l 565 214 z "},"":{"ha":578,"x_min":-37,"x_max":515,"o":"m 42 488 q 35 560 31 518 q 50 635 39 601 q 84 644 65 642 q 125 647 103 647 l 125 650 q 146 750 129 704 q 197 828 163 796 q 283 879 231 861 q 410 897 335 897 q 496 881 461 897 q 510 835 506 860 q 515 785 515 810 q 511 740 515 761 q 500 701 507 718 q 456 697 482 697 q 414 698 432 697 q 382 695 396 699 q 360 681 368 692 q 349 647 351 671 q 412 647 382 646 q 465 642 442 647 q 479 558 479 601 q 467 475 479 514 q 406 471 442 471 l 344 472 l 336 93 q 313 -5 335 42 q 250 -88 290 -51 q 155 -147 210 -125 q 33 -172 100 -169 q -20 -89 -6 -136 q -37 19 -35 -42 q 9 35 -17 31 q 57 47 35 39 q 94 67 79 54 q 110 107 110 81 l 117 472 q 77 474 97 472 q 42 488 57 476 z "},"":{"ha":424,"x_min":38,"x_max":417,"o":"m 297 1154 q 364 1092 331 1126 q 417 1026 397 1058 q 387 957 408 990 q 340 906 365 924 q 309 922 325 910 q 278 948 293 933 q 252 977 264 963 q 232 1000 240 992 q 210 976 224 992 q 181 945 197 961 q 149 917 165 929 q 117 900 132 904 q 69 950 89 921 q 38 1011 49 979 q 58 1049 44 1029 q 90 1090 72 1069 q 129 1128 108 1110 q 168 1160 150 1146 q 215 1164 189 1164 q 256 1161 235 1164 q 297 1154 278 1158 z "},"":{"ha":442,"x_min":38,"x_max":417,"o":"m 297 914 q 256 907 278 910 q 215 904 235 904 q 168 908 189 904 q 129 940 150 922 q 90 978 108 958 q 58 1019 72 999 q 38 1057 44 1039 q 69 1118 49 1089 q 117 1168 89 1147 q 149 1151 132 1164 q 181 1124 165 1139 q 210 1092 197 1108 q 232 1068 224 1076 q 252 1091 240 1076 q 278 1120 264 1106 q 309 1147 293 1135 q 340 1163 325 1158 q 387 1111 365 1144 q 417 1042 408 1078 q 364 976 397 1010 q 297 914 331 942 z "},"":{"ha":419,"x_min":38,"x_max":389,"o":"m 267 1146 q 290 1150 278 1149 q 317 1151 303 1151 q 341 1150 329 1151 q 363 1146 353 1149 q 382 1115 375 1133 q 389 1078 389 1097 q 377 1008 389 1042 q 343 948 365 974 q 288 907 321 922 q 215 892 256 892 q 144 906 176 892 q 88 944 111 919 q 51 1001 64 968 q 38 1071 38 1033 q 42 1113 38 1093 q 58 1146 47 1132 q 108 1153 83 1153 q 163 1146 135 1153 q 169 1122 165 1135 q 178 1098 172 1108 q 193 1081 185 1088 q 213 1074 201 1074 q 256 1097 243 1074 q 267 1146 268 1119 z "},"":{"ha":321,"x_min":54,"x_max":251,"o":"m 154 925 q 82 955 110 925 q 54 1022 54 985 q 83 1089 54 1058 q 154 1119 111 1119 q 226 1089 200 1119 q 251 1022 251 1058 q 226 955 251 985 q 154 925 201 925 z "},"":{"ha":328,"x_min":33,"x_max":322,"o":"m 168 910 q 71 943 108 910 q 33 1029 33 976 q 44 1080 33 1057 q 74 1121 56 1103 q 119 1149 93 1139 q 175 1158 144 1158 q 231 1149 204 1158 q 278 1122 257 1139 q 310 1082 299 1104 q 322 1035 322 1060 q 310 987 322 1010 q 276 947 297 964 q 226 920 254 931 q 168 910 199 910 m 178 1054 q 155 1046 165 1054 q 144 1032 144 1038 q 152 1020 144 1028 q 175 1013 160 1013 q 196 1019 186 1013 q 206 1032 206 1025 q 197 1047 206 1039 q 178 1054 188 1054 z "},"":{"ha":344,"x_min":40,"x_max":336,"o":"m 113 104 q 146 108 128 108 q 206 99 174 108 q 263 72 238 90 q 247 34 257 54 q 228 -5 238 14 q 214 -40 219 -24 q 210 -67 208 -57 q 219 -76 211 -72 q 235 -79 228 -79 q 273 -75 254 -79 q 311 -71 292 -71 l 314 -71 q 333 -217 336 -132 q 286 -246 314 -235 q 235 -257 258 -257 q 158 -245 193 -257 q 97 -210 122 -233 q 56 -153 71 -186 q 40 -75 40 -119 q 61 19 40 -26 q 113 104 82 65 z "},"":{"ha":524,"x_min":43,"x_max":492,"o":"m 115 900 q 72 962 92 929 q 43 1031 53 994 q 65 1078 51 1054 q 99 1124 79 1103 q 142 1158 118 1144 q 192 1171 165 1171 q 231 1160 213 1171 q 267 1135 249 1149 q 304 1111 285 1122 q 347 1100 324 1100 q 365 1107 357 1100 q 378 1123 372 1114 q 390 1142 385 1132 q 399 1160 394 1153 q 452 1121 428 1150 q 492 1065 476 1092 q 471 1006 485 1036 q 436 952 457 976 q 388 913 415 928 q 329 897 361 897 q 292 908 308 897 q 258 933 275 919 q 225 957 242 946 q 189 968 208 968 q 167 960 176 968 q 149 940 157 951 q 132 918 140 929 q 115 900 124 907 z "},"":{"ha":479,"x_min":24,"x_max":458,"o":"m 97 882 q 72 890 85 882 q 49 908 60 897 q 31 930 38 918 q 24 951 24 942 q 39 1008 24 972 q 76 1079 54 1044 q 122 1139 97 1114 q 168 1164 147 1164 q 194 1152 179 1164 q 224 1125 210 1140 q 247 1093 238 1110 q 256 1068 256 1076 q 238 1022 256 1053 q 194 959 219 990 q 141 905 168 928 q 97 882 114 882 m 310 863 q 276 867 293 863 q 244 882 258 872 q 220 906 229 892 q 211 936 211 919 q 228 993 211 957 q 272 1063 246 1029 q 326 1122 297 1097 q 378 1147 356 1147 q 405 1140 390 1147 q 431 1122 419 1133 q 451 1098 443 1111 q 458 1072 458 1085 q 442 1019 458 1054 q 401 949 425 983 q 353 888 378 914 q 310 863 328 863 z "},"":{"ha":854,"x_min":82,"x_max":810,"o":"m 588 753 q 704 774 640 774 q 810 757 763 774 l 810 190 q 809 147 810 174 q 805 90 808 119 q 794 29 801 60 q 775 -26 788 -1 q 727 -44 754 -36 q 672 -51 700 -51 q 629 -44 650 -51 q 613 -11 619 -29 q 600 24 606 7 q 592 57 594 42 q 588 82 589 72 q 523 37 557 53 q 440 21 489 21 q 381 29 406 21 q 329 56 356 38 l 328 56 l 328 -115 q 324 -154 328 -136 q 253 -172 292 -165 q 172 -179 214 -179 q 114 -175 143 -179 q 94 -90 101 -137 q 85 2 88 -43 q 82 83 82 47 q 82 135 82 119 q 84 191 82 163 q 86 247 86 219 q 85 285 86 254 q 85 360 85 315 q 85 460 85 406 q 85 567 85 514 q 88 667 86 619 q 94 744 90 714 q 148 768 114 758 q 218 778 182 778 q 270 771 244 778 q 317 749 296 764 q 322 701 324 728 q 321 647 321 675 l 321 490 q 324 431 321 465 q 339 365 326 397 q 376 311 351 333 q 447 289 401 289 q 530 318 503 289 q 567 388 557 347 q 578 473 578 429 q 578 546 578 517 q 577 585 578 560 q 577 640 576 610 q 580 699 578 669 q 588 753 582 729 z "},"":{"ha":661,"x_min":75,"x_max":567,"o":"m 553 538 q 567 431 567 489 q 553 332 567 372 q 499 322 526 322 q 424 320 476 321 q 312 319 371 319 q 200 319 253 319 q 125 319 147 319 q 106 321 115 319 q 89 325 97 322 q 78 374 82 347 q 75 427 75 400 q 78 481 75 454 q 89 529 82 507 q 140 538 113 538 q 219 540 164 539 q 334 540 274 540 q 449 540 394 540 q 528 540 504 540 q 540 540 535 540 q 553 538 546 539 z "},"":{"ha":757,"x_min":75,"x_max":681,"o":"m 667 538 q 681 431 681 489 q 667 332 681 372 q 613 322 640 322 q 560 322 597 322 q 473 320 522 321 q 369 319 424 319 q 265 319 314 319 q 178 319 215 319 q 125 319 140 319 q 106 321 115 319 q 89 325 97 322 q 78 374 82 347 q 75 427 75 400 q 78 481 75 454 q 89 529 82 507 q 140 538 113 538 q 196 539 157 539 q 285 540 235 539 q 391 540 335 540 q 497 540 447 540 q 586 540 547 540 q 642 540 625 540 q 654 540 649 540 q 667 538 660 539 z "},"":{"ha":243,"x_min":10,"x_max":222,"o":"m 121 963 q 176 949 151 964 q 222 914 200 935 q 216 900 221 908 q 206 882 211 892 q 194 865 200 872 q 186 853 189 857 q 211 816 201 838 q 221 776 221 794 q 195 702 221 733 q 114 671 169 671 q 63 683 83 671 q 31 713 43 694 q 15 753 19 731 q 10 796 10 775 q 18 842 10 817 q 41 892 26 868 q 76 935 56 915 q 121 963 96 954 z "},"":{"ha":240,"x_min":10,"x_max":222,"o":"m 111 672 q 56 685 81 671 q 10 721 32 700 q 17 735 13 726 q 26 753 21 743 q 38 770 32 763 q 46 782 43 778 q 21 819 31 797 q 11 858 11 840 q 37 933 11 901 q 118 964 63 964 q 169 952 149 964 q 201 922 189 940 q 217 882 213 904 q 222 839 222 860 q 215 792 222 818 q 192 743 207 767 q 157 700 178 719 q 111 672 136 681 z "},"":{"ha":269,"x_min":26,"x_max":239,"o":"m 128 -69 q 73 -56 97 -71 q 26 -21 49 -42 q 33 -7 29 -15 q 43 11 38 1 q 54 28 49 21 q 63 40 60 36 q 38 77 47 56 q 28 117 28 99 q 53 191 28 160 q 135 222 79 222 q 185 210 165 222 q 217 181 206 199 q 234 140 229 163 q 239 97 239 118 q 231 51 239 76 q 209 1 224 25 q 174 -42 194 -22 q 128 -69 153 -61 z "},"":{"ha":469,"x_min":17,"x_max":444,"o":"m 128 963 q 183 949 158 964 q 229 914 207 935 q 223 900 228 908 q 213 882 218 892 q 201 865 207 872 q 193 853 196 857 q 218 816 208 838 q 228 776 228 794 q 202 702 228 733 q 121 671 176 671 q 70 683 90 671 q 38 713 50 694 q 22 753 26 731 q 17 796 17 775 q 25 842 17 817 q 48 892 33 868 q 83 935 63 915 q 128 963 103 954 m 343 954 q 398 941 374 956 q 444 906 422 926 q 438 892 443 900 q 428 874 433 883 q 417 856 422 864 q 408 844 411 849 q 433 808 424 829 q 443 768 443 786 q 417 694 443 725 q 336 663 392 663 q 285 674 306 663 q 253 704 265 686 q 237 744 242 722 q 232 788 232 767 q 240 834 232 808 q 263 883 249 860 q 298 926 278 907 q 343 954 318 946 z "},"":{"ha":478,"x_min":10,"x_max":446,"o":"m 111 672 q 56 685 81 671 q 10 721 32 700 q 17 735 13 726 q 26 753 21 743 q 38 770 32 763 q 46 782 43 778 q 21 819 31 797 q 11 858 11 840 q 37 933 11 901 q 118 964 63 964 q 169 952 149 964 q 201 922 189 940 q 217 882 213 904 q 222 839 222 860 q 215 792 222 818 q 192 743 207 767 q 157 700 178 719 q 111 672 136 681 m 335 667 q 280 680 304 665 q 233 715 256 694 q 240 729 236 721 q 250 747 244 738 q 261 765 256 757 q 269 776 267 772 q 244 813 254 792 q 235 853 235 835 q 260 927 235 896 q 342 958 286 958 q 392 947 372 958 q 424 917 413 935 q 441 876 436 899 q 446 833 446 854 q 438 787 446 813 q 416 738 431 761 q 381 694 401 714 q 335 667 360 675 z "},"":{"ha":481,"x_min":21,"x_max":451,"o":"m 340 -60 q 285 -47 310 -61 q 239 -11 261 -32 q 246 3 242 -6 q 256 21 250 11 q 267 38 261 31 q 275 50 272 46 q 250 87 260 65 q 240 126 240 108 q 266 201 240 169 q 347 232 292 232 q 398 220 378 232 q 430 190 418 208 q 447 150 442 172 q 451 107 451 128 q 444 60 451 86 q 422 11 436 35 q 386 -32 407 -12 q 340 -60 365 -51 m 122 -69 q 67 -56 92 -71 q 21 -21 43 -42 q 28 -7 24 -15 q 38 11 32 1 q 49 28 43 21 q 57 40 54 36 q 32 77 42 56 q 22 117 22 99 q 48 191 22 160 q 129 222 74 222 q 180 210 160 222 q 212 181 200 199 q 228 140 224 163 q 233 97 233 118 q 226 51 233 76 q 203 1 218 25 q 168 -42 189 -22 q 122 -69 147 -61 z "},"":{"ha":613,"x_min":60,"x_max":563,"o":"m 410 -89 q 366 -97 389 -94 q 321 -99 343 -99 q 263 -93 290 -99 q 217 -76 236 -87 q 213 -24 215 -56 q 210 45 211 8 q 208 119 208 82 q 206 189 207 157 q 205 243 206 221 q 204 272 204 265 l 210 592 q 176 591 193 592 q 143 590 160 590 q 110 592 126 590 q 78 596 93 593 q 65 681 69 635 q 75 771 60 728 q 140 776 101 776 q 176 776 158 776 q 211 775 193 776 q 216 841 214 803 q 229 911 218 879 q 275 922 251 918 q 324 925 299 925 q 369 922 347 925 q 414 908 392 918 q 426 859 424 885 q 428 813 428 833 l 428 772 l 467 772 q 510 772 490 772 q 550 768 531 771 q 560 678 563 722 q 544 593 557 633 q 524 591 535 592 q 503 590 514 590 q 462 591 483 590 q 419 593 440 592 l 419 349 q 419 309 419 339 q 419 238 419 279 q 419 149 419 197 q 418 56 419 101 q 415 -28 417 11 q 410 -89 413 -67 z "},"":{"ha":603,"x_min":47,"x_max":565,"o":"m 404 -89 q 360 -97 383 -94 q 315 -99 338 -99 q 258 -93 285 -99 q 211 -76 231 -87 q 206 -10 208 -51 q 201 76 204 32 l 132 76 q 98 78 115 76 q 65 82 81 79 q 52 167 57 121 q 63 257 47 214 q 94 261 78 260 q 129 263 111 263 l 199 263 l 199 272 l 204 592 q 171 591 188 592 q 138 590 154 590 q 104 592 121 590 q 72 596 88 593 q 59 681 64 635 q 69 771 54 728 q 135 776 96 776 q 170 776 153 776 q 206 775 188 776 q 210 841 208 803 q 224 911 213 879 q 269 922 246 918 q 318 925 293 925 q 364 922 342 925 q 408 908 386 918 q 420 859 418 885 q 422 813 422 833 l 422 772 l 461 772 q 505 772 485 772 q 544 768 525 771 q 554 678 557 722 q 539 593 551 633 q 519 591 529 592 q 497 590 508 590 q 456 591 478 590 q 414 593 435 592 l 414 349 q 414 317 414 340 q 415 258 414 293 l 465 258 q 510 258 489 258 q 551 254 532 257 q 563 164 565 208 q 546 79 560 119 q 526 77 536 78 q 503 76 515 76 q 461 77 483 76 q 417 79 439 78 l 413 79 q 409 -18 411 26 q 404 -89 407 -62 z "},"":{"ha":426,"x_min":35,"x_max":386,"o":"m 211 269 q 142 282 174 269 q 85 317 110 294 q 48 372 61 340 q 35 442 35 404 q 46 513 35 478 q 79 577 57 549 q 133 624 101 606 q 203 642 164 642 q 337 594 288 642 q 386 461 386 547 q 374 386 386 421 q 340 325 363 351 q 285 284 318 299 q 211 269 253 269 z "},"":{"ha":1075,"x_min":43,"x_max":1042,"o":"m 179 -44 q 75 -8 107 -44 q 43 101 43 28 q 78 205 43 164 q 178 246 114 246 q 287 213 249 246 q 325 113 325 181 q 287 -1 325 42 q 179 -44 249 -44 m 538 -44 q 433 -8 465 -44 q 401 101 401 28 q 437 205 401 164 q 536 246 472 246 q 645 213 607 246 q 683 113 683 181 q 645 -1 683 42 q 538 -44 607 -44 m 896 -44 q 792 -8 824 -44 q 760 101 760 28 q 795 205 760 164 q 894 246 831 246 q 1003 213 965 246 q 1042 113 1042 181 q 1003 -1 1042 42 q 896 -44 965 -44 z "},"":{"ha":1275,"x_min":39,"x_max":1222,"o":"m 247 -6 q 165 33 200 10 q 124 103 131 56 q 167 182 138 136 q 231 273 197 228 q 295 357 264 318 q 343 414 326 396 q 484 588 415 500 q 628 761 553 676 q 670 805 646 781 q 725 844 694 829 q 798 794 765 826 q 853 722 831 763 q 824 664 844 692 q 668 464 749 563 q 507 265 588 365 q 465 211 488 240 q 417 151 442 182 q 369 93 393 121 q 321 43 344 65 q 288 15 306 29 q 247 -6 271 1 m 250 482 q 158 498 197 482 q 92 540 118 514 q 52 599 65 565 q 39 669 39 633 q 54 733 39 701 q 97 789 69 764 q 163 829 125 814 q 246 844 200 844 q 400 799 353 844 q 447 678 447 754 q 435 611 447 646 q 397 548 422 576 q 335 501 372 519 q 250 482 299 482 m 250 644 q 274 656 267 644 q 281 678 281 667 q 269 688 281 686 q 250 690 258 690 q 228 686 239 690 q 217 672 217 682 q 226 653 217 661 q 250 644 235 644 m 1025 297 q 933 313 972 297 q 867 355 893 329 q 827 415 840 381 q 814 485 814 449 q 829 548 814 517 q 872 604 844 579 q 937 644 899 629 q 1021 660 975 660 q 1174 615 1126 660 q 1222 493 1222 569 q 1210 428 1222 463 q 1172 364 1197 393 q 1110 316 1147 335 q 1025 297 1074 297 m 1025 460 q 1049 471 1042 460 q 1056 493 1056 482 q 1044 503 1056 501 q 1025 506 1033 506 q 1003 501 1014 506 q 992 488 992 497 q 1001 468 992 476 q 1025 460 1010 460 m 738 -22 q 645 -6 685 -22 q 579 35 606 10 q 540 95 553 61 q 526 165 526 129 q 542 228 526 197 q 584 285 557 260 q 649 325 611 310 q 733 340 688 340 q 887 295 839 340 q 935 174 935 250 q 922 108 935 143 q 885 44 910 74 q 823 -3 860 15 q 738 -22 786 -22 m 738 140 q 761 151 754 140 q 768 174 768 163 q 757 184 768 182 q 738 186 746 186 q 715 182 726 186 q 704 168 704 178 q 713 149 704 157 q 738 140 722 140 z "},"":{"ha":436,"x_min":13,"x_max":415,"o":"m 407 326 q 373 243 396 285 q 319 174 350 201 q 251 201 292 185 q 169 237 211 217 q 88 281 126 257 q 26 333 50 306 q 15 430 13 381 q 26 521 17 479 q 91 583 51 553 q 173 639 131 614 q 255 682 215 664 q 319 710 294 700 q 374 660 347 694 q 415 586 400 626 q 388 549 407 568 q 344 512 368 531 q 295 475 321 493 q 247 440 269 457 q 338 388 292 417 q 407 326 383 358 z "},"":{"ha":426,"x_min":8,"x_max":411,"o":"m 18 326 q 86 388 40 358 q 176 440 132 417 q 128 475 154 457 q 79 512 103 493 q 36 549 56 531 q 8 586 17 568 q 50 660 24 626 q 104 710 76 694 q 169 682 129 700 q 251 639 208 664 q 333 583 293 614 q 397 521 372 553 q 409 430 407 479 q 397 333 411 381 q 335 281 374 306 q 255 237 297 257 q 172 201 213 217 q 104 174 132 185 q 51 243 74 201 q 18 326 29 285 z "},"":{"ha":736,"x_min":-1,"x_max":728,"o":"m 122 -6 q 40 33 75 10 q -1 103 6 56 q 42 182 13 136 q 106 273 72 228 q 170 357 139 318 q 218 414 201 396 q 359 588 290 500 q 503 761 428 676 q 545 805 521 781 q 600 844 569 829 q 673 794 640 826 q 728 722 706 763 q 699 664 719 692 q 543 464 624 563 q 382 265 463 365 q 340 211 363 240 q 292 151 317 182 q 244 93 268 121 q 196 43 219 65 q 163 15 181 29 q 122 -6 146 1 z "},"":{"ha":703,"x_min":28,"x_max":665,"o":"m 36 233 q 28 307 29 268 q 43 376 28 346 q 62 379 51 379 q 83 379 72 379 l 94 379 q 95 399 94 390 q 96 417 96 407 q 47 424 71 417 q 41 490 39 457 q 53 556 43 524 q 95 566 72 564 q 142 568 118 568 q 207 690 163 636 q 312 780 251 743 q 444 836 372 817 q 594 856 517 856 q 653 843 622 856 q 661 754 665 799 q 647 663 657 710 q 628 663 642 661 q 610 664 615 664 q 549 658 582 665 q 483 636 515 650 q 424 605 451 622 q 379 568 396 588 l 513 568 q 525 568 519 568 q 536 567 531 568 q 546 488 549 522 q 531 418 543 454 q 514 417 522 417 q 497 417 506 417 l 310 417 q 306 399 307 408 q 304 381 306 390 q 355 381 332 381 q 399 383 378 382 q 444 384 421 383 q 494 385 467 385 q 515 384 506 385 q 531 381 524 383 q 538 305 540 340 q 526 233 536 269 q 469 226 507 226 q 435 226 449 226 q 407 226 421 226 q 379 225 393 225 q 344 225 365 225 q 402 178 368 192 q 474 160 436 164 q 549 156 511 156 q 619 149 586 156 q 628 49 628 99 q 611 -43 628 0 q 595 -44 603 -44 q 579 -44 588 -44 q 410 -33 485 -44 q 280 7 336 -22 q 185 89 224 36 q 124 225 147 142 q 78 226 101 225 q 36 233 56 226 z "},"":{"ha":1050,"x_min":21,"x_max":972,"o":"m 447 997 q 506 1009 472 1008 q 568 1006 539 1010 q 631 947 600 982 q 692 886 661 911 q 735 942 706 907 q 799 1003 764 978 q 870 1008 833 1010 q 939 997 907 1006 q 965 944 958 974 q 972 890 972 914 l 972 568 q 969 542 972 556 q 960 514 965 528 q 882 506 924 506 q 800 517 840 506 q 797 545 797 531 q 796 572 796 560 l 799 750 q 775 726 789 743 q 747 691 761 708 q 717 660 732 674 q 686 647 701 647 q 660 657 674 647 q 633 681 646 667 q 607 712 619 696 q 583 740 594 728 l 583 568 q 582 544 583 557 q 575 519 581 531 q 498 510 538 508 q 426 522 458 513 q 424 545 424 533 q 424 565 424 557 l 424 896 q 428 943 424 913 q 447 997 432 974 m 397 1003 q 408 935 408 972 q 397 867 408 899 q 380 863 392 865 q 356 860 368 861 q 331 858 343 860 q 311 857 319 857 l 311 538 q 308 524 311 528 q 220 513 267 513 q 140 526 174 514 l 140 857 q 116 858 131 857 q 86 859 101 858 q 58 862 71 860 q 38 865 44 864 q 40 1001 21 932 q 51 1003 46 1003 q 63 1004 56 1004 l 385 1004 q 397 1003 392 1004 z "},"":{"ha":622,"x_min":35,"x_max":576,"o":"m 558 501 q 575 402 576 457 q 561 294 574 347 q 536 288 551 290 q 505 283 521 285 q 474 279 489 281 q 449 278 458 278 q 294 280 371 278 q 140 283 218 282 q 119 284 133 283 q 91 287 106 285 q 64 292 76 289 q 46 299 51 294 q 38 405 35 347 q 56 501 40 463 q 108 513 76 510 q 174 517 140 517 q 237 517 207 518 q 285 517 267 517 q 320 517 303 517 q 357 518 338 518 q 403 518 376 518 q 458 517 429 518 q 513 513 486 517 q 558 501 539 510 z "},"":{"ha":1035,"x_min":25,"x_max":1014,"o":"m 1006 174 q 1012 138 1010 158 q 1014 94 1014 117 q 1012 52 1014 72 q 1006 17 1010 32 q 972 8 993 11 q 924 2 950 4 q 870 0 897 0 q 819 0 843 0 l 775 0 q 674 3 717 0 q 614 25 631 7 q 610 56 611 38 q 610 93 610 74 q 611 132 610 113 q 614 165 613 151 q 646 178 624 174 q 692 182 668 182 l 689 690 l 668 690 q 656 690 664 690 q 640 691 649 690 q 624 692 632 692 q 614 694 617 693 q 607 769 607 726 q 614 846 607 811 q 687 858 638 856 q 786 860 736 860 q 846 859 814 860 q 908 857 878 858 q 963 852 938 856 q 1001 843 988 849 q 1001 701 1014 768 q 969 699 986 701 q 938 700 953 697 l 938 178 q 951 178 942 178 q 972 177 961 178 q 993 176 983 176 q 1006 174 1003 175 m 513 465 q 522 365 522 417 q 510 269 521 314 l 274 267 l 278 99 q 278 80 278 94 q 278 49 278 65 q 277 17 278 32 q 276 0 276 3 q 221 -8 251 -6 q 158 -10 190 -11 q 94 -7 126 -10 q 35 0 63 -4 q 28 147 31 61 q 26 331 26 233 q 26 531 25 429 q 26 722 26 632 q 32 790 26 754 q 53 857 38 825 q 155 857 85 857 q 303 856 225 857 q 452 856 382 856 q 554 856 522 856 q 565 757 565 808 q 554 656 564 706 l 301 657 q 285 653 293 657 q 278 642 278 650 l 278 479 q 297 463 278 463 q 347 463 318 463 q 405 464 375 464 q 463 465 435 464 q 513 465 492 465 z "},"":{"ha":1147,"x_min":25,"x_max":1118,"o":"m 1104 228 q 1115 172 1111 203 q 1118 110 1118 142 q 1115 49 1118 79 q 1104 -1 1111 19 l 965 -1 q 901 -1 950 -1 q 796 -1 851 -1 q 691 0 740 0 q 626 0 642 0 l 624 72 l 624 817 q 624 837 624 828 q 626 856 625 846 q 744 867 683 867 q 863 856 804 867 q 867 840 865 849 q 868 825 868 832 l 868 238 q 921 246 886 244 q 993 245 956 247 q 1063 238 1031 243 q 1104 228 1094 233 m 513 465 q 522 365 522 417 q 510 269 521 314 l 274 267 l 278 99 q 278 80 278 94 q 278 49 278 65 q 277 17 278 32 q 276 0 276 3 q 221 -8 251 -6 q 158 -10 190 -11 q 94 -7 126 -10 q 35 0 63 -4 q 28 147 31 61 q 26 331 26 233 q 26 531 25 429 q 26 722 26 632 q 32 790 26 754 q 53 857 38 825 q 155 857 85 857 q 303 856 225 857 q 452 856 382 856 q 554 856 522 856 q 565 757 565 808 q 554 656 564 706 l 301 657 q 285 653 293 657 q 278 642 278 650 l 278 479 q 297 463 278 463 q 347 463 318 463 q 405 464 375 464 q 463 465 435 464 q 513 465 492 465 z "}}}
